<svg xmlns="http://www.w3.org/2000/svg" width="130" height="130" viewBox="0 0 130 130">
    <defs>
        <linearGradient id="a" x1="0%" x2="106.621%" y1="-13.452%" y2="109.02%">
            <stop offset="0%" stop-color="#F7618B"/>
            <stop offset="100%" stop-color="#2A7AFF"/>
        </linearGradient>
    </defs>
    <g fill="none" fill-rule="evenodd">
        <path d="M-17-13h160v160H-17z"/>
        <path stroke="url(#a)" stroke-width="5.455" d="M71.818 140C43.2 140 20 116.8 20 88.182c0-28.619 23.2-51.818 51.818-51.818 28.619 0 51.818 23.2 51.818 51.818S100.436 140 71.818 140zm0-10.909c22.558 0 40.909-18.352 40.909-40.909s-18.35-40.909-40.91-40.909c-22.558 0-40.908 18.352-40.908 40.91 0 22.556 18.35 40.908 40.909 40.908zm0-10.909c-16.542 0-30-13.458-30-30s13.458-30 30-30 30 13.458 30 30-13.458 30-30 30zm0-10.909c10.543 0 19.09-8.547 19.09-19.09 0-10.544-8.547-19.092-19.09-19.092-10.544 0-19.091 8.548-19.091 19.091 0 10.544 8.547 19.091 19.09 19.091zm0-10.91a8.182 8.182 0 1 1 0-16.363 8.182 8.182 0 0 1 0 16.364z" transform="translate(-17 -13)"/>
        <g stroke="url(#a)" stroke-width="5.455" transform="translate(55 7)">
            <path d="M54.5 13.5H68L54.5 27H41V13.5L54.5 0v13.5zM0 68l55-55"/>
        </g>
    </g>
</svg>
