<svg xmlns="http://www.w3.org/2000/svg" width="87" height="31" viewBox="0 0 87 31">
    <g fill="none" fill-rule="evenodd">
        <path fill="#986CC0" fill-rule="nonzero" d="M44 0H0v25h44V0zm-1.117 23.899H1.117V1.1h41.766V23.9z"/>
        <path fill="#986CC0" fill-rule="nonzero" d="M50 9h-1.12v20.91H12V31h38z"/>
        <g fill="#986CC0" fill-rule="nonzero">
            <path d="M22 18.98c3.306-.031 5.965-2.712 5.944-5.996-.02-3.283-2.711-5.932-6.018-5.922-3.306.01-5.981 2.675-5.982 5.959.03 3.3 2.733 5.958 6.056 5.958zm0-10.87c2.7 0 4.889 2.174 4.889 4.856 0 2.681-2.189 4.855-4.889 4.855s-4.889-2.174-4.889-4.855c.03-2.67 2.201-4.826 4.889-4.856zM32.944 19.034h5.5v1.103h-5.5zM5.556 5.903h5.5v1.103h-5.5z"/>
        </g>
        <g stroke="#986CC0" stroke-width="1.1">
            <path d="M54.736 16.5h30M75.5 8.5l9.955 8-9.955 8"/>
        </g>
    </g>
</svg>
