<svg xmlns="http://www.w3.org/2000/svg" xmlns:xlink="http://www.w3.org/1999/xlink" width="119" height="113" viewBox="0 0 119 113">
    <defs>
        <ellipse id="a" cx="51.297" cy="51.244" rx="50.637" ry="50.456"/>
        <linearGradient id="b" x1="0%" x2="106.621%" y1="-13.452%" y2="109.02%">
            <stop offset="0%" stop-color="#F7618B"/>
            <stop offset="100%" stop-color="#2A7AFF"/>
        </linearGradient>
    </defs>
    <g fill="none" fill-rule="evenodd" transform="translate(-.3)">
        <g transform="translate(0 10.512)">
            <mask id="c" fill="#fff">
                <use xlink:href="#a"/>
            </mask>
            <path fill="url(#b)" fill-rule="nonzero" d="M95.473 101.831c1.186-.525 2.241-1.182 3.164-2.102.792-.788 1.319-1.577 1.847-2.496 3.164.788 6.725-.132 9.23-2.628 1.319-1.314 2.11-2.76 2.506-4.336 1.187-.526 2.242-1.183 3.165-2.103 1.186-1.182 1.846-2.496 2.373-3.81 2.77.131 5.539-.789 7.517-2.76 2.373-2.365 3.165-5.518 2.769-8.54.264-.263.66-.526.923-.789 1.846-1.84 2.77-4.204 2.901-6.57 2.11-3.678 1.45-8.409-1.582-11.562-3.824-3.81-10.022-3.81-13.846 0-1.847 1.84-2.77 4.205-2.902 6.57-1.054 1.97-1.45 4.204-1.054 6.307-.264.262-.66.525-.924.788-1.186 1.183-1.846 2.497-2.373 3.81-2.77-.13-5.539.789-7.517 2.76-1.318 1.314-2.11 2.76-2.505 4.336-1.187.525-2.242 1.182-3.165 2.102-.527.526-.923 1.051-1.319 1.577-2.241-.788-4.747-.788-6.989.131-.527-1.182-1.318-2.365-2.241-3.416-3.956-3.942-10.55-4.073-14.638-.131-.264-2.234-1.318-4.468-3.033-6.176-1.45-1.445-3.296-2.365-5.275-2.76a10.293 10.293 0 0 0-1.978-6.7 10.916 10.916 0 0 0-1.582-6.964c.396-.132.66-.263.923-.526.528-.526.66-1.183.528-1.84.527 0 .923-.262 1.318-.525.528-.526.66-1.314.528-2.102.527 0 1.187-.132 1.582-.526.396-.394.66-1.051.528-1.577.263-.131.659-.263.79-.525.396-.395.528-.92.528-1.314.132 0 .264-.132.396-.263s.264-.394.396-.657c.395 0 .79-.131 1.054-.394s.396-.789.396-1.183h.132a1.267 1.267 0 0 0 0-1.84 1.278 1.278 0 0 0-1.846 0c-.264.263-.396.526-.396.789-.395 0-.791.131-1.055.394-.263.263-.395.657-.395 1.051 0 0 0 .132-.132.132-.66-.132-1.319.131-1.846.525-.396.395-.66 1.052-.528 1.577 0 0-.132 0-.132.132-.527-.132-1.187.13-1.714.525-.396.394-.66.92-.527 1.577-.66-.263-1.583-.132-2.11.525-.264.263-.528.657-.528 1.052-.791-.263-1.582-.132-2.242.394-.263.263-.395.525-.527.788-.923-.394-1.846-.525-2.77-.657-.131-.394-.263-.657-.527-.92 0 0-.132-.131-.264-.131.132-.131.396-.263.528-.394a2.057 2.057 0 0 0 0-2.89l-.132-.132.132-.132c.527-.525.66-1.182.527-1.84.528 0 1.055-.13 1.451-.525.396-.394.66-1.051.527-1.577.396-.13.66-.262.924-.525.527-.526.659-1.314.527-2.102.527 0 .923-.263 1.319-.526.527-.526.659-1.445.527-2.102.132 0 .132 0 .264-.132.527.263 1.055.132 1.45-.263.264-.262.396-.788.396-1.182h.132a1.267 1.267 0 0 0 0-1.84 1.278 1.278 0 0 0-1.846 0c-.264.263-.396.526-.396.789-.395 0-.791.131-1.055.394a1.417 1.417 0 0 0-.395.92c-.66-.132-1.187.131-1.715.525-.395.394-.527.789-.527 1.183-.66-.263-1.45-.132-2.11.525-.528.526-.66 1.052-.528 1.709-.659-.132-1.186.131-1.714.525-.132.132-.264.394-.395.526-.66-.263-1.583-.132-2.11.394-.132.131-.396.394-.396.657-.132-.132-.132-.263-.264-.394a2.075 2.075 0 0 0-2.9 0c-.133.131-.133.131-.133.262a8.745 8.745 0 0 0-3.692 0c0-.525-.264-1.05-.66-1.445-.263-.263-.659-.525-1.186-.525-.396-.657-.923-1.183-1.45-1.709-1.451-1.445-3.297-2.365-5.143-2.759 0-.131 0-.263-.132-.394.923-3.416 0-7.227-2.77-9.986-2.373-2.365-5.538-3.285-8.571-3.022 1.319-2.497 1.582-5.519.66-8.147 1.846-2.102 2.637-4.861 2.505-7.62 2.11-.263 4.088-1.183 5.802-2.76C29.011 3.285 29.67 2.102 30.198.92c3.165.788 6.593-.132 9.099-2.628 2.769-2.76 3.56-6.833 2.241-10.249 2.506 0 5.011-.92 6.858-2.89a9.73 9.73 0 0 0 0-13.797c-3.825-3.81-10.022-3.81-13.847 0-1.186 1.182-2.11 2.628-2.505 4.204a9.656 9.656 0 0 0-8.835 2.628c-2.638 2.628-3.429 6.176-2.506 9.46-2.373 0-4.747 1.052-6.593 2.892a9.728 9.728 0 0 0-2.901 6.963C8.703-2.365 6.198-1.314 4.352.526 1.45 3.416.659 7.62 1.846 11.3-1.187 14.716-1.45 19.71.791 23.52c-.66.263-1.187.657-1.714 1.182-1.45 1.446-2.11 3.285-2.11 5.519-4.615.131-8.571 1.445-11.209 4.073-10.417 10.38-.66 36.79 21.758 58.997 22.418 22.337 48.924 31.929 59.21 21.68.922-.92 1.582-1.84 2.241-3.022 3.824 1.182 7.253.788 9.495-1.314 5.802 3.942 12.263 4.73 15.56 1.445 2.242-2.628 2.637-6.307 1.45-10.249z" mask="url(#c)"/>
        </g>
        <path fill="#3CD482" fill-rule="nonzero" d="M106.55 6.701V6.57l-.264-.263h-.132c-.132 0-2.242-.526-5.143-.526-3.429 0-8.176.657-11.209 3.68L78.33 20.89c-.923.395-2.638.79-6.33.79-6.857 0-9.23 2.496-12.396 5.65l-.659.656c-.264.263-1.319 1.314 4.088 8.147l-6.066 5.913c-.264.262-.527.788-.527 1.182 0 .394.131.92.527 1.183l2.506 2.496c.659.657 1.714.657 2.373 0l5.539-5.518c.659.788 1.186 1.313 1.714 1.84.527.525 1.187 1.05 1.846 1.707l-5.538 5.519a1.661 1.661 0 0 0 0 2.365l2.505 2.496c.264.263.791.526 1.187.526s.923-.131 1.187-.526l6.066-6.044c1.582 1.183 5.802 4.336 7.384 4.336.396 0 .66-.131.791-.262l.66-.657c3.165-3.023 5.538-5.52 5.67-12.352 0-3.547.396-5.255.66-6.044l11.604-11.563c5.67-5.124 3.56-15.504 3.428-16.03zM86.11 25.228l-2.901-.92 11.736-6.964-5.01 6.176-.66.788 1.055.263 2.9.657-12.263 6.964 5.407-5.913.659-.788-.923-.263zM68.044 40.076l-.528-.526-6.593 6.57a.402.402 0 0 1-.527 0l-2.506-2.497a.399.399 0 0 1 0-.525l6.857-6.833-.263-.394-.132-.131C62.242 33.112 60 29.695 60 28.907l.527-.526C63.56 25.36 65.67 23.257 72 23.126c3.165 0 5.538-.395 6.857-1.052l11.736-11.562c2.77-2.76 7.121-3.285 10.286-3.285 1.978 0 3.56.263 4.352.394l-7.649 7.49-15.956 9.46 4.22 1.314-8.176 9.066.264-.394-7.912 7.884a93.22 93.22 0 0 0-1.978-2.365z"/>
        <ellipse cx="61.319" cy="12.088" fill="#3CD482" fill-rule="nonzero" rx="1" ry="1"/>
        <ellipse cx="102.066" cy="29.958" fill="#3CD482" fill-rule="nonzero" rx="1" ry="1"/>
        <ellipse cx="66.989" cy="10.774" fill="#3CD482" fill-rule="nonzero" rx="1" ry="1"/>
        <ellipse cx="31.253" cy="36.659" fill="#3CD482" fill-rule="nonzero" rx="1" ry="1"/>
        <ellipse cx="19.253" cy="82.122" fill="#3CD482" fill-rule="nonzero" rx="1" ry="1"/>
        <ellipse cx="43.648" cy="43.755" fill="#3CD482" fill-rule="nonzero" rx="1.451" ry="1.445"/>
        <ellipse cx="20.703" cy="66.486" fill="#3CD482" fill-rule="nonzero" rx="1.451" ry="1.445"/>
        <ellipse cx="52.747" cy="71.873" fill="#3CD482" fill-rule="nonzero" rx="1" ry="1"/>
        <ellipse cx="68.308" cy="69.508" fill="#3CD482" fill-rule="nonzero" rx="1" ry="1"/>
        <ellipse cx="80.044" cy="67.012" fill="#3CD482" fill-rule="nonzero" rx="1.187" ry="1.183"/>
        <ellipse cx="114.725" cy="48.616" fill="#3CD482" fill-rule="nonzero" rx="1" ry="1"/>
        <ellipse cx="99.692" cy="51.376" fill="#3CD482" fill-rule="nonzero" rx="1.055" ry="1.051"/>
        <ellipse cx="17.011" cy="47.565" fill="#3CD482" fill-rule="nonzero" rx="1.055" ry="1.051"/>
        <ellipse cx="69.231" cy="95.13" fill="#3CD482" fill-rule="nonzero" rx="1" ry="1"/>
        <ellipse cx="118.022" cy="45.988" fill="#3CD482" fill-rule="nonzero" rx="1" ry="1"/>
        <ellipse cx="118.286" cy="50.85" fill="#3CD482" fill-rule="nonzero" rx="1" ry="1"/>
        <ellipse cx="80.967" cy="1.577" fill="#3CD482" fill-rule="nonzero" rx="1" ry="1"/>
        <path fill="#3CD482" fill-rule="nonzero" d="M30.198 75.42l6.198.527-6.198.525-.528 6.176-.527-6.176-6.198-.525 6.198-.526.527-6.176zM57.099 88.823l3.692.263-3.692.394-.264 3.68-.395-3.68-3.693-.394 3.693-.263.395-3.679zM98.505 72.267l3.297.263-3.297.394-.263 3.154-.264-3.154-3.165-.394 3.165-.263.264-3.153zM44.703 19.578l9.495.788-9.495.789-.923 9.592-.791-9.592-9.626-.789 9.626-.788.791-9.592z"/>
    </g>
</svg>
