<svg xmlns="http://www.w3.org/2000/svg" xmlns:xlink="http://www.w3.org/1999/xlink" width="102" height="118" viewBox="0 0 102 118">
    <defs>
        <ellipse id="a" cx="50.637" cy="50.756" rx="50.637" ry="50.456"/>
        <linearGradient id="b" x1="0%" x2="106.621%" y1="-13.452%" y2="109.02%">
            <stop offset="0%" stop-color="#F7618B"/>
            <stop offset="100%" stop-color="#2A7AFF"/>
        </linearGradient>
    </defs>
    <g fill="none" fill-rule="evenodd">
        <g transform="translate(.36 16)">
            <mask id="c" fill="#fff">
                <use xlink:href="#a"/>
            </mask>
            <path fill="url(#b)" d="M-8.817 58.817C-12.917 57.977-16 54.348-16 50a9 9 0 0 1 17.817-1.817 9.015 9.015 0 0 1 6.779 6.142 9.002 9.002 0 0 1 10.65 5.063A17.961 17.961 0 0 1 33 53c7.498 0 13.925 4.585 16.631 11.103a9.07 9.07 0 0 1 4.372.41A8.958 8.958 0 0 1 59 63c1.812 0 3.5.536 4.912 1.457A3.992 3.992 0 0 1 67 63c.729 0 1.412.195 2 .535A3.982 3.982 0 0 1 71 63c1.132 0 2.154.47 2.882 1.226C77.09 59.276 82.662 56 89 56c.502 0 1 .02 1.49.06a9.004 9.004 0 0 1 8.734-6.057 9 9 0 1 1 8.553 6.995A9.03 9.03 0 0 1 108 59a8.978 8.978 0 0 1-3.013 6.72A17.923 17.923 0 0 1 107 74c0 7.804-4.967 14.449-11.912 16.944-6.474 7.545-19.23 12.203-44.088 12.203-46.384 0-51.105-16.217-51.21-37.15-4.255-.097-7.78-3.147-8.607-7.18z" mask="url(#c)"/>
        </g>
        <path fill="#3CD482" fill-rule="nonzero" d="M23.76 34.068c4.356 1.516 9.422-2.498 9.422-2.498l.978 6.154.978 6.065s-5.067 4.014-9.422 2.497c-6.045-2.14-8.445-1.516-9.867-.267L13.804 33.8c1.423-1.249 3.823-1.873 9.956.268zm45.689-11.506l-.178-.178-.089-.09c-.622-.535-3.022-2.408-8.889-2.408h-.266c-1.156 0-7.2.09-8.8 2.587-.445.535-1.156 1.873-1.156 4.37 0 5.708 4.622 10.435 10.222 10.435 5.69 0 10.223-4.637 10.223-10.435.177-2.497-.534-3.746-1.067-4.28zm-36.445 7.314c.445-.09.8.178.89.624L36.56 47h.089l5.511-1.07 2.933-5.887V28.716c0-.98.8-1.784 1.778-1.784h.356c.266-6.956 6.133-12.575 13.244-12.575 7.289 0 13.156 5.797 13.156 12.843v-.357h.444c.978 0 1.778.803 1.778 1.784v11.505c.711 1.517 1.067 3.211 1.067 4.995v16.232h-1.334a5.21 5.21 0 0 1-4.622 4.638v12.576H49.182v-3.568V51.55l-2.666 2.497h-8.89l3.645 22.565h.089c.267-.179.622-.268.889-.357.533-.268 1.155-.446 1.6-.624.978-.357 1.6-.446 1.6-.446s-.533.357-1.422.892c-.445.267-.978.535-1.511.802-.267.179-.534.268-.89.446 0 0-.088 0-.177.09.089 0 .089 0 .178.089.266.178.533.267.889.446.533.267 1.066.535 1.51.802.89.535 1.423.892 1.423.892s-.622-.178-1.6-.446c-.445-.178-.978-.356-1.6-.624-.267-.09-.622-.268-.889-.357-.178-.089-.444-.178-.622-.267h-.09-.088c-.267.089-.444.178-.711.267-.267.179-.622.268-.889.357-.533.268-1.156.446-1.6.624-.978.357-1.6.446-1.6.446s.533-.357 1.422-.892c.445-.267.978-.535 1.511-.802.267-.179.534-.268.89-.446 0 0 .088 0 .177-.09-.089 0-.089 0-.178-.089-.266-.178-.533-.267-.889-.446-.533-.267-1.066-.535-1.51-.802-.89-.535-1.423-.892-1.423-.892s.622.178 1.6.446c.444.178.978.356 1.6.624.267.09.533.178.8.357l-3.556-22.208h-.355c-.8 0-1.511-.535-1.689-1.338l-.889-3.746c-.089-.446 0-.892.267-1.338.266-.357.622-.713 1.066-.803 0 0 .356-.089.534-.089L32.56 30.768c-.178-.446.089-.803.444-.892zm14.312-2.14V27.2v.535zm13.155-12.13c-6.578 0-11.911 5.262-11.911 11.683 0 6.422 5.333 11.684 11.911 11.684 6.578 0 11.911-5.262 11.911-11.684 0-6.421-5.333-11.684-11.91-11.684zm9.511 59.132c-.266-2.32-2.222-4.192-4.533-4.192-2.311 0-4.267 1.784-4.533 4.192h9.066zm-10.666 0c-.267-2.32-2.223-4.192-4.534-4.192-2.31 0-4.266 1.784-4.533 4.192h9.067zm15.2-13.2h-3.467v3.478c1.778-.267 3.111-1.694 3.467-3.478zm-15.2 15.786v-1.427h-9.067v1.427h9.067zm10.666 0v-1.427h-9.066v1.427h9.066zm-20.71-27.56h1.155v22.03c1.066-1.426 2.666-2.318 4.533-2.318 1.867 0 3.556.98 4.622 2.408V39.062h1.067l1.117.967 6.61-2.545 2.05-1.9c3.497 1.817 5.245 5.028 5.245 9.632V60.29H70.96V49.765h-1.156v21.134-21.134h1.156v10.524h4.711V45.216c0-3.835-2.044-7.313-5.244-9.632-2.4 2.765-5.956 4.548-10.045 4.548-4 0-7.555-1.783-9.955-4.548-1.69 1.248-3.111 2.854-4 4.638 0 0 0 .089-.09.089l-3.644 6.778-4.355.803c.533.446.978 1.16 1.155 1.873.267 1.16 0 2.319-.71 3.121l7.288-.089 3.2-3.032zm-14.934-1.159c-.09.179-.09.357-.09.446l.89 3.746c.089.268.355.535.622.535h.178c.355-.089.889-.178.978-.267 1.155-.446 1.777-1.695 1.51-2.943-.266-1.16-1.333-1.963-2.488-1.963-.178 0-.356 0-.534.09-.088 0-.622.178-.622.178-.178-.09-.355 0-.444.178z"/>
        <g fill="#3CD482" fill-rule="nonzero" transform="translate(1.36)">
            <ellipse cx="44.363" cy="4.169" rx="1" ry="1"/>
            <ellipse cx="67.11" cy="87.038" rx="1" ry="1"/>
            <ellipse cx="54.033" cy="10.855" rx="1" ry="1"/>
            <ellipse cx="7.297" cy="19.74" rx="1" ry="1"/>
            <ellipse cx="22.297" cy="57.202" rx="1" ry="1"/>
            <ellipse cx="41.692" cy="99.835" rx="1.451" ry="1.445"/>
            <ellipse cx="9.747" cy="81.566" rx="1.451" ry="1.445"/>
            <ellipse cx="91.791" cy="81.953" rx="1" ry="1"/>
            <ellipse cx="80.352" cy="68.588" rx="1" ry="1"/>
            <ellipse cx="96.088" cy="44.092" rx="1.187" ry="1.183"/>
            <ellipse cx="28.769" cy="8.697" rx="1" ry="1"/>
            <ellipse cx="90.736" cy="53.456" rx="1.055" ry="1.051"/>
            <ellipse cx="1.055" cy="46.645" rx="1.055" ry="1.051"/>
            <ellipse cx="13.275" cy="62.21" rx="1" ry="1"/>
            <ellipse cx="32.066" cy="6.069" rx="1" ry="1"/>
            <ellipse cx="32.33" cy="10.93" rx="1" ry="1"/>
            <ellipse cx="64.011" cy="1.657" rx="1" ry="1"/>
            <path d="M21.242 17.501l6.198.526-6.198.525-.528 6.176-.527-6.176-6.198-.525 6.198-.526.527-6.175zM66.143 104.903l3.692.263-3.692.394-.264 3.68-.395-3.68-3.693-.394 3.693-.263.395-3.679zM92.55 31.348l3.296.262-3.297.395-.263 3.153-.264-3.153-3.165-.395 3.165-.262.264-3.154zM85.747 9.658l9.495.789-9.495.788-.923 9.592-.791-9.592-9.626-.788 9.626-.789.791-9.592z"/>
        </g>
    </g>
</svg>
