<svg xmlns="http://www.w3.org/2000/svg" xmlns:xlink="http://www.w3.org/1999/xlink" width="145" height="128" viewBox="0 0 145 128">
    <defs>
        <ellipse id="a" cx="50.637" cy="50.756" rx="50.637" ry="50.456"/>
        <linearGradient id="b" x1="113.452%" x2="-9.02%" y1="0%" y2="106.621%">
            <stop offset="0%" stop-color="#F7618B"/>
            <stop offset="100%" stop-color="#2A7AFF"/>
        </linearGradient>
    </defs>
    <g fill="none" fill-rule="evenodd">
        <path fill="#3CD482" fill-rule="nonzero" d="M121.548 121.913l-1.505-15.463 2.93-2.93 3.168 6.643a.513.513 0 0 0 .829.14l3.417-3.416a.518.518 0 0 0 .15-.415l-.933-9.583 4.973-4.973.012-.011c4.949-5.135 7.498-10.068 8.765-13.303 1.387-3.542 1.589-5.858 1.595-5.955a.855.855 0 0 0-.922-.922c-.097.007-2.413.209-5.955 1.595-3.235 1.267-8.168 3.817-13.303 8.766l-.011.011-4.973 4.973-9.582-.933a.518.518 0 0 0-.416.15l-3.417 3.417a.515.515 0 0 0 .14.828l6.643 3.17-2.93 2.929-15.462-1.504a.515.515 0 0 0-.415.148l-5.176 5.176a.517.517 0 0 0 .14.829l11.01 5.254-1.637 1.638a.856.856 0 1 0 .634 1.466l2.892-.107-1.321 2.208a.858.858 0 0 0 .128 1.048l2.872 2.873a.859.859 0 0 0 1.048.127l2.208-1.321-.106 2.891a.858.858 0 0 0 1.465.634l1.637-1.637 5.255 11.01a.513.513 0 0 0 .828.141l5.176-5.177a.516.516 0 0 0 .149-.415zm-19.256-16.353a.87.87 0 0 0-.118-.07l-10.554-5.037 3.542-3.541 14.38 1.399-7.25 7.25zm12.832-12.832a.786.786 0 0 0-.118-.07l-6.186-2.951 1.784-1.784 8.498.826-3.978 3.98zm7.813 3.625c-.724.724-1.9.728-2.622.006a1.856 1.856 0 0 1 .005-2.622 1.857 1.857 0 0 1 2.622-.005 1.856 1.856 0 0 1-.005 2.621zM133.31 85.91a1.807 1.807 0 0 1-2.551.005 1.807 1.807 0 0 1 .005-2.552 1.807 1.807 0 0 1 2.551-.005c.702.701.7 1.847-.005 2.552zm-29.032 21.999a.515.515 0 0 0-.358-.138.96.96 0 0 0-.194-.015l-2.287.083.69-.69a.502.502 0 0 0 .108-.082l9.449-9.448a.523.523 0 0 0 .084-.11l3.19-3.191a.51.51 0 0 0 .11-.083l6.177-6.177a.534.534 0 0 0 .085-.112l4.632-4.631c4.898-4.72 9.582-7.154 12.65-8.365a27.157 27.157 0 0 1 3.831-1.208l-8.658 8.658a2.84 2.84 0 0 0-3.987 3.986l-6.387 6.388a2.89 2.89 0 0 0-4.057 4.057l-13.006 13.006-2.072-1.928zm.353 6.06l-1.927-1.927 1.609-2.69 1.558 1.45 1.45 1.558-2.69 1.61z"/>
        <g transform="translate(32.36 -2)">
            <mask id="c" fill="#fff">
                <use xlink:href="#a"/>
            </mask>
            <path fill="url(#b)" d="M20.515 93.695a50.693 50.693 0 0 1-1.621-1.258c-.065-1.426.522-2.975 1.72-4.174 1.946-1.945 4.812-2.28 6.578-.833l5.528-5.528a23.13 23.13 0 0 0-4.23.448c-2.993.594-7.343 2.086-11.067 5.809L4.398 101.184l.783 4.053c.02.106.02.21.006.312l1.943 1.943 11.735-11.735c.09.902.135 1.817.135 2.743C19 113.688 6.688 126-8.5 126S-36 113.688-36 98.5-23.688 71-8.5 71a27.4 27.4 0 0 1 18.473 7.128A6.98 6.98 0 0 1 15 76a6.99 6.99 0 0 1 5.628 2.836A8.99 8.99 0 0 1 28 75c.886 0 1.742.128 2.55.366A10.994 10.994 0 0 1 40 70c2.299 0 4.433.705 6.198 1.911a11.017 11.017 0 0 1 5.876-7.75 9 9 0 0 1 5.024-9.275 3.998 3.998 0 0 1 1.89-4.346c-.168-20.012-16.444-36.183-36.497-36.183-1.682 0-3.337.114-4.958.334C26.38 7.006 37.917 2.357 50.536 2.357c12.329 0 23.625 4.438 32.389 11.81a8.452 8.452 0 1 0 10.63 12.356c4.716 7.702 7.436 16.767 7.436 26.47 0 24.38-17.168 44.736-40.032 49.555a8.452 8.452 0 1 0-16.753.687 50.051 50.051 0 0 1-21.851-8.234c1.235.26 2.723-.207 3.846-1.33 1.61-1.61 1.87-3.97.58-5.26-1.291-1.29-3.651-1.031-5.261.579-1.4 1.4-1.779 3.367-1.005 4.705zm53.024-21.112a4.226 4.226 0 1 0 8.452 0 4.226 4.226 0 0 0-8.452 0zm-20-57a4.226 4.226 0 1 0 8.452 0 4.226 4.226 0 0 0-8.452 0z" mask="url(#c)"/>
        </g>
        <path fill="#3CD482" fill-rule="nonzero" d="M76.68 25.392v-.105l-.212-.211h-.105c-.106 0-1.794-.422-4.115-.422-2.743 0-6.54.527-8.967 2.955l-9.178 9.18c-.738.317-2.11.634-5.063.634-5.486 0-7.385 2.005-9.917 4.538l-.527.527c-.211.211-1.055 1.056 3.27 6.543l-4.853 4.749c-.21.211-.422.633-.422.95 0 .316.106.739.422.95l2.005 2.005a1.337 1.337 0 0 0 1.898 0l4.431-4.433c.528.634.95 1.056 1.372 1.478.422.422.95.844 1.477 1.372l-4.431 4.432a1.338 1.338 0 0 0 0 1.9l2.004 2.005c.211.21.633.422.95.422.316 0 .738-.106.95-.422l4.852-4.855c1.266.95 4.642 3.483 5.908 3.483.316 0 .527-.106.633-.211l.527-.528c2.532-2.427 4.43-4.432 4.536-9.92 0-2.85.317-4.221.528-4.854l9.283-9.287c4.537-4.116 2.849-12.452 2.743-12.875zm-16.353 14.88l-2.32-.739 9.389-5.593-4.01 4.96-.527.633.844.212 2.321.527-9.81 5.593 4.324-4.749.528-.633-.739-.21zM45.875 52.197l-.422-.422-5.275 5.276a.32.32 0 0 1-.422 0l-2.004-2.005a.321.321 0 0 1 0-.422l5.485-5.487-.21-.317-.106-.105c-1.688-2.111-3.481-4.855-3.481-5.488l.422-.422c2.426-2.427 4.114-4.116 9.178-4.221 2.531 0 4.43-.317 5.485-.845l9.39-9.286c2.215-2.216 5.696-2.638 8.228-2.638 1.582 0 2.848.21 3.481.316l-6.119 6.015-12.764 7.599 3.375 1.055-6.54 7.281.21-.316-6.329 6.332c-.422-.528-.95-1.161-1.582-1.9z"/>
        <g fill="#3CD482" fill-rule="nonzero" transform="translate(.36 5)">
            <ellipse cx="45.363" cy="1.169" rx="1" ry="1"/>
            <ellipse cx="125.11" cy="33.038" rx="1" ry="1"/>
            <ellipse cx="59.033" cy="13.855" rx="1" ry="1"/>
            <ellipse cx="15.297" cy="31.74" rx="1" ry="1"/>
            <ellipse cx="3.297" cy="77.202" rx="1" ry="1"/>
            <ellipse cx="27.692" cy="38.835" rx="1.451" ry="1.445"/>
            <ellipse cx="4.747" cy="61.566" rx="1.451" ry="1.445"/>
            <ellipse cx="118.791" cy="13.953" rx="1" ry="1"/>
            <ellipse cx="72.352" cy="56.588" rx="1" ry="1"/>
            <ellipse cx="80.088" cy="46.092" rx="1.187" ry="1.183"/>
            <ellipse cx="137.769" cy="51.697" rx="1" ry="1"/>
            <ellipse cx="122.736" cy="54.456" rx="1.055" ry="1.051"/>
            <ellipse cx="1.055" cy="42.645" rx="1.055" ry="1.051"/>
            <ellipse cx="53.275" cy="90.21" rx="1" ry="1"/>
            <ellipse cx="141.066" cy="49.069" rx="1" ry="1"/>
            <ellipse cx="141.33" cy="53.93" rx="1" ry="1"/>
            <ellipse cx="69.011" cy="4.657" rx="1" ry="1"/>
            <path d="M22.242 62.501l6.198.526-6.198.525-.528 6.176-.527-6.176-6.198-.525 6.198-.526.527-6.175zM81.143 75.903l3.692.263-3.692.394-.264 3.68-.395-3.68-3.693-.394 3.693-.263.395-3.679zM104.55 67.348l3.296.262-3.297.395-.263 3.153-.264-3.153-3.165-.395 3.165-.262.264-3.154zM36.747 22.658l9.495.789-9.495.788-.923 9.592-.791-9.592-9.626-.788 9.626-.789.791-9.592z"/>
        </g>
        <g fill="#3CD482" fill-rule="nonzero">
            <path d="M57.489 114.75l.607-15.028 2.677-2.677c4.054-4.054 5.674-8.775 6.319-12.022.7-3.518.442-6.073.432-6.179a.936.936 0 0 0-.834-.833c-.106-.013-2.66-.269-6.179.431-3.247.645-7.968 2.266-12.022 6.32l-2.677 2.676-15.027.608a.94.94 0 0 0-.63.276l-5.24 5.24a.941.941 0 0 0 .278 1.523l9.767 4.361.627 3.249-6.602 1.75a.942.942 0 1 0-.428 1.577l1.666 1.665-1.49 1.491a.94.94 0 0 0-.003 1.33l6.296 6.297a.94.94 0 0 0 1.33-.003l1.491-1.49 1.666 1.665v.001a.946.946 0 0 0 1.589-.479l1.737-6.552 3.249.627 4.361 9.767a.939.939 0 0 0 1.524.278l5.24-5.24a.94.94 0 0 0 .276-.63zM36.346 98.025a.901.901 0 0 0-.167-.097l-8.967-4.006 4.01-4.01 13.795-.557-8.67 8.67zM59.094 86.44c1.291 1.291 1.032 3.65-.579 5.26-1.609 1.61-3.968 1.871-5.26.58-1.29-1.29-1.03-3.651.579-5.26 1.61-1.61 3.97-1.87 5.26-.58zM36.82 99.144l13.025-13.025c3.724-3.723 8.074-5.215 11.066-5.81a23.13 23.13 0 0 1 4.23-.447l-5.527 5.528c-1.766-1.447-4.632-1.112-6.577.833-1.945 1.945-2.28 4.81-.834 6.578l-12.651 12.651-1.943-1.943a.95.95 0 0 0-.006-.312l-.783-4.053zm-5.773 6.699l5.768-1.529 2.147 2.148-1.529 5.768-5.212-5.213-1.174-1.174zm1.9 6.214l-2.219-2.219 1.358-1.357 2.218 2.219-1.357 1.357z"/>
            <path d="M54.497 88.216a.376.376 0 0 0 .533-.001c.916-.916 2.255-1.185 2.864-.575.61.61.342 1.949-.574 2.865a.376.376 0 0 0 .531.531c1.22-1.221 1.486-3.02.577-3.929-.909-.908-2.709-.645-3.93.576a.377.377 0 0 0-.001.533z"/>
        </g>
    </g>
</svg>
