<svg xmlns="http://www.w3.org/2000/svg" width="48" height="48" viewBox="0 0 48 48">
    <g fill="none" fill-rule="nonzero">
        <circle cx="24" cy="24" r="24" fill="#1A53F0"/>
        <path fill="#FFF" d="M19.277 27.25c-3.065 0-5.55 2.492-5.55 5.566s2.485 5.566 5.55 5.566 5.55-2.492 5.55-5.566-2.485-5.565-5.55-5.565zm0 9.449a3.875 3.875 0 0 1-3.87-3.88 3.875 3.875 0 0 1 3.87-3.881 3.875 3.875 0 0 1 3.87 3.88 3.88 3.88 0 0 1-3.87 3.88zm11.852-21.321c-3.065 0-5.55 2.492-5.55 5.566s2.485 5.566 5.55 5.566 5.55-2.492 5.55-5.566-2.484-5.566-5.55-5.566zm0 9.448a3.875 3.875 0 0 1-3.869-3.88 3.874 3.874 0 0 1 3.87-3.88 3.881 3.881 0 0 1 0 7.76zm-11.852-9.448a5.557 5.557 0 0 0-5.445 4.461 5.573 5.573 0 0 0 3.28 6.237 5.565 5.565 0 0 0 6.14-9.015h1.573v-1.683h-5.548zm3.87 5.566a3.875 3.875 0 0 1-3.87 3.88 3.875 3.875 0 0 1-3.869-3.88 3.874 3.874 0 0 1 3.869-3.88 3.88 3.88 0 0 1 3.871 3.88h-.002z"/>
    </g>
</svg>
