<svg xmlns="http://www.w3.org/2000/svg" width="48" height="48" viewBox="0 0 48 48">
    <g fill="none" fill-rule="nonzero">
        <circle cx="24" cy="24" r="24" fill="#152743"/>
        <ellipse cx="24.073" cy="10.017" fill="#C6B458" rx="3.574" ry="2.457"/>
        <path fill="#FFF" d="M22.224 39.901c0 .295.259.563.554.563h2.501c.295 0 .521-.268.521-.563V29.28h4.392c.295 0 .504-.252.504-.546V14.17c0-.294-.208-.515-.504-.515h-7.968v26.245z"/>
        <path fill="#C6B458" d="M20.88 29.28h-3.016a.568.568 0 0 1-.56-.546V14.17c0-.294.265-.515.56-.515h3.016V29.28z"/>
    </g>
</svg>
