<svg xmlns="http://www.w3.org/2000/svg" xmlns:xlink="http://www.w3.org/1999/xlink" width="32" height="32" viewBox="0 0 32 32">
    <defs>
        <linearGradient id="a" x1="0%" y1="0%" y2="100%">
            <stop offset="0%" stop-color="#F7618B"/>
            <stop offset="100%" stop-color="#2A7AFF"/>
        </linearGradient>
        <path id="b" d="M16 32C7.163 32 0 24.837 0 16S7.163 0 16 0s16 7.163 16 16-7.163 16-16 16zm-1.98-6.847c.363 0 .532-.176.736-.389l1.767-1.786 3.675 2.832c.674.389 1.163.185 1.331-.657l2.415-11.858c.249-1.037-.373-1.509-1.02-1.203L8.745 17.794c-.968.407-.959.972-.177 1.203l3.64 1.204 8.415-5.545c.4-.25.763-.111.462.176l-6.818 6.405-.249 3.916zM11.204 11V6.734h-.829v2.72l-.017.005-1.304-2.725H8.22V11h.835V8.278l.018-.006L10.376 11h.83zm3.518-1.872v-.665h-1.432v-1.06h1.678v-.669h-2.513V11h2.52v-.665H13.29V9.128h1.432zm4.148.328l-.624-2.722h-.598l-.615 2.722h-.017l-.46-2.722h-.809L16.571 11h.774l.595-2.613h.017l.6 2.613h.777l.823-4.266h-.808l-.46 2.722h-.018zm4.169.43c0 .16-.043.288-.128.382-.085.093-.215.14-.391.14-.225 0-.393-.057-.504-.173-.111-.115-.167-.304-.167-.568h-.811l-.006.018c-.01.443.134.783.432 1.02.298.238.65.357 1.056.357.408 0 .735-.105.981-.314.247-.209.37-.498.37-.867 0-.358-.102-.641-.307-.851-.204-.21-.508-.384-.912-.52-.256-.112-.436-.213-.54-.303a.441.441 0 0 1-.155-.348c0-.152.047-.278.14-.379.092-.1.222-.15.388-.15a.5.5 0 0 1 .413.18c.098.122.146.28.146.475h.809l.006-.017a1.197 1.197 0 0 0-.37-.927c-.253-.246-.583-.368-.99-.368-.4 0-.729.11-.987.33a1.07 1.07 0 0 0-.387.853c0 .354.111.629.333.825.222.196.554.372.998.526.216.094.368.189.454.286a.572.572 0 0 1 .129.394z"/>
    </defs>
    <g fill="none" fill-rule="evenodd">
        <path d="M0 0h32v32H0z"/>
        <g>
            <use fill="url(#a)" xlink:href="#b"/>
            <use fill="#2A7AFF" xlink:href="#b"/>
        </g>
    </g>
</svg>
