<svg xmlns="http://www.w3.org/2000/svg" width="32" height="32" viewBox="0 0 32 32">
    <defs>
        <linearGradient id="a" x1="0%" y1="0%" y2="100%">
            <stop offset="0%" stop-color="#F7618B"/>
            <stop offset="100%" stop-color="#2A7AFF"/>
        </linearGradient>
        <linearGradient id="b" x1="-868.187%" x2="1864.762%" y1="-588.295%" y2="1762.577%">
            <stop offset="0%" stop-color="#F7618B"/>
            <stop offset="100%" stop-color="#2A7AFF"/>
        </linearGradient>
        <linearGradient id="c" x1="-880.11%" x2="2046.404%" y1="-597.219%" y2="1960.699%">
            <stop offset="0%" stop-color="#F7618B"/>
            <stop offset="100%" stop-color="#2A7AFF"/>
        </linearGradient>
        <linearGradient id="d" x1="-924.866%" x2="1170.474%" y1="-248.973%" y2="739.928%">
            <stop offset="0%" stop-color="#F7618B"/>
            <stop offset="100%" stop-color="#2A7AFF"/>
        </linearGradient>
    </defs>
    <g fill="none" fill-rule="evenodd">
        <path d="M0 0h32v32H0z"/>
        <path fill="url(#a)" d="M16 32C7.163 32 0 24.837 0 16S7.163 0 16 0s16 7.163 16 16-7.163 16-16 16zm-1.98-6.847c.363 0 .532-.176.736-.389l1.767-1.786 3.675 2.832c.674.389 1.163.185 1.331-.657l2.415-11.858c.249-1.037-.373-1.509-1.02-1.203L8.745 17.794c-.968.407-.959.972-.177 1.203l3.64 1.204 8.415-5.545c.4-.25.763-.111.462.176l-6.818 6.405-.249 3.916zM11 11.327h1.424c.435 0 .77-.105 1.003-.316.234-.211.35-.52.35-.929 0-.236-.053-.442-.16-.618a.757.757 0 0 0-.499-.343.831.831 0 0 0 .404-.353 1.07 1.07 0 0 0 .135-.54c0-.387-.123-.678-.37-.874-.247-.195-.59-.292-1.03-.292H11v4.265zm6.802-1.532V8.6c0-.498-.137-.89-.41-1.174-.273-.284-.635-.426-1.084-.426-.45 0-.809.142-1.078.426-.27.284-.404.676-.404 1.174v1.195c0 .5.134.89.404 1.172.27.281.63.422 1.08.422.452 0 .813-.141 1.085-.422.271-.281.407-.672.407-1.172zm3.574-2.066v-.667h-2.748v.667h.955v3.598h.832V7.73h.96z"/>
        <path fill="url(#b)" d="M11.835 9.446v1.216h.589c.176 0 .307-.049.394-.146.087-.098.13-.244.13-.437 0-.203-.037-.36-.111-.469-.074-.109-.193-.164-.358-.164h-.644z"/>
        <path fill="url(#c)" d="M11.835 8.863h.46c.17-.004.3-.053.391-.148.09-.094.136-.23.136-.408 0-.2-.047-.346-.14-.438-.094-.093-.236-.14-.425-.14h-.422v1.134z"/>
        <path fill="url(#d)" d="M16.973 8.594c0-.305-.057-.535-.17-.69-.113-.155-.278-.233-.495-.233-.219 0-.383.077-.492.231-.11.155-.164.385-.164.692v1.2c0 .31.055.541.167.695.111.155.275.232.492.232.215 0 .379-.077.492-.232.113-.154.17-.385.17-.694V8.594z"/>
    </g>
</svg>
