<?xml version="1.0" encoding="UTF-8"?>
<svg width="199px" height="113px" viewBox="0 0 199 113" version="1.1" xmlns="http://www.w3.org/2000/svg" xmlns:xlink="http://www.w3.org/1999/xlink">
    <!-- Generator: sketchtool 48.2 (47327) - http://www.bohemiancoding.com/sketch -->
    <title>C97436AF-7E95-492F-B45B-7160B9CC22D5</title>
    <desc>Created with sketchtool.</desc>
    <defs>
        <filter x="-5.4%" y="-12.1%" width="115.1%" height="128.3%" filterUnits="objectBoundingBox" id="filter-1">
            <feOffset dx="4" dy="2" in="SourceAlpha" result="shadowOffsetOuter1"></feOffset>
            <feGaussianBlur stdDeviation="4" in="shadowOffsetOuter1" result="shadowBlurOuter1"></feGaussianBlur>
            <feColorMatrix values="0 0 0 0 0   0 0 0 0 0   0 0 0 0 0  0 0 0 0.49 0" type="matrix" in="shadowBlurOuter1" result="shadowMatrixOuter1"></feColorMatrix>
            <feMerge>
                <feMergeNode in="shadowMatrixOuter1"></feMergeNode>
                <feMergeNode in="SourceGraphic"></feMergeNode>
            </feMerge>
        </filter>
        <linearGradient x1="2.42890995%" y1="112.652853%" x2="96.5847303%" y2="-3.96582093%" id="linearGradient-2">
            <stop stop-color="#F7618B" offset="0%"></stop>
            <stop stop-color="#2A7AFF" offset="100%"></stop>
        </linearGradient>
    </defs>
    <g id="Sirius-desktop-draft-6-1" stroke="none" stroke-width="1" fill="none" fill-rule="evenodd" transform="translate(-1047.000000, -4940.000000)">
        <g id="Profit-blk" transform="translate(-222.000000, 3389.000000)" fill="url(#linearGradient-2)" fill-rule="nonzero">
            <g id="ico-invest-sec" transform="translate(362.000000, 737.000000)">
                <g id="invest-ico-charts" transform="translate(372.000000, 483.000000)">
                    <g id="populous-row" transform="translate(32.000000, 336.000000)">
                        <g id="chart" filter="url(#filter-1)" transform="translate(506.000000, 0.000000)">
                            <path d="M3.18270947,98.0262166 L0.81729053,97.9737834 L2.28932695,31.5657655 L4.65123806,31.4972588 L9.71961528,94.5930427 L18.202457,92.6678456 L30.1850124,87.2441252 L41.0953206,87.2441252 L44.2355837,89.6659287 L62.4997229,89.6659287 L69.2470579,92.6009003 L106.75177,90.9182541 L120.325208,87.3930462 L123.972986,82.0905507 L135.618386,77.0780391 L140.100668,79.8162728 L147.899704,51.6477547 L150.138523,49.2154817 L150.138523,36.183634 L156.210759,15.8527934 L162.648541,34.8338354 L169.555578,32.3376896 L172.854715,19.4985818 L176.553065,2.27328407 L183.769491,0.839674838 L184.230509,3.16032516 L178.539761,4.29084462 L175.157153,20.0412589 L171.535937,34.137769 L161.183055,37.8792141 L156.353909,23.6410424 L152.504523,36.5294154 L152.504523,50.138623 L150.027463,52.8297233 L141.543924,83.4705257 L135.429493,79.7352093 L125.535393,83.9939114 L121.774246,89.4612041 L107.106032,93.2707402 L68.8057425,94.9890799 L62.0074178,92.0319287 L43.4292149,92.0319287 L40.2889518,89.6101252 L30.6955474,89.6101252 L18.959794,94.9221345 L7.5798926,97.5048248 L4.14274557,54.7160826 L3.18270947,98.0262166 Z M120.075084,87.756633 L120.752351,87.2821114 L120.325208,87.3930462 L120.075084,87.756633 Z M106.875879,90.912686 L106.631525,90.9494833 L106.75177,90.9182541 L106.875879,90.912686 Z" id="Path-7"></path>
                        </g>
                    </g>
                </g>
            </g>
        </g>
    </g>
</svg>