<?xml version="1.0" encoding="UTF-8"?>
<svg width="222px" height="114px" viewBox="0 0 222 114" version="1.1" xmlns="http://www.w3.org/2000/svg" xmlns:xlink="http://www.w3.org/1999/xlink">
    <!-- Generator: sketchtool 48.2 (47327) - http://www.bohemiancoding.com/sketch -->
    <title>7823EC42-6924-408A-9DF3-5CF13A630F2D</title>
    <desc>Created with sketchtool.</desc>
    <defs>
        <filter x="-4.8%" y="-12.0%" width="113.5%" height="128.0%" filterUnits="objectBoundingBox" id="filter-1">
            <feOffset dx="4" dy="2" in="SourceAlpha" result="shadowOffsetOuter1"></feOffset>
            <feGaussianBlur stdDeviation="4" in="shadowOffsetOuter1" result="shadowBlurOuter1"></feGaussianBlur>
            <feColorMatrix values="0 0 0 0 0   0 0 0 0 0   0 0 0 0 0  0 0 0 0.49 0" type="matrix" in="shadowBlurOuter1" result="shadowMatrixOuter1"></feColorMatrix>
            <feMerge>
                <feMergeNode in="shadowMatrixOuter1"></feMergeNode>
                <feMergeNode in="SourceGraphic"></feMergeNode>
            </feMerge>
        </filter>
        <linearGradient x1="2.42890995%" y1="112.652853%" x2="96.5847303%" y2="-3.96582093%" id="linearGradient-2">
            <stop stop-color="#F7618B" offset="0%"></stop>
            <stop stop-color="#2A7AFF" offset="100%"></stop>
        </linearGradient>
    </defs>
    <g id="Sirius-desktop-draft-6-1" stroke="none" stroke-width="1" fill="none" fill-rule="evenodd" transform="translate(-1038.000000, -4604.000000)">
        <g id="Profit-blk" transform="translate(-222.000000, 3389.000000)" fill="url(#linearGradient-2)" fill-rule="nonzero">
            <g id="ico-invest-sec" transform="translate(362.000000, 737.000000)">
                <g id="invest-ico-charts" transform="translate(372.000000, 483.000000)">
                    <g id="omisego-row" transform="translate(32.000000, 0.000000)">
                        <g id="chart" filter="url(#filter-1)" transform="translate(497.000000, 0.000000)">
                            <path d="M1.49891582,99.0726411 L0.501084177,96.9273589 L11.3506265,91.8809289 L21.480309,91.8809289 L25.2556453,83.8045966 L29.9375819,80.9272522 L32.1649893,70.6312065 L36.712202,69.0126447 L40.3796429,62.9366935 L45.5230186,68.8025304 L51.1847297,68.8025304 L56.0127178,48.7148258 L60.3398038,59.3045504 L64.2058807,51.3758843 L70.3894188,51.3758843 L72.897539,61.5438715 L75.6265588,56.1262188 L81.2890872,64.9537199 L86.9750562,56.7166499 L99.1357274,67.9354897 L100.906171,63.3434365 L112.68566,68.6167797 L116.699491,65.5218971 L117.434716,66.2450518 C122.574084,71.3000517 125.96228,74.0964449 126.529619,74.0964449 C126.969797,74.0964449 129.392362,71.353601 132.789676,66.417726 L133.189632,65.83664 L147.718245,67.4033957 L153.62634,61.1419965 L162.205965,58.8660462 L172.798047,45.2357001 L177.193928,17.4726176 L178.465926,24.119502 L179.987596,32.0737283 L181.816876,43.4112798 L189.092549,36.9739814 L191.936473,23.868816 L195.533999,18.5350555 L198.648544,3.1016966 L206.68211,0.860516698 L207.31789,3.1394833 L200.68095,4.99103642 L197.759755,19.4663 L194.152225,24.8148918 L191.240456,38.2326987 L180.165714,48.0312992 L179.823404,45.909725 L177.657796,32.4845158 L177.414103,31.2110902 L175.039738,46.2068788 L163.584298,60.948232 L154.884562,63.2560445 L148.632744,69.8817213 L134.337048,68.3400832 C130.461525,73.9207325 128.162814,76.4624339 126.529619,76.4624339 C125.033511,76.4624339 122.00795,74.0171745 116.512397,68.6537978 L113.010086,71.35427 L102.216352,66.5222208 L100.09071,72.03556 L87.3739168,60.303669 L81.2168664,69.2231787 L75.8740583,60.8941002 L72.1325299,68.3217859 L68.5361275,53.7418733 L65.6844809,53.7418733 L60.1493475,65.0934906 L56.598283,56.4029318 L53.0494414,71.1685193 L44.4508895,71.1685193 L40.7334955,66.9289638 L38.3013269,70.958405 L34.199033,72.4185998 L32.0365886,82.4143587 L27.098682,85.4490126 L22.9860416,94.2469179 L11.8739509,94.2469179 L1.49891582,99.0726411 Z M162.591805,58.763693 L161.961024,59.1812479 L162.205965,58.8660462 L162.591805,58.763693 Z" id="Path-4"></path>
                        </g>
                    </g>
                </g>
            </g>
        </g>
    </g>
</svg>