<?xml version="1.0" encoding="UTF-8"?>
<svg width="258px" height="113px" viewBox="0 0 258 113" version="1.1" xmlns="http://www.w3.org/2000/svg" xmlns:xlink="http://www.w3.org/1999/xlink">
    <!-- Generator: sketchtool 48.2 (47327) - http://www.bohemiancoding.com/sketch -->
    <title>E514FC75-2E01-48F8-B573-881C36DB1F14</title>
    <desc>Created with sketchtool.</desc>
    <defs>
        <filter x="-4.1%" y="-12.1%" width="111.5%" height="128.3%" filterUnits="objectBoundingBox" id="filter-1">
            <feOffset dx="4" dy="2" in="SourceAlpha" result="shadowOffsetOuter1"></feOffset>
            <feGaussianBlur stdDeviation="4" in="shadowOffsetOuter1" result="shadowBlurOuter1"></feGaussianBlur>
            <feColorMatrix values="0 0 0 0 0   0 0 0 0 0   0 0 0 0 0  0 0 0 0.49 0" type="matrix" in="shadowBlurOuter1" result="shadowMatrixOuter1"></feColorMatrix>
            <feMerge>
                <feMergeNode in="shadowMatrixOuter1"></feMergeNode>
                <feMergeNode in="SourceGraphic"></feMergeNode>
            </feMerge>
        </filter>
        <linearGradient x1="2.42890995%" y1="112.652853%" x2="96.5847303%" y2="-3.96582093%" id="linearGradient-2">
            <stop stop-color="#F7618B" offset="0%"></stop>
            <stop stop-color="#2A7AFF" offset="100%"></stop>
        </linearGradient>
    </defs>
    <g id="Sirius-desktop-draft-6-1" stroke="none" stroke-width="1" fill="none" fill-rule="evenodd" transform="translate(-995.000000, -4828.000000)">
        <g id="Profit-blk" transform="translate(-222.000000, 3389.000000)" fill="url(#linearGradient-2)" fill-rule="nonzero">
            <g id="ico-invest-sec" transform="translate(362.000000, 737.000000)">
                <g id="invest-ico-charts" transform="translate(372.000000, 483.000000)">
                    <g id="bat-row" transform="translate(32.000000, 224.000000)">
                        <g id="chart" filter="url(#filter-1)" transform="translate(454.000000, 0.000000)">
                            <path d="M3.17905626,98.0965159 L0.820943735,97.9034841 L2.28616061,80.0041258 L4.38460013,78.4136725 L6.40454726,62.8203202 L11.8663895,73.3680659 L16.5676924,75.3183929 L18.5011558,72.902051 L26.3139016,75.6352126 L33.3293458,79.5998646 L45.934155,86.7860475 L52.8447918,86.7860475 L56.2122925,81.1774512 L60.1414392,81.1774512 L66.9874097,84.1855935 L71.2676956,79.8425744 L77.0347347,73.3407656 L85.1004359,69.2786191 L89.7479934,75.3412577 L95.2072085,73.3360775 L100.383536,64.0580899 L104.771178,74.1362145 L106.235629,71.6156152 L117.713174,70.1453807 L122.310254,75.2626891 L134.935965,68.3157649 L140.795348,75.7611751 L150.566843,79.4445776 L172.251005,79.4445776 L194.003171,75.601961 L205.595709,71.7470703 L213.218547,56.4973871 L223.086238,53.7973285 L229.200998,29.6237953 L235.152467,2.71309344 L242.717283,0.851279033 L243.282717,3.14872097 L237.145217,4.65925177 L231.502971,30.1693322 L225.041629,55.7152565 L214.862346,58.5005749 L207.273332,73.6825909 L194.667553,77.8744168 L172.56049,81.7925398 L150.135714,81.8105776 L139.343827,77.7425349 L134.317985,71.3562892 L121.805306,78.2410208 L116.782597,72.649917 L107.694697,73.8140461 L104.468181,79.3674954 L100.121613,69.383715 L96.8461305,75.2546499 L88.9294762,78.1624522 L84.4147424,72.2730792 L78.5038111,75.2500143 L72.9954797,81.4577802 L67.5283615,87.0076237 L59.6445515,83.5434512 L57.5514192,83.5434512 L54.1839185,89.1520475 L45.3070848,89.1520475 L32.1589473,81.6561041 L25.4317195,77.8331977 L19.3016028,75.6886764 L17.3038874,78.185317 L10.1623461,75.2226615 L7.77976086,70.6214846 L6.60366412,79.7005791 L4.55800466,81.2510293 L3.17905626,98.0965159 Z M172.354694,79.4445776 L172.148898,79.4626153 L172.251005,79.4445776 L172.354694,79.4445776 Z M150.768553,79.5206128 L150.351279,79.4445776 L150.566843,79.4445776 L150.768553,79.5206128 Z M46.2065338,86.9413345 L45.6206199,86.7860475 L45.934155,86.7860475 L46.2065338,86.9413345 Z" id="Path-6"></path>
                        </g>
                    </g>
                </g>
            </g>
        </g>
    </g>
</svg>