<?xml version="1.0" encoding="UTF-8"?>
<svg width="210px" height="113px" viewBox="0 0 210 113" version="1.1" xmlns="http://www.w3.org/2000/svg" xmlns:xlink="http://www.w3.org/1999/xlink">
    <!-- Generator: sketchtool 48.2 (47327) - http://www.bohemiancoding.com/sketch -->
    <title>C1101AE3-8313-497C-9DAB-3CE779A71C5C</title>
    <desc>Created with sketchtool.</desc>
    <defs>
        <filter x="-5.1%" y="-12.1%" width="114.3%" height="128.3%" filterUnits="objectBoundingBox" id="filter-1">
            <feOffset dx="4" dy="2" in="SourceAlpha" result="shadowOffsetOuter1"></feOffset>
            <feGaussianBlur stdDeviation="4" in="shadowOffsetOuter1" result="shadowBlurOuter1"></feGaussianBlur>
            <feColorMatrix values="0 0 0 0 0   0 0 0 0 0   0 0 0 0 0  0 0 0 0.49 0" type="matrix" in="shadowBlurOuter1" result="shadowMatrixOuter1"></feColorMatrix>
            <feMerge>
                <feMergeNode in="shadowMatrixOuter1"></feMergeNode>
                <feMergeNode in="SourceGraphic"></feMergeNode>
            </feMerge>
        </filter>
        <linearGradient x1="2.42890995%" y1="112.652853%" x2="96.5847303%" y2="-3.96582093%" id="linearGradient-2">
            <stop stop-color="#F7618B" offset="0%"></stop>
            <stop stop-color="#2A7AFF" offset="100%"></stop>
        </linearGradient>
    </defs>
    <g id="Sirius-desktop-draft-6-1" stroke="none" stroke-width="1" fill="none" fill-rule="evenodd" transform="translate(-1048.000000, -4716.000000)">
        <g id="Profit-blk" transform="translate(-222.000000, 3389.000000)" fill="url(#linearGradient-2)" fill-rule="nonzero">
            <g id="ico-invest-sec" transform="translate(362.000000, 737.000000)">
                <g id="invest-ico-charts" transform="translate(372.000000, 483.000000)">
                    <g id="civic-row" transform="translate(32.000000, 112.000000)">
                        <g id="chart" filter="url(#filter-1)" transform="translate(507.000000, 0.000000)">
                            <path d="M3.17607985,98.1277701 L0.82392015,97.8722299 L2.1987272,85.2175987 L11.0267324,82.8643399 C14.292316,84.0000353 16.5595186,84.6736683 18.1558023,85.0030839 C18.9108112,85.1588906 19.4995925,85.2338994 19.9056417,85.2325585 C20.8892588,84.5210417 22.07066,83.530345 23.743797,82.2251859 L32.0604342,37.1633933 L36.1084331,54.0457966 L41.2866074,57.2979912 L53.6979437,57.2979912 L53.9295707,58.1807464 C54.9673224,62.1357285 55.8334761,65.0959216 56.5236264,67.0509152 C56.8062565,67.8515236 57.0564554,68.4745161 57.2678217,68.9109632 C57.5652314,68.6509595 57.9353936,68.2859159 58.3722871,67.8192958 C59.4712924,66.645513 60.9609103,64.8642431 62.8337257,62.4822967 L64.0104799,60.9856381 L69.1514262,71.7472447 L71.4957047,67.3649607 L78.8017234,70.4715368 L82.9082006,65.2735394 L102.332864,73.149841 L118.992797,70.7212227 L141.197447,73.1615158 L157.603147,67.4125244 L160.659696,73.6798592 L169.823201,54.3072034 L173.693198,45.6700569 L176.953684,18.0913198 L181.566499,28.3440674 L187.741398,2.8266401 L194.677571,0.861787036 L195.322429,3.13821296 L189.715971,4.72638919 L182.242018,35.6120828 L178.300503,26.8514102 L176.000345,46.3072392 L171.97219,55.2967544 L160.692307,79.1443123 L156.399208,70.3414819 L141.472948,75.5720388 L119.034889,73.1060941 L102.038816,75.5837136 L83.6642754,68.1332154 L79.5383899,73.3557799 L72.5612499,70.3890456 L69.03208,76.9863098 L63.5131128,65.4333874 C60.0255506,69.7872286 58.198031,71.615628 57.0044632,71.615628 C55.3586148,71.615628 54.2231881,68.5457769 51.8735805,59.6639912 L40.605235,59.6639912 L34.0326986,55.5360561 L32.3617131,48.5671187 L25.9068009,83.5415807 L25.5498098,83.8180867 C23.6744209,85.2706616 22.4033273,86.3343284 21.7594196,86.984321 C20.5621634,88.1928912 17.3728322,87.5599385 10.9356452,85.3372401 L4.3756739,87.0859149 L3.17607985,98.1277701 Z M41.5751116,57.4791886 L40.9459212,57.2979912 L41.2866074,57.2979912 L41.5751116,57.4791886 Z M20.214327,85.2092848 C20.2229416,85.2075201 20.2308647,85.2056882 20.2380858,85.2038011 C20.2356015,85.2044503 20.2326525,85.2054097 20.2292629,85.206714 L20.214327,85.2092848 Z" id="Path-5"></path>
                        </g>
                    </g>
                </g>
            </g>
        </g>
    </g>
</svg>