<svg xmlns="http://www.w3.org/2000/svg" width="736" height="449" viewBox="0 0 736 449">
    <defs>
        <linearGradient id="a" x1="50%" x2="52.763%" y1="0%" y2="239.17%">
            <stop offset="0%" stop-color="#263F57"/>
            <stop offset="100%" stop-color="#263F57" stop-opacity="0"/>
        </linearGradient>
    </defs>
    <g fill="none" fill-rule="evenodd">
        <path fill="#263F57" d="M0 0h736v449H0z"/>
        <path fill="#40607F" d="M59.496 418.512a2.114 2.114 0 0 0-.45-.126 3.593 3.593 0 0 0-.594-.042 2.7 2.7 0 0 0-.966.18c-.316.12-.596.316-.84.588-.244.272-.44.628-.588 1.068-.148.44-.222.98-.222 1.62 0 .576.066 1.08.198 1.512.132.432.316.792.552 1.08.236.288.52.504.852.648.332.144.702.216 1.11.216.208 0 .402-.018.582-.054a2.59 2.59 0 0 0 .498-.15v-1.2h.888v1.62l.012.024c-.24.184-.544.338-.912.462s-.816.186-1.344.186c-.504 0-.97-.086-1.398-.258a2.922 2.922 0 0 1-1.11-.786c-.312-.352-.554-.802-.726-1.35-.172-.548-.258-1.198-.258-1.95 0-.784.096-1.45.288-1.998.192-.548.452-.996.78-1.344.328-.348.71-.602 1.146-.762.436-.16.902-.24 1.398-.24.272 0 .508.01.708.03.2.02.376.048.528.084.152.036.286.082.402.138.116.056.23.12.342.192h.012v1.896h-.888v-1.284zm8.052 6.732a3.02 3.02 0 0 1-.51.36c-.196.112-.41.208-.642.288-.232.08-.474.142-.726.186a4.422 4.422 0 0 1-.762.066 3.39 3.39 0 0 1-1.272-.222 2.45 2.45 0 0 1-.924-.636 2.772 2.772 0 0 1-.564-.99 4.086 4.086 0 0 1-.192-1.296c0-.504.07-.952.21-1.344.14-.392.342-.72.606-.984a2.64 2.64 0 0 1 .96-.606c.376-.14.796-.21 1.26-.21.336 0 .668.044.996.132.328.088.618.254.87.498s.446.58.582 1.008c.136.428.184.982.144 1.662H62.94c0 .72.194 1.258.582 1.614.388.356.906.534 1.554.534.216 0 .43-.026.642-.078.212-.052.414-.114.606-.186s.362-.152.51-.24c.148-.088.262-.168.342-.24l.372.684zm-2.532-4.596a3.24 3.24 0 0 0-.75.084 1.71 1.71 0 0 0-.624.282c-.18.132-.328.304-.444.516a2.07 2.07 0 0 0-.222.786h3.732c-.04-.528-.21-.938-.51-1.23-.3-.292-.694-.438-1.182-.438zm8.592 2.688H70.38V426h-.924v-6h.924v2.496h3.228V420h.936v6h-.936v-2.664zM76.224 420h5.952v2.244h-.816v-1.428h-1.692v4.38h1.452V426h-3.888v-.804h1.5v-4.38H77.04v1.428h-.816V420zm11.496 3.66h-1.44L84.768 426h-1.2v-.804h.624l1.092-1.632c-.152-.04-.3-.106-.444-.198a1.635 1.635 0 0 1-.666-.84 1.842 1.842 0 0 1-.102-.63c0-.36.072-.67.216-.93.144-.26.344-.474.6-.642.256-.168.56-.29.912-.366.352-.076.74-.114 1.164-.114.304 0 .592.022.864.066.272.044.548.09.828.138V426h-.936v-2.34zm0-.72v-2.136a3.068 3.068 0 0 0-.396-.108 1.96 1.96 0 0 0-.396-.048c-.608 0-1.072.094-1.392.282-.32.188-.48.486-.48.894 0 .328.096.582.288.762.192.18.424.298.696.354h1.68zm3.876-1.848c.304-.4.638-.68 1.002-.84.364-.16.818-.24 1.362-.24.824 0 1.456.248 1.896.744.44.496.66 1.2.66 2.112 0 1.056-.256 1.866-.768 2.43-.512.564-1.228.846-2.148.846-1.944 0-2.916-1.26-2.916-3.78 0-.688.038-1.276.114-1.764.076-.488.186-.9.33-1.236.144-.336.32-.604.528-.804.208-.2.444-.358.708-.474.264-.116.552-.198.864-.246.312-.048.648-.088 1.008-.12.464-.032.82-.076 1.068-.132.248-.056.452-.152.612-.288l.144.828a1.339 1.339 0 0 1-.288.18 1.818 1.818 0 0 1-.384.12c-.152.032-.33.06-.534.084-.204.024-.446.044-.726.06-.392.024-.74.064-1.044.12a1.69 1.69 0 0 0-.774.342c-.212.172-.38.42-.504.744s-.206.762-.246 1.314h.036zm.084 1.92c0 .296.038.584.114.864.076.28.192.528.348.744.156.216.354.39.594.522s.528.198.864.198c.64 0 1.12-.208 1.44-.624.32-.416.48-1.008.48-1.776 0-.296-.034-.572-.102-.828a2.07 2.07 0 0 0-.306-.672 1.446 1.446 0 0 0-.534-.456 1.685 1.685 0 0 0-.774-.168c-.744 0-1.284.186-1.62.558-.336.372-.504.918-.504 1.638zm6.672-.912a12.042 12.042 0 0 0-.054-1.008 3.992 3.992 0 0 0-.042-.312h-.804V420h1.596l.12.84h.06c.216-.28.49-.514.822-.702.332-.188.738-.282 1.218-.282.856 0 1.5.236 1.932.708.432.472.648 1.244.648 2.316 0 .504-.074.958-.222 1.362a2.863 2.863 0 0 1-.63 1.026c-.272.28-.6.496-.984.648a3.427 3.427 0 0 1-1.272.228 5.02 5.02 0 0 1-.45-.018 3.954 3.954 0 0 1-.36-.048 2.837 2.837 0 0 1-.318-.078 4.374 4.374 0 0 1-.336-.12v2.52h-.924v-6.3zm2.76-1.368c-.24 0-.466.044-.678.132a2.023 2.023 0 0 0-.966.828 1.412 1.412 0 0 0-.192.528v2.736a2.2 2.2 0 0 0 .594.282c.22.068.51.102.87.102.64 0 1.152-.21 1.536-.63.384-.42.576-1.034.576-1.842 0-.68-.134-1.206-.402-1.578-.268-.372-.714-.558-1.338-.558zm5.556 4.44c.088.016.194.028.318.036.124.008.25.018.378.03s.252.02.372.024.216.006.288.006c.6 0 1.04-.106 1.32-.318.28-.212.42-.49.42-.834 0-.304-.136-.564-.408-.78-.272-.216-.7-.324-1.284-.324-.264 0-.522.004-.774.012a3.222 3.222 0 0 0-.63.072v2.076zm0-2.856c.216-.032.446-.054.69-.066.244-.012.526-.018.846-.018.464 0 .858.046 1.182.138.324.092.588.218.792.378.204.16.352.346.444.558.092.212.138.442.138.69 0 .728-.246 1.256-.738 1.584-.492.328-1.242.492-2.25.492-.128 0-.278-.004-.45-.012a26.335 26.335 0 0 1-.528-.03l-.546-.036a12.806 12.806 0 0 1-.504-.042V420h.924v2.316zm18.132-2.592c0 .736-.348 1.556-1.044 2.46-.696.904-1.668 1.888-2.916 2.952h4.224V426h-5.328v-.864c.152-.144.36-.332.624-.564.264-.232.548-.49.852-.774.304-.284.614-.59.93-.918.316-.328.602-.664.858-1.008s.464-.688.624-1.032c.16-.344.24-.676.24-.996 0-.48-.126-.858-.378-1.134-.252-.276-.63-.414-1.134-.414-.432 0-.796.048-1.092.144a2.658 2.658 0 0 0-.804.42l-.408-.66a3.87 3.87 0 0 1 1.146-.564c.404-.12.846-.18 1.326-.18.752 0 1.32.204 1.704.612.384.408.576.96.576 1.656zm1.86 2.076c0-.68.06-1.29.18-1.83s.3-.996.54-1.368c.24-.372.544-.656.912-.852.368-.196.804-.294 1.308-.294.536 0 .99.096 1.362.288.372.192.674.472.906.84.232.368.4.822.504 1.362.104.54.156 1.158.156 1.854 0 .68-.06 1.29-.18 1.83s-.3.996-.54 1.368c-.24.372-.544.656-.912.852-.368.196-.804.294-1.308.294-.528 0-.978-.106-1.35-.318a2.534 2.534 0 0 1-.912-.894 4.11 4.11 0 0 1-.51-1.374 9.182 9.182 0 0 1-.156-1.758zm4.884 0c0-.424-.024-.828-.072-1.212l-3.564 3.252c.136.456.34.82.612 1.092.272.272.628.408 1.068.408.704 0 1.206-.292 1.506-.876.3-.584.45-1.472.45-2.664zm-3.888 0c0 .2.006.392.018.576.012.184.026.364.042.54l3.576-3.24c-.136-.432-.338-.776-.606-1.032-.268-.256-.63-.384-1.086-.384-.712 0-1.214.294-1.506.882-.292.588-.438 1.474-.438 2.658zm7.068 3.336h1.884v-6.312l-1.92 1.344-.468-.684 2.64-1.884h.672v7.536h1.848V426h-4.656v-.864zm7.164.864l3.672-7.536h-4.332v-.864h5.304v.78l-3.66 7.62h-.984zM205.576 421.8c0-1.392.246-2.464.738-3.216.492-.752 1.25-1.128 2.274-1.128.56 0 1.034.104 1.422.312.388.208.702.502.942.882s.412.836.516 1.368c.104.532.156 1.126.156 1.782 0 1.392-.246 2.464-.738 3.216-.492.752-1.258 1.128-2.298 1.128-.552 0-1.02-.104-1.404-.312a2.504 2.504 0 0 1-.936-.882c-.24-.38-.412-.836-.516-1.368a9.322 9.322 0 0 1-.156-1.782zm1.056 0c0 .464.03.904.09 1.32.06.416.166.782.318 1.098.152.316.352.568.6.756.248.188.564.282.948.282.688 0 1.19-.28 1.506-.84.316-.56.474-1.432.474-2.616 0-.456-.03-.894-.09-1.314a3.768 3.768 0 0 0-.318-1.104 1.983 1.983 0 0 0-.612-.756c-.256-.188-.576-.282-.96-.282-.68 0-1.176.282-1.488.846-.312.564-.468 1.434-.468 2.61zm8.46 1.488h-.66V426h-.924v-6h.924v2.568h.66l2.364-2.568h1.128l-2.652 2.844 2.184 2.352h.78V426h-1.236l-2.568-2.712zm4.932-3.288h5.952v2.244h-.816v-1.428h-1.692v4.38h1.452V426h-3.888v-.804h1.5v-4.38h-1.692v1.428h-.816V420zm11.496 3.66h-1.44l-1.512 2.34h-1.2v-.804h.624l1.092-1.632c-.152-.04-.3-.106-.444-.198a1.635 1.635 0 0 1-.666-.84 1.842 1.842 0 0 1-.102-.63c0-.36.072-.67.216-.93.144-.26.344-.474.6-.642.256-.168.56-.29.912-.366.352-.076.74-.114 1.164-.114.304 0 .592.022.864.066.272.044.548.09.828.138V426h-.936v-2.34zm0-.72v-2.136a3.068 3.068 0 0 0-.396-.108 1.96 1.96 0 0 0-.396-.048c-.608 0-1.072.094-1.392.282-.32.188-.48.486-.48.894 0 .328.096.582.288.762.192.18.424.298.696.354h1.68zm3.876-1.848c.304-.4.638-.68 1.002-.84.364-.16.818-.24 1.362-.24.824 0 1.456.248 1.896.744.44.496.66 1.2.66 2.112 0 1.056-.256 1.866-.768 2.43-.512.564-1.228.846-2.148.846-1.944 0-2.916-1.26-2.916-3.78 0-.688.038-1.276.114-1.764.076-.488.186-.9.33-1.236.144-.336.32-.604.528-.804.208-.2.444-.358.708-.474.264-.116.552-.198.864-.246.312-.048.648-.088 1.008-.12.464-.032.82-.076 1.068-.132.248-.056.452-.152.612-.288l.144.828a1.339 1.339 0 0 1-.288.18 1.818 1.818 0 0 1-.384.12c-.152.032-.33.06-.534.084-.204.024-.446.044-.726.06-.392.024-.74.064-1.044.12a1.69 1.69 0 0 0-.774.342c-.212.172-.38.42-.504.744s-.206.762-.246 1.314h.036zm.084 1.92c0 .296.038.584.114.864.076.28.192.528.348.744.156.216.354.39.594.522s.528.198.864.198c.64 0 1.12-.208 1.44-.624.32-.416.48-1.008.48-1.776 0-.296-.034-.572-.102-.828a2.07 2.07 0 0 0-.306-.672 1.446 1.446 0 0 0-.534-.456 1.685 1.685 0 0 0-.774-.168c-.744 0-1.284.186-1.62.558-.336.372-.504.918-.504 1.638zm6.672-.912a12.042 12.042 0 0 0-.054-1.008 3.992 3.992 0 0 0-.042-.312h-.804V420h1.596l.12.84h.06c.216-.28.49-.514.822-.702.332-.188.738-.282 1.218-.282.856 0 1.5.236 1.932.708.432.472.648 1.244.648 2.316 0 .504-.074.958-.222 1.362a2.863 2.863 0 0 1-.63 1.026c-.272.28-.6.496-.984.648a3.427 3.427 0 0 1-1.272.228 5.02 5.02 0 0 1-.45-.018 3.954 3.954 0 0 1-.36-.048 2.837 2.837 0 0 1-.318-.078 4.374 4.374 0 0 1-.336-.12v2.52h-.924v-6.3zm2.76-1.368c-.24 0-.466.044-.678.132a2.023 2.023 0 0 0-.966.828 1.412 1.412 0 0 0-.192.528v2.736a2.2 2.2 0 0 0 .594.282c.22.068.51.102.87.102.64 0 1.152-.21 1.536-.63.384-.42.576-1.034.576-1.842 0-.68-.134-1.206-.402-1.578-.268-.372-.714-.558-1.338-.558zm5.556 4.44c.088.016.194.028.318.036.124.008.25.018.378.03s.252.02.372.024.216.006.288.006c.6 0 1.04-.106 1.32-.318.28-.212.42-.49.42-.834 0-.304-.136-.564-.408-.78-.272-.216-.7-.324-1.284-.324-.264 0-.522.004-.774.012a3.222 3.222 0 0 0-.63.072v2.076zm0-2.856c.216-.032.446-.054.69-.066.244-.012.526-.018.846-.018.464 0 .858.046 1.182.138.324.092.588.218.792.378.204.16.352.346.444.558.092.212.138.442.138.69 0 .728-.246 1.256-.738 1.584-.492.328-1.242.492-2.25.492-.128 0-.278-.004-.45-.012a26.335 26.335 0 0 1-.528-.03l-.546-.036a12.806 12.806 0 0 1-.504-.042V420h.924v2.316zm18.132-2.592c0 .736-.348 1.556-1.044 2.46-.696.904-1.668 1.888-2.916 2.952h4.224V426h-5.328v-.864c.152-.144.36-.332.624-.564.264-.232.548-.49.852-.774.304-.284.614-.59.93-.918.316-.328.602-.664.858-1.008s.464-.688.624-1.032c.16-.344.24-.676.24-.996 0-.48-.126-.858-.378-1.134-.252-.276-.63-.414-1.134-.414-.432 0-.796.048-1.092.144a2.658 2.658 0 0 0-.804.42l-.408-.66a3.87 3.87 0 0 1 1.146-.564c.404-.12.846-.18 1.326-.18.752 0 1.32.204 1.704.612.384.408.576.96.576 1.656zm1.86 2.076c0-.68.06-1.29.18-1.83s.3-.996.54-1.368c.24-.372.544-.656.912-.852.368-.196.804-.294 1.308-.294.536 0 .99.096 1.362.288.372.192.674.472.906.84.232.368.4.822.504 1.362.104.54.156 1.158.156 1.854 0 .68-.06 1.29-.18 1.83s-.3.996-.54 1.368c-.24.372-.544.656-.912.852-.368.196-.804.294-1.308.294-.528 0-.978-.106-1.35-.318a2.534 2.534 0 0 1-.912-.894 4.11 4.11 0 0 1-.51-1.374 9.182 9.182 0 0 1-.156-1.758zm4.884 0c0-.424-.024-.828-.072-1.212l-3.564 3.252c.136.456.34.82.612 1.092.272.272.628.408 1.068.408.704 0 1.206-.292 1.506-.876.3-.584.45-1.472.45-2.664zm-3.888 0c0 .2.006.392.018.576.012.184.026.364.042.54l3.576-3.24c-.136-.432-.338-.776-.606-1.032-.268-.256-.63-.384-1.086-.384-.712 0-1.214.294-1.506.882-.292.588-.438 1.474-.438 2.658zm7.068 3.336h1.884v-6.312l-1.92 1.344-.468-.684 2.64-1.884h.672v7.536h1.848V426h-4.656v-.864zm7.164.864l3.672-7.536h-4.332v-.864h5.304v.78l-3.66 7.62h-.984zM353.484 422.148h-3.768V426h-.996v-8.4h.996v3.66h3.768v-3.66h.996v8.4h-.996v-3.852zm2.4.852c0-.968.252-1.734.756-2.298.504-.564 1.224-.846 2.16-.846.504 0 .938.082 1.302.246.364.164.666.386.906.666s.418.612.534.996c.116.384.174.796.174 1.236 0 .48-.064.914-.192 1.302a2.705 2.705 0 0 1-.564.99 2.492 2.492 0 0 1-.918.63 3.274 3.274 0 0 1-1.242.222c-.496 0-.928-.082-1.296-.246a2.543 2.543 0 0 1-.912-.666 2.716 2.716 0 0 1-.534-.996 4.254 4.254 0 0 1-.174-1.236zm.996 0c0 .28.034.56.102.84a2.3 2.3 0 0 0 .33.756c.152.224.35.404.594.54s.542.204.894.204c.64 0 1.122-.198 1.446-.594.324-.396.486-.978.486-1.746 0-.288-.034-.57-.102-.846a2.235 2.235 0 0 0-.336-.75 1.77 1.77 0 0 0-.6-.54c-.244-.136-.542-.204-.894-.204-.64 0-1.12.196-1.44.588-.32.392-.48.976-.48 1.752zm10.44.66h-1.44l-1.512 2.34h-1.2v-.804h.624l1.092-1.632c-.152-.04-.3-.106-.444-.198a1.635 1.635 0 0 1-.666-.84 1.842 1.842 0 0 1-.102-.63c0-.36.072-.67.216-.93.144-.26.344-.474.6-.642.256-.168.56-.29.912-.366.352-.076.74-.114 1.164-.114.304 0 .592.022.864.066.272.044.548.09.828.138V426h-.936v-2.34zm0-.72v-2.136a3.068 3.068 0 0 0-.396-.108 1.96 1.96 0 0 0-.396-.048c-.608 0-1.072.094-1.392.282-.32.188-.48.486-.48.894 0 .328.096.582.288.762.192.18.424.298.696.354h1.68zm3.876-1.848c.304-.4.638-.68 1.002-.84.364-.16.818-.24 1.362-.24.824 0 1.456.248 1.896.744.44.496.66 1.2.66 2.112 0 1.056-.256 1.866-.768 2.43-.512.564-1.228.846-2.148.846-1.944 0-2.916-1.26-2.916-3.78 0-.688.038-1.276.114-1.764.076-.488.186-.9.33-1.236.144-.336.32-.604.528-.804.208-.2.444-.358.708-.474.264-.116.552-.198.864-.246.312-.048.648-.088 1.008-.12.464-.032.82-.076 1.068-.132.248-.056.452-.152.612-.288l.144.828a1.339 1.339 0 0 1-.288.18 1.818 1.818 0 0 1-.384.12c-.152.032-.33.06-.534.084-.204.024-.446.044-.726.06-.392.024-.74.064-1.044.12a1.69 1.69 0 0 0-.774.342c-.212.172-.38.42-.504.744s-.206.762-.246 1.314h.036zm.084 1.92c0 .296.038.584.114.864.076.28.192.528.348.744.156.216.354.39.594.522s.528.198.864.198c.64 0 1.12-.208 1.44-.624.32-.416.48-1.008.48-1.776 0-.296-.034-.572-.102-.828a2.07 2.07 0 0 0-.306-.672 1.446 1.446 0 0 0-.534-.456 1.685 1.685 0 0 0-.774-.168c-.744 0-1.284.186-1.62.558-.336.372-.504.918-.504 1.638zm6.672-.912a12.042 12.042 0 0 0-.054-1.008 3.992 3.992 0 0 0-.042-.312h-.804V420h1.596l.12.84h.06c.216-.28.49-.514.822-.702.332-.188.738-.282 1.218-.282.856 0 1.5.236 1.932.708.432.472.648 1.244.648 2.316 0 .504-.074.958-.222 1.362a2.863 2.863 0 0 1-.63 1.026c-.272.28-.6.496-.984.648a3.427 3.427 0 0 1-1.272.228 5.02 5.02 0 0 1-.45-.018 3.954 3.954 0 0 1-.36-.048 2.837 2.837 0 0 1-.318-.078 4.374 4.374 0 0 1-.336-.12v2.52h-.924v-6.3zm2.76-1.368c-.24 0-.466.044-.678.132a2.023 2.023 0 0 0-.966.828 1.412 1.412 0 0 0-.192.528v2.736a2.2 2.2 0 0 0 .594.282c.22.068.51.102.87.102.64 0 1.152-.21 1.536-.63.384-.42.576-1.034.576-1.842 0-.68-.134-1.206-.402-1.578-.268-.372-.714-.558-1.338-.558zm5.556 4.44c.088.016.194.028.318.036.124.008.25.018.378.03s.252.02.372.024.216.006.288.006c.6 0 1.04-.106 1.32-.318.28-.212.42-.49.42-.834 0-.304-.136-.564-.408-.78-.272-.216-.7-.324-1.284-.324-.264 0-.522.004-.774.012a3.222 3.222 0 0 0-.63.072v2.076zm0-2.856c.216-.032.446-.054.69-.066.244-.012.526-.018.846-.018.464 0 .858.046 1.182.138.324.092.588.218.792.378.204.16.352.346.444.558.092.212.138.442.138.69 0 .728-.246 1.256-.738 1.584-.492.328-1.242.492-2.25.492-.128 0-.278-.004-.45-.012a26.335 26.335 0 0 1-.528-.03l-.546-.036a12.806 12.806 0 0 1-.504-.042V420h.924v2.316zm18.132-2.592c0 .736-.348 1.556-1.044 2.46-.696.904-1.668 1.888-2.916 2.952h4.224V426h-5.328v-.864c.152-.144.36-.332.624-.564.264-.232.548-.49.852-.774.304-.284.614-.59.93-.918.316-.328.602-.664.858-1.008s.464-.688.624-1.032c.16-.344.24-.676.24-.996 0-.48-.126-.858-.378-1.134-.252-.276-.63-.414-1.134-.414-.432 0-.796.048-1.092.144a2.658 2.658 0 0 0-.804.42l-.408-.66a3.87 3.87 0 0 1 1.146-.564c.404-.12.846-.18 1.326-.18.752 0 1.32.204 1.704.612.384.408.576.96.576 1.656zm1.86 2.076c0-.68.06-1.29.18-1.83s.3-.996.54-1.368c.24-.372.544-.656.912-.852.368-.196.804-.294 1.308-.294.536 0 .99.096 1.362.288.372.192.674.472.906.84.232.368.4.822.504 1.362.104.54.156 1.158.156 1.854 0 .68-.06 1.29-.18 1.83s-.3.996-.54 1.368c-.24.372-.544.656-.912.852-.368.196-.804.294-1.308.294-.528 0-.978-.106-1.35-.318a2.534 2.534 0 0 1-.912-.894 4.11 4.11 0 0 1-.51-1.374 9.182 9.182 0 0 1-.156-1.758zm4.884 0c0-.424-.024-.828-.072-1.212l-3.564 3.252c.136.456.34.82.612 1.092.272.272.628.408 1.068.408.704 0 1.206-.292 1.506-.876.3-.584.45-1.472.45-2.664zm-3.888 0c0 .2.006.392.018.576.012.184.026.364.042.54l3.576-3.24c-.136-.432-.338-.776-.606-1.032-.268-.256-.63-.384-1.086-.384-.712 0-1.214.294-1.506.882-.292.588-.438 1.474-.438 2.658zm7.068 3.336h1.884v-6.312l-1.92 1.344-.468-.684 2.64-1.884h.672v7.536h1.848V426h-4.656v-.864zm7.164.864l3.672-7.536h-4.332v-.864h5.304v.78l-3.66 7.62h-.984zM492.008 427.692h-.84V426h-5.232v1.692h-.84v-2.58h.804c.032-.096.106-.308.222-.636s.236-.792.36-1.392c.124-.6.238-1.352.342-2.256.104-.904.156-1.98.156-3.228h4.128v7.512h.9v2.58zm-1.896-2.58v-6.624h-2.196c-.024.88-.074 1.672-.15 2.376a28.472 28.472 0 0 1-.258 1.872 19.447 19.447 0 0 1-.294 1.404c-.1.392-.186.716-.258.972h3.156zm8.436.132a3.02 3.02 0 0 1-.51.36c-.196.112-.41.208-.642.288-.232.08-.474.142-.726.186a4.422 4.422 0 0 1-.762.066 3.39 3.39 0 0 1-1.272-.222 2.45 2.45 0 0 1-.924-.636 2.772 2.772 0 0 1-.564-.99 4.086 4.086 0 0 1-.192-1.296c0-.504.07-.952.21-1.344.14-.392.342-.72.606-.984a2.64 2.64 0 0 1 .96-.606c.376-.14.796-.21 1.26-.21.336 0 .668.044.996.132.328.088.618.254.87.498s.446.58.582 1.008c.136.428.184.982.144 1.662h-4.644c0 .72.194 1.258.582 1.614.388.356.906.534 1.554.534.216 0 .43-.026.642-.078.212-.052.414-.114.606-.186s.362-.152.51-.24c.148-.088.262-.168.342-.24l.372.684zm-2.532-4.596a3.24 3.24 0 0 0-.75.084 1.71 1.71 0 0 0-.624.282c-.18.132-.328.304-.444.516a2.07 2.07 0 0 0-.222.786h3.732c-.04-.528-.21-.938-.51-1.23-.3-.292-.694-.438-1.182-.438zm6.276 2.64h-.66V426h-.924v-6h.924v2.568h.66l2.364-2.568h1.128l-2.652 2.844 2.184 2.352h.78V426h-1.236l-2.568-2.712zm5.604-2.82c.344-.2.732-.344 1.164-.432a6.363 6.363 0 0 1 1.272-.132c.408 0 .742.064 1.002.192s.464.294.612.498c.148.204.248.436.3.696.052.26.078.522.078.786 0 .304-.008.628-.024.972s-.028.688-.036 1.032c0 .4.024.78.072 1.14h.804v.78h-1.596l-.108-.9h-.06c-.048.072-.12.164-.216.276a1.976 1.976 0 0 1-.378.33 2.356 2.356 0 0 1-1.362.402c-.592 0-1.06-.152-1.404-.456-.344-.304-.516-.72-.516-1.248 0-.408.09-.748.27-1.02.18-.272.438-.48.774-.624.336-.144.742-.228 1.218-.252a8.18 8.18 0 0 1 1.602.096c.04-.368.046-.674.018-.918s-.092-.438-.192-.582a.804.804 0 0 0-.42-.306c-.18-.06-.402-.09-.666-.09-.36 0-.704.05-1.032.15-.328.1-.62.202-.876.306l-.3-.696zm1.764 4.836c.224 0 .432-.036.624-.108.192-.072.36-.164.504-.276a1.829 1.829 0 0 0 .576-.744v-.84a6.79 6.79 0 0 0-1.152-.108c-.352 0-.656.038-.912.114a1.272 1.272 0 0 0-.6.354c-.144.16-.216.368-.216.624 0 .264.09.494.27.69.18.196.482.294.906.294zm5.736-4.212c.304-.4.638-.68 1.002-.84.364-.16.818-.24 1.362-.24.824 0 1.456.248 1.896.744.44.496.66 1.2.66 2.112 0 1.056-.256 1.866-.768 2.43-.512.564-1.228.846-2.148.846-1.944 0-2.916-1.26-2.916-3.78 0-.688.038-1.276.114-1.764.076-.488.186-.9.33-1.236.144-.336.32-.604.528-.804.208-.2.444-.358.708-.474.264-.116.552-.198.864-.246.312-.048.648-.088 1.008-.12.464-.032.82-.076 1.068-.132.248-.056.452-.152.612-.288l.144.828a1.339 1.339 0 0 1-.288.18 1.818 1.818 0 0 1-.384.12c-.152.032-.33.06-.534.084-.204.024-.446.044-.726.06-.392.024-.74.064-1.044.12a1.69 1.69 0 0 0-.774.342c-.212.172-.38.42-.504.744s-.206.762-.246 1.314h.036zm.084 1.92c0 .296.038.584.114.864.076.28.192.528.348.744.156.216.354.39.594.522s.528.198.864.198c.64 0 1.12-.208 1.44-.624.32-.416.48-1.008.48-1.776 0-.296-.034-.572-.102-.828a2.07 2.07 0 0 0-.306-.672 1.446 1.446 0 0 0-.534-.456 1.685 1.685 0 0 0-.774-.168c-.744 0-1.284.186-1.62.558-.336.372-.504.918-.504 1.638zm6.672-.912a12.042 12.042 0 0 0-.054-1.008 3.992 3.992 0 0 0-.042-.312h-.804V420h1.596l.12.84h.06c.216-.28.49-.514.822-.702.332-.188.738-.282 1.218-.282.856 0 1.5.236 1.932.708.432.472.648 1.244.648 2.316 0 .504-.074.958-.222 1.362a2.863 2.863 0 0 1-.63 1.026c-.272.28-.6.496-.984.648a3.427 3.427 0 0 1-1.272.228 5.02 5.02 0 0 1-.45-.018 3.954 3.954 0 0 1-.36-.048 2.837 2.837 0 0 1-.318-.078 4.374 4.374 0 0 1-.336-.12v2.52h-.924v-6.3zm2.76-1.368c-.24 0-.466.044-.678.132a2.023 2.023 0 0 0-.966.828 1.412 1.412 0 0 0-.192.528v2.736a2.2 2.2 0 0 0 .594.282c.22.068.51.102.87.102.64 0 1.152-.21 1.536-.63.384-.42.576-1.034.576-1.842 0-.68-.134-1.206-.402-1.578-.268-.372-.714-.558-1.338-.558zm5.556 4.44c.088.016.194.028.318.036.124.008.25.018.378.03s.252.02.372.024.216.006.288.006c.6 0 1.04-.106 1.32-.318.28-.212.42-.49.42-.834 0-.304-.136-.564-.408-.78-.272-.216-.7-.324-1.284-.324-.264 0-.522.004-.774.012a3.222 3.222 0 0 0-.63.072v2.076zm0-2.856c.216-.032.446-.054.69-.066.244-.012.526-.018.846-.018.464 0 .858.046 1.182.138.324.092.588.218.792.378.204.16.352.346.444.558.092.212.138.442.138.69 0 .728-.246 1.256-.738 1.584-.492.328-1.242.492-2.25.492-.128 0-.278-.004-.45-.012a26.335 26.335 0 0 1-.528-.03l-.546-.036a12.806 12.806 0 0 1-.504-.042V420h.924v2.316zm18.132-2.592c0 .736-.348 1.556-1.044 2.46-.696.904-1.668 1.888-2.916 2.952h4.224V426h-5.328v-.864c.152-.144.36-.332.624-.564.264-.232.548-.49.852-.774.304-.284.614-.59.93-.918.316-.328.602-.664.858-1.008s.464-.688.624-1.032c.16-.344.24-.676.24-.996 0-.48-.126-.858-.378-1.134-.252-.276-.63-.414-1.134-.414-.432 0-.796.048-1.092.144a2.658 2.658 0 0 0-.804.42l-.408-.66a3.87 3.87 0 0 1 1.146-.564c.404-.12.846-.18 1.326-.18.752 0 1.32.204 1.704.612.384.408.576.96.576 1.656zm1.86 2.076c0-.68.06-1.29.18-1.83s.3-.996.54-1.368c.24-.372.544-.656.912-.852.368-.196.804-.294 1.308-.294.536 0 .99.096 1.362.288.372.192.674.472.906.84.232.368.4.822.504 1.362.104.54.156 1.158.156 1.854 0 .68-.06 1.29-.18 1.83s-.3.996-.54 1.368c-.24.372-.544.656-.912.852-.368.196-.804.294-1.308.294-.528 0-.978-.106-1.35-.318a2.534 2.534 0 0 1-.912-.894 4.11 4.11 0 0 1-.51-1.374 9.182 9.182 0 0 1-.156-1.758zm4.884 0c0-.424-.024-.828-.072-1.212l-3.564 3.252c.136.456.34.82.612 1.092.272.272.628.408 1.068.408.704 0 1.206-.292 1.506-.876.3-.584.45-1.472.45-2.664zm-3.888 0c0 .2.006.392.018.576.012.184.026.364.042.54l3.576-3.24c-.136-.432-.338-.776-.606-1.032-.268-.256-.63-.384-1.086-.384-.712 0-1.214.294-1.506.882-.292.588-.438 1.474-.438 2.658zm7.068 3.336h1.884v-6.312l-1.92 1.344-.468-.684 2.64-1.884h.672v7.536h1.848V426h-4.656v-.864zm7.164.864l3.672-7.536h-4.332v-.864h5.304v.78l-3.66 7.62h-.984zM634 426h-.996v-3.468h-1.236L629.68 426h-1.176l2.328-3.624a2.478 2.478 0 0 1-.66-.264 2.047 2.047 0 0 1-.552-.468 2.187 2.187 0 0 1-.378-.678 2.754 2.754 0 0 1-.138-.918c0-.488.082-.894.246-1.218.164-.324.388-.584.672-.78.284-.196.616-.336.996-.42.38-.084.782-.126 1.206-.126.272 0 .562.012.87.036a5.7 5.7 0 0 1 .906.144V426zm-1.824-7.632c-.264 0-.516.026-.756.078-.24.052-.454.142-.642.27-.188.128-.338.3-.45.516-.112.216-.168.488-.168.816 0 .304.054.564.162.78.108.216.254.394.438.534s.398.242.642.306.506.096.786.096h.816v-3.324a3.161 3.161 0 0 0-.348-.054 5.055 5.055 0 0 0-.48-.018zm8.232 4.968h-3.228V426h-.924v-6h.924v2.496h3.228V420h.936v6h-.936v-2.664zm3.432-3.324c.152-.008.304-.018.456-.03.152-.012.316-.022.492-.03l.57-.024c.204-.008.434-.012.69-.012.864 0 1.488.122 1.872.366.384.244.576.61.576 1.098 0 .28-.092.558-.276.834-.184.276-.484.474-.9.594v.048c.528.088.9.25 1.116.486.216.236.324.558.324.966 0 .624-.254 1.076-.762 1.356s-1.246.42-2.214.42c-.384 0-.728-.01-1.032-.03-.304-.02-.608-.042-.912-.066v-5.976zm.924 5.232a12.779 12.779 0 0 0 1.176.048c.624 0 1.09-.078 1.398-.234.308-.156.462-.426.462-.81a.9.9 0 0 0-.09-.408.795.795 0 0 0-.3-.312 1.694 1.694 0 0 0-.546-.204 4.102 4.102 0 0 0-.84-.072h-1.26v1.992zm1.428-2.712c.16 0 .32-.026.48-.078.16-.052.306-.12.438-.204a1.09 1.09 0 0 0 .318-.3.635.635 0 0 0 .12-.366c0-.328-.118-.556-.354-.684s-.63-.192-1.182-.192c-.304 0-.546.004-.726.012l-.522.024v1.788h1.428zm4.704-2.064c.344-.2.732-.344 1.164-.432a6.363 6.363 0 0 1 1.272-.132c.408 0 .742.064 1.002.192s.464.294.612.498c.148.204.248.436.3.696.052.26.078.522.078.786 0 .304-.008.628-.024.972s-.028.688-.036 1.032c0 .4.024.78.072 1.14h.804v.78h-1.596l-.108-.9h-.06c-.048.072-.12.164-.216.276a1.976 1.976 0 0 1-.378.33 2.356 2.356 0 0 1-1.362.402c-.592 0-1.06-.152-1.404-.456-.344-.304-.516-.72-.516-1.248 0-.408.09-.748.27-1.02.18-.272.438-.48.774-.624.336-.144.742-.228 1.218-.252a8.18 8.18 0 0 1 1.602.096c.04-.368.046-.674.018-.918s-.092-.438-.192-.582a.804.804 0 0 0-.42-.306c-.18-.06-.402-.09-.666-.09-.36 0-.704.05-1.032.15-.328.1-.62.202-.876.306l-.3-.696zm1.764 4.836c.224 0 .432-.036.624-.108.192-.072.36-.164.504-.276a1.829 1.829 0 0 0 .576-.744v-.84a6.79 6.79 0 0 0-1.152-.108c-.352 0-.656.038-.912.114a1.272 1.272 0 0 0-.6.354c-.144.16-.216.368-.216.624 0 .264.09.494.27.69.18.196.482.294.906.294zm5.292-3.204a12.042 12.042 0 0 0-.054-1.008 3.992 3.992 0 0 0-.042-.312h-.804V420h1.596l.12.84h.06c.216-.28.49-.514.822-.702.332-.188.738-.282 1.218-.282.856 0 1.5.236 1.932.708.432.472.648 1.244.648 2.316 0 .504-.074.958-.222 1.362a2.863 2.863 0 0 1-.63 1.026c-.272.28-.6.496-.984.648a3.427 3.427 0 0 1-1.272.228 5.02 5.02 0 0 1-.45-.018 3.954 3.954 0 0 1-.36-.048 2.837 2.837 0 0 1-.318-.078 4.374 4.374 0 0 1-.336-.12v2.52h-.924v-6.3zm2.76-1.368c-.24 0-.466.044-.678.132a2.023 2.023 0 0 0-.966.828 1.412 1.412 0 0 0-.192.528v2.736a2.2 2.2 0 0 0 .594.282c.22.068.51.102.87.102.64 0 1.152-.21 1.536-.63.384-.42.576-1.034.576-1.842 0-.68-.134-1.206-.402-1.578-.268-.372-.714-.558-1.338-.558zm5.556 4.44c.088.016.194.028.318.036.124.008.25.018.378.03s.252.02.372.024.216.006.288.006c.6 0 1.04-.106 1.32-.318.28-.212.42-.49.42-.834 0-.304-.136-.564-.408-.78-.272-.216-.7-.324-1.284-.324-.264 0-.522.004-.774.012a3.222 3.222 0 0 0-.63.072v2.076zm0-2.856c.216-.032.446-.054.69-.066.244-.012.526-.018.846-.018.464 0 .858.046 1.182.138.324.092.588.218.792.378.204.16.352.346.444.558.092.212.138.442.138.69 0 .728-.246 1.256-.738 1.584-.492.328-1.242.492-2.25.492-.128 0-.278-.004-.45-.012a26.335 26.335 0 0 1-.528-.03l-.546-.036a12.806 12.806 0 0 1-.504-.042V420h.924v2.316zm18.132-2.592c0 .736-.348 1.556-1.044 2.46-.696.904-1.668 1.888-2.916 2.952h4.224V426h-5.328v-.864c.152-.144.36-.332.624-.564.264-.232.548-.49.852-.774.304-.284.614-.59.93-.918.316-.328.602-.664.858-1.008s.464-.688.624-1.032c.16-.344.24-.676.24-.996 0-.48-.126-.858-.378-1.134-.252-.276-.63-.414-1.134-.414-.432 0-.796.048-1.092.144a2.658 2.658 0 0 0-.804.42l-.408-.66a3.87 3.87 0 0 1 1.146-.564c.404-.12.846-.18 1.326-.18.752 0 1.32.204 1.704.612.384.408.576.96.576 1.656zm1.86 2.076c0-.68.06-1.29.18-1.83s.3-.996.54-1.368c.24-.372.544-.656.912-.852.368-.196.804-.294 1.308-.294.536 0 .99.096 1.362.288.372.192.674.472.906.84.232.368.4.822.504 1.362.104.54.156 1.158.156 1.854 0 .68-.06 1.29-.18 1.83s-.3.996-.54 1.368c-.24.372-.544.656-.912.852-.368.196-.804.294-1.308.294-.528 0-.978-.106-1.35-.318a2.534 2.534 0 0 1-.912-.894 4.11 4.11 0 0 1-.51-1.374 9.182 9.182 0 0 1-.156-1.758zm4.884 0c0-.424-.024-.828-.072-1.212l-3.564 3.252c.136.456.34.82.612 1.092.272.272.628.408 1.068.408.704 0 1.206-.292 1.506-.876.3-.584.45-1.472.45-2.664zm-3.888 0c0 .2.006.392.018.576.012.184.026.364.042.54l3.576-3.24c-.136-.432-.338-.776-.606-1.032-.268-.256-.63-.384-1.086-.384-.712 0-1.214.294-1.506.882-.292.588-.438 1.474-.438 2.658zm7.068 3.336h1.884v-6.312l-1.92 1.344-.468-.684 2.64-1.884h.672v7.536h1.848V426h-4.656v-.864zm6.576-1.176c0-.968.588-1.748 1.764-2.34a7.564 7.564 0 0 1-.624-.372 2.497 2.497 0 0 1-.498-.432c-.14-.16-.25-.344-.33-.552a1.997 1.997 0 0 1-.12-.72c0-.296.06-.572.18-.828s.292-.476.516-.66c.224-.184.496-.33.816-.438.32-.108.676-.162 1.068-.162.368 0 .702.048 1.002.144.3.096.556.23.768.402.212.172.374.374.486.606.112.232.168.48.168.744 0 .456-.114.874-.342 1.254-.228.38-.594.726-1.098 1.038.232.12.448.248.648.384s.374.288.522.456c.148.168.264.358.348.57.084.212.126.454.126.726 0 .336-.06.65-.18.942a2 2 0 0 1-.534.75 2.587 2.587 0 0 1-.87.492c-.344.12-.744.18-1.2.18-.424 0-.8-.06-1.128-.18a2.464 2.464 0 0 1-.822-.48c-.22-.2-.386-.432-.498-.696a2.099 2.099 0 0 1-.168-.828zm4.452-.12c0-.232-.054-.438-.162-.618a1.827 1.827 0 0 0-.432-.486 3.726 3.726 0 0 0-.618-.396c-.232-.12-.472-.24-.72-.36-.576.28-.986.588-1.23.924-.244.336-.366.652-.366.948 0 .2.038.39.114.57.076.18.188.338.336.474.148.136.332.244.552.324.22.08.474.12.762.12.232 0 .454-.032.666-.096.212-.064.4-.158.564-.282a1.345 1.345 0 0 0 .534-1.122zm-3.324-4.332c0 .224.052.424.156.6.104.176.242.334.414.474.172.14.37.268.594.384.224.116.46.23.708.342.424-.28.742-.56.954-.84.212-.28.318-.588.318-.924 0-.2-.042-.378-.126-.534a1.299 1.299 0 0 0-.336-.402 1.528 1.528 0 0 0-.486-.258 1.846 1.846 0 0 0-.576-.09c-.256 0-.484.036-.684.108a1.54 1.54 0 0 0-.504.288 1.37 1.37 0 0 0-.318.402.976.976 0 0 0-.114.45z"/>
        <path stroke="#40607F" stroke-width="1.92" d="M82.8 57.52v337.683h584.402M82.8 395h584.402M82.8 313h584.402M82.8 231h584.402M82.8 149h584.402M82.8 67.12h584.402"/>
        <path fill="url(#a)" d="M83.48 56.08h626v338h-626z"/>
        <path fill="#40607F" d="M57.46 389.8c0-.68.06-1.29.18-1.83s.3-.996.54-1.368c.24-.372.544-.656.912-.852.368-.196.804-.294 1.308-.294.536 0 .99.096 1.362.288.372.192.674.472.906.84.232.368.4.822.504 1.362.104.54.156 1.158.156 1.854 0 .68-.06 1.29-.18 1.83s-.3.996-.54 1.368c-.24.372-.544.656-.912.852-.368.196-.804.294-1.308.294-.528 0-.978-.106-1.35-.318a2.534 2.534 0 0 1-.912-.894 4.11 4.11 0 0 1-.51-1.374 9.182 9.182 0 0 1-.156-1.758zm4.884 0c0-.424-.024-.828-.072-1.212l-3.564 3.252c.136.456.34.82.612 1.092.272.272.628.408 1.068.408.704 0 1.206-.292 1.506-.876.3-.584.45-1.472.45-2.664zm-3.888 0c0 .2.006.392.018.576.012.184.026.364.042.54l3.576-3.24c-.136-.432-.338-.776-.606-1.032-.268-.256-.63-.384-1.086-.384-.712 0-1.214.294-1.506.882-.292.588-.438 1.474-.438 2.658zM38.356 151.144a6.625 6.625 0 0 1-1.17-.114 2.994 2.994 0 0 1-.822-.27l.324-.876c.16.096.378.182.654.258.276.076.614.122 1.014.138v-3.24c-.24-.12-.478-.248-.714-.384a2.907 2.907 0 0 1-.63-.486 2.205 2.205 0 0 1-.444-.666 2.264 2.264 0 0 1-.168-.912c0-.576.162-1.048.486-1.416.324-.368.814-.596 1.47-.684V141.4h.816v1.056c.408.016.742.054 1.002.114.26.06.494.138.702.234l-.288.84c-.16-.08-.352-.15-.576-.21a4.06 4.06 0 0 0-.84-.114v2.964c.248.128.496.266.744.414.248.148.47.318.666.51.196.192.354.416.474.672.12.256.18.556.18.9 0 .624-.174 1.138-.522 1.542-.348.404-.862.662-1.542.774v1.104h-.816v-1.056zm1.884-2.28a1.25 1.25 0 0 0-.102-.516 1.478 1.478 0 0 0-.27-.408 1.995 1.995 0 0 0-.396-.324 5.668 5.668 0 0 0-.492-.276v2.916c.368-.064.67-.208.906-.432s.354-.544.354-.96zm-2.844-4.332c0 .344.11.624.33.84.22.216.494.412.822.588v-2.628c-.424.048-.722.188-.894.42a1.278 1.278 0 0 0-.258.78zm5.736.6c0-.368.06-.714.18-1.038a2.34 2.34 0 0 1 .546-.852c.244-.244.546-.436.906-.576.36-.14.78-.21 1.26-.21.448 0 .848.072 1.2.216.352.144.65.346.894.606s.43.576.558.948a3.8 3.8 0 0 1 .192 1.242c0 .896-.112 1.684-.336 2.364-.224.68-.536 1.256-.936 1.728s-.874.84-1.422 1.104a5.092 5.092 0 0 1-1.782.48l-.18-.756a4.29 4.29 0 0 0 1.416-.384 3.777 3.777 0 0 0 1.824-1.848c.192-.408.324-.844.396-1.308-.128.136-.258.25-.39.342a1.803 1.803 0 0 1-.438.222c-.16.056-.336.096-.528.12a5.375 5.375 0 0 1-.66.036c-.368 0-.716-.056-1.044-.168a2.547 2.547 0 0 1-.858-.486 2.355 2.355 0 0 1-.582-.768 2.314 2.314 0 0 1-.216-1.014zm.984-.096c0 .576.174 1.008.522 1.296.348.288.81.432 1.386.432.456 0 .85-.07 1.182-.21.332-.14.566-.314.702-.522.016-.112.024-.202.024-.27v-.234c0-.28-.038-.556-.114-.828a2.222 2.222 0 0 0-.354-.732 1.789 1.789 0 0 0-.618-.522c-.252-.132-.554-.198-.906-.198-.576 0-1.024.156-1.344.468-.32.312-.48.752-.48 1.32zm6.144 1.764c0-.68.06-1.29.18-1.83s.3-.996.54-1.368c.24-.372.544-.656.912-.852.368-.196.804-.294 1.308-.294.536 0 .99.096 1.362.288.372.192.674.472.906.84.232.368.4.822.504 1.362.104.54.156 1.158.156 1.854 0 .68-.06 1.29-.18 1.83s-.3.996-.54 1.368c-.24.372-.544.656-.912.852-.368.196-.804.294-1.308.294-.528 0-.978-.106-1.35-.318a2.534 2.534 0 0 1-.912-.894 4.11 4.11 0 0 1-.51-1.374 9.182 9.182 0 0 1-.156-1.758zm4.884 0c0-.424-.024-.828-.072-1.212l-3.564 3.252c.136.456.34.82.612 1.092.272.272.628.408 1.068.408.704 0 1.206-.292 1.506-.876.3-.584.45-1.472.45-2.664zm-3.888 0c0 .2.006.392.018.576.012.184.026.364.042.54l3.576-3.24c-.136-.432-.338-.776-.606-1.032-.268-.256-.63-.384-1.086-.384-.712 0-1.214.294-1.506.882-.292.588-.438 1.474-.438 2.658zm6.204 0c0-.68.06-1.29.18-1.83s.3-.996.54-1.368c.24-.372.544-.656.912-.852.368-.196.804-.294 1.308-.294.536 0 .99.096 1.362.288.372.192.674.472.906.84.232.368.4.822.504 1.362.104.54.156 1.158.156 1.854 0 .68-.06 1.29-.18 1.83s-.3.996-.54 1.368c-.24.372-.544.656-.912.852-.368.196-.804.294-1.308.294-.528 0-.978-.106-1.35-.318a2.534 2.534 0 0 1-.912-.894 4.11 4.11 0 0 1-.51-1.374 9.182 9.182 0 0 1-.156-1.758zm4.884 0c0-.424-.024-.828-.072-1.212l-3.564 3.252c.136.456.34.82.612 1.092.272.272.628.408 1.068.408.704 0 1.206-.292 1.506-.876.3-.584.45-1.472.45-2.664zm-3.888 0c0 .2.006.392.018.576.012.184.026.364.042.54l3.576-3.24c-.136-.432-.338-.776-.606-1.032-.268-.256-.63-.384-1.086-.384-.712 0-1.214.294-1.506.882-.292.588-.438 1.474-.438 2.658zM31.156 71.144a6.625 6.625 0 0 1-1.17-.114 2.994 2.994 0 0 1-.822-.27l.324-.876c.16.096.378.182.654.258.276.076.614.122 1.014.138v-3.24c-.24-.12-.478-.248-.714-.384a2.907 2.907 0 0 1-.63-.486 2.205 2.205 0 0 1-.444-.666 2.264 2.264 0 0 1-.168-.912c0-.576.162-1.048.486-1.416.324-.368.814-.596 1.47-.684V61.4h.816v1.056c.408.016.742.054 1.002.114.26.06.494.138.702.234l-.288.84c-.16-.08-.352-.15-.576-.21a4.06 4.06 0 0 0-.84-.114v2.964c.248.128.496.266.744.414.248.148.47.318.666.51.196.192.354.416.474.672.12.256.18.556.18.9 0 .624-.174 1.138-.522 1.542-.348.404-.862.662-1.542.774V72.2h-.816v-1.056zm1.884-2.28a1.25 1.25 0 0 0-.102-.516 1.478 1.478 0 0 0-.27-.408 1.995 1.995 0 0 0-.396-.324 5.667 5.667 0 0 0-.492-.276v2.916c.368-.064.67-.208.906-.432s.354-.544.354-.96zm-2.844-4.332c0 .344.11.624.33.84.22.216.494.412.822.588v-2.628c-.424.048-.722.188-.894.42a1.278 1.278 0 0 0-.258.78zm6.528 5.604h1.884v-6.312l-1.92 1.344-.468-.684 2.64-1.884h.672v7.536h1.848V71h-4.656v-.864zM48.4 64.724c0 .736-.348 1.556-1.044 2.46-.696.904-1.668 1.888-2.916 2.952h4.224V71h-5.328v-.864c.152-.144.36-.332.624-.564.264-.232.548-.49.852-.774.304-.284.614-.59.93-.918.316-.328.602-.664.858-1.008s.464-.688.624-1.032c.16-.344.24-.676.24-.996 0-.48-.126-.858-.378-1.134-.252-.276-.63-.414-1.134-.414-.432 0-.796.048-1.092.144a2.658 2.658 0 0 0-.804.42l-.408-.66a3.87 3.87 0 0 1 1.146-.564c.404-.12.846-.18 1.326-.18.752 0 1.32.204 1.704.612.384.408.576.96.576 1.656zm1.86 2.076c0-.68.06-1.29.18-1.83s.3-.996.54-1.368c.24-.372.544-.656.912-.852.368-.196.804-.294 1.308-.294.536 0 .99.096 1.362.288.372.192.674.472.906.84.232.368.4.822.504 1.362.104.54.156 1.158.156 1.854 0 .68-.06 1.29-.18 1.83s-.3.996-.54 1.368c-.24.372-.544.656-.912.852-.368.196-.804.294-1.308.294-.528 0-.978-.106-1.35-.318a2.534 2.534 0 0 1-.912-.894 4.11 4.11 0 0 1-.51-1.374 9.182 9.182 0 0 1-.156-1.758zm4.884 0c0-.424-.024-.828-.072-1.212l-3.564 3.252c.136.456.34.82.612 1.092.272.272.628.408 1.068.408.704 0 1.206-.292 1.506-.876.3-.584.45-1.472.45-2.664zm-3.888 0c0 .2.006.392.018.576.012.184.026.364.042.54l3.576-3.24c-.136-.432-.338-.776-.606-1.032-.268-.256-.63-.384-1.086-.384-.712 0-1.214.294-1.506.882-.292.588-.438 1.474-.438 2.658zm6.204 0c0-.68.06-1.29.18-1.83s.3-.996.54-1.368c.24-.372.544-.656.912-.852.368-.196.804-.294 1.308-.294.536 0 .99.096 1.362.288.372.192.674.472.906.84.232.368.4.822.504 1.362.104.54.156 1.158.156 1.854 0 .68-.06 1.29-.18 1.83s-.3.996-.54 1.368c-.24.372-.544.656-.912.852-.368.196-.804.294-1.308.294-.528 0-.978-.106-1.35-.318a2.534 2.534 0 0 1-.912-.894 4.11 4.11 0 0 1-.51-1.374 9.182 9.182 0 0 1-.156-1.758zm4.884 0c0-.424-.024-.828-.072-1.212l-3.564 3.252c.136.456.34.82.612 1.092.272.272.628.408 1.068.408.704 0 1.206-.292 1.506-.876.3-.584.45-1.472.45-2.664zm-3.888 0c0 .2.006.392.018.576.012.184.026.364.042.54l3.576-3.24c-.136-.432-.338-.776-.606-1.032-.268-.256-.63-.384-1.086-.384-.712 0-1.214.294-1.506.882-.292.588-.438 1.474-.438 2.658zM38.356 233.144a6.625 6.625 0 0 1-1.17-.114 2.994 2.994 0 0 1-.822-.27l.324-.876c.16.096.378.182.654.258.276.076.614.122 1.014.138v-3.24c-.24-.12-.478-.248-.714-.384a2.907 2.907 0 0 1-.63-.486 2.205 2.205 0 0 1-.444-.666 2.264 2.264 0 0 1-.168-.912c0-.576.162-1.048.486-1.416.324-.368.814-.596 1.47-.684V223.4h.816v1.056c.408.016.742.054 1.002.114.26.06.494.138.702.234l-.288.84c-.16-.08-.352-.15-.576-.21a4.06 4.06 0 0 0-.84-.114v2.964c.248.128.496.266.744.414.248.148.47.318.666.51.196.192.354.416.474.672.12.256.18.556.18.9 0 .624-.174 1.138-.522 1.542-.348.404-.862.662-1.542.774v1.104h-.816v-1.056zm1.884-2.28a1.25 1.25 0 0 0-.102-.516 1.478 1.478 0 0 0-.27-.408 1.995 1.995 0 0 0-.396-.324 5.668 5.668 0 0 0-.492-.276v2.916c.368-.064.67-.208.906-.432s.354-.544.354-.96zm-2.844-4.332c0 .344.11.624.33.84.22.216.494.412.822.588v-2.628c-.424.048-.722.188-.894.42a1.278 1.278 0 0 0-.258.78zm11.472 3.936c0 .344-.062.676-.186.996-.124.32-.306.604-.546.852-.24.248-.536.448-.888.6-.352.152-.76.228-1.224.228a3.24 3.24 0 0 1-1.176-.204 2.639 2.639 0 0 1-.912-.582 2.562 2.562 0 0 1-.594-.93c-.14-.368-.21-.78-.21-1.236 0-.752.11-1.464.33-2.136a5.85 5.85 0 0 1 .924-1.776 4.902 4.902 0 0 1 1.416-1.248 4.38 4.38 0 0 1 1.806-.576l.168.768a3.838 3.838 0 0 0-1.386.444c-.42.232-.786.52-1.098.864a4.619 4.619 0 0 0-.762 1.14c-.196.416-.322.84-.378 1.272.064-.104.158-.212.282-.324.124-.112.272-.21.444-.294.172-.084.364-.154.576-.21.212-.056.442-.084.69-.084.424 0 .804.058 1.14.174.336.116.622.28.858.492.236.212.416.468.54.768.124.3.186.634.186 1.002zm-.984.096c0-.56-.156-.988-.468-1.284-.312-.296-.792-.444-1.44-.444a2.395 2.395 0 0 0-1.188.306c-.16.092-.3.198-.42.318s-.212.24-.276.36c-.016.112-.024.2-.024.264v.228c0 .24.04.482.12.726a1.872 1.872 0 0 0 .984 1.122c.248.12.54.18.876.18a1.87 1.87 0 0 0 1.326-.528c.164-.16.29-.348.378-.564.088-.216.132-.444.132-.684zm2.376-1.764c0-.68.06-1.29.18-1.83s.3-.996.54-1.368c.24-.372.544-.656.912-.852.368-.196.804-.294 1.308-.294.536 0 .99.096 1.362.288.372.192.674.472.906.84.232.368.4.822.504 1.362.104.54.156 1.158.156 1.854 0 .68-.06 1.29-.18 1.83s-.3.996-.54 1.368c-.24.372-.544.656-.912.852-.368.196-.804.294-1.308.294-.528 0-.978-.106-1.35-.318a2.534 2.534 0 0 1-.912-.894 4.11 4.11 0 0 1-.51-1.374 9.182 9.182 0 0 1-.156-1.758zm4.884 0c0-.424-.024-.828-.072-1.212l-3.564 3.252c.136.456.34.82.612 1.092.272.272.628.408 1.068.408.704 0 1.206-.292 1.506-.876.3-.584.45-1.472.45-2.664zm-3.888 0c0 .2.006.392.018.576.012.184.026.364.042.54l3.576-3.24c-.136-.432-.338-.776-.606-1.032-.268-.256-.63-.384-1.086-.384-.712 0-1.214.294-1.506.882-.292.588-.438 1.474-.438 2.658zm6.204 0c0-.68.06-1.29.18-1.83s.3-.996.54-1.368c.24-.372.544-.656.912-.852.368-.196.804-.294 1.308-.294.536 0 .99.096 1.362.288.372.192.674.472.906.84.232.368.4.822.504 1.362.104.54.156 1.158.156 1.854 0 .68-.06 1.29-.18 1.83s-.3.996-.54 1.368c-.24.372-.544.656-.912.852-.368.196-.804.294-1.308.294-.528 0-.978-.106-1.35-.318a2.534 2.534 0 0 1-.912-.894 4.11 4.11 0 0 1-.51-1.374 9.182 9.182 0 0 1-.156-1.758zm4.884 0c0-.424-.024-.828-.072-1.212l-3.564 3.252c.136.456.34.82.612 1.092.272.272.628.408 1.068.408.704 0 1.206-.292 1.506-.876.3-.584.45-1.472.45-2.664zm-3.888 0c0 .2.006.392.018.576.012.184.026.364.042.54l3.576-3.24c-.136-.432-.338-.776-.606-1.032-.268-.256-.63-.384-1.086-.384-.712 0-1.214.294-1.506.882-.292.588-.438 1.474-.438 2.658zM38.356 318.144a6.625 6.625 0 0 1-1.17-.114 2.994 2.994 0 0 1-.822-.27l.324-.876c.16.096.378.182.654.258.276.076.614.122 1.014.138v-3.24c-.24-.12-.478-.248-.714-.384a2.907 2.907 0 0 1-.63-.486 2.205 2.205 0 0 1-.444-.666 2.264 2.264 0 0 1-.168-.912c0-.576.162-1.048.486-1.416.324-.368.814-.596 1.47-.684V308.4h.816v1.056c.408.016.742.054 1.002.114.26.06.494.138.702.234l-.288.84c-.16-.08-.352-.15-.576-.21a4.06 4.06 0 0 0-.84-.114v2.964c.248.128.496.266.744.414.248.148.47.318.666.51.196.192.354.416.474.672.12.256.18.556.18.9 0 .624-.174 1.138-.522 1.542-.348.404-.862.662-1.542.774v1.104h-.816v-1.056zm1.884-2.28a1.25 1.25 0 0 0-.102-.516 1.478 1.478 0 0 0-.27-.408 1.995 1.995 0 0 0-.396-.324 5.668 5.668 0 0 0-.492-.276v2.916c.368-.064.67-.208.906-.432s.354-.544.354-.96zm-2.844-4.332c0 .344.11.624.33.84.22.216.494.412.822.588v-2.628c-.424.048-.722.188-.894.42a1.278 1.278 0 0 0-.258.78zm7.98 5.784c.32 0 .614-.042.882-.126.268-.084.502-.202.702-.354.2-.152.356-.336.468-.552a1.54 1.54 0 0 0 .168-.72c0-.552-.194-.946-.582-1.182-.388-.236-.91-.354-1.566-.354h-.768v-.576l2.364-2.988h-3.588v-.864h4.74v.864l-2.364 2.772h.192c.368 0 .704.052 1.008.156.304.104.568.252.792.444.224.192.398.424.522.696.124.272.186.58.186.924 0 .432-.084.816-.252 1.152a2.477 2.477 0 0 1-.684.846c-.288.228-.626.4-1.014.516a4.315 4.315 0 0 1-1.242.174 5.48 5.48 0 0 1-1.062-.09c-.3-.06-.574-.134-.822-.222l.24-.84c.208.096.452.174.732.234.28.06.596.09.948.09zm4.884-3.516c0-.68.06-1.29.18-1.83s.3-.996.54-1.368c.24-.372.544-.656.912-.852.368-.196.804-.294 1.308-.294.536 0 .99.096 1.362.288.372.192.674.472.906.84.232.368.4.822.504 1.362.104.54.156 1.158.156 1.854 0 .68-.06 1.29-.18 1.83s-.3.996-.54 1.368c-.24.372-.544.656-.912.852-.368.196-.804.294-1.308.294-.528 0-.978-.106-1.35-.318a2.534 2.534 0 0 1-.912-.894 4.11 4.11 0 0 1-.51-1.374 9.182 9.182 0 0 1-.156-1.758zm4.884 0c0-.424-.024-.828-.072-1.212l-3.564 3.252c.136.456.34.82.612 1.092.272.272.628.408 1.068.408.704 0 1.206-.292 1.506-.876.3-.584.45-1.472.45-2.664zm-3.888 0c0 .2.006.392.018.576.012.184.026.364.042.54l3.576-3.24c-.136-.432-.338-.776-.606-1.032-.268-.256-.63-.384-1.086-.384-.712 0-1.214.294-1.506.882-.292.588-.438 1.474-.438 2.658zm6.204 0c0-.68.06-1.29.18-1.83s.3-.996.54-1.368c.24-.372.544-.656.912-.852.368-.196.804-.294 1.308-.294.536 0 .99.096 1.362.288.372.192.674.472.906.84.232.368.4.822.504 1.362.104.54.156 1.158.156 1.854 0 .68-.06 1.29-.18 1.83s-.3.996-.54 1.368c-.24.372-.544.656-.912.852-.368.196-.804.294-1.308.294-.528 0-.978-.106-1.35-.318a2.534 2.534 0 0 1-.912-.894 4.11 4.11 0 0 1-.51-1.374 9.182 9.182 0 0 1-.156-1.758zm4.884 0c0-.424-.024-.828-.072-1.212l-3.564 3.252c.136.456.34.82.612 1.092.272.272.628.408 1.068.408.704 0 1.206-.292 1.506-.876.3-.584.45-1.472.45-2.664zm-3.888 0c0 .2.006.392.018.576.012.184.026.364.042.54l3.576-3.24c-.136-.432-.338-.776-.606-1.032-.268-.256-.63-.384-1.086-.384-.712 0-1.214.294-1.506.882-.292.588-.438 1.474-.438 2.658z"/>
    </g>
</svg>
