<svg xmlns="http://www.w3.org/2000/svg" width="1110" height="449" viewBox="0 0 1110 449">
    <defs>
        <linearGradient id="a" x1="50%" x2="52.763%" y1="0%" y2="239.17%">
            <stop offset="0%" stop-color="#263F57"/>
            <stop offset="100%" stop-color="#263F57" stop-opacity="0"/>
        </linearGradient>
    </defs>
    <g fill="none" fill-rule="evenodd">
        <path fill="#263F57" d="M0 0h1110v449H0z"/>
        <path stroke="#40607F" stroke-width="1.92" d="M82.32 57.44v337.683h981.49M82.32 393.88h981.49M82.32 358.88h981.49M82.32 326.88h981.49M82.32 293.88h981.49M82.32 261.88h981.49M82.32 228.88h981.49M82.32 195.88h981.49M82.32 163.88h981.49M82.32 130.88h981.49M82.32 97.88h981.49M82.32 65.88h981.49"/>
        <path fill="#40607F" d="M90.328 415.016a2.818 2.818 0 0 0-.6-.168 4.79 4.79 0 0 0-.792-.056c-.437 0-.867.08-1.288.24-.421.16-.795.421-1.12.784-.325.363-.587.837-.784 1.424-.197.587-.296 1.307-.296 2.16 0 .768.088 1.44.264 2.016.176.576.421 1.056.736 1.44.315.384.693.672 1.136.864.443.192.936.288 1.48.288.277 0 .536-.024.776-.072.24-.048.461-.115.664-.2v-1.6h1.184v2.16l.016.032c-.32.245-.725.45-1.216.616-.49.165-1.088.248-1.792.248a4.953 4.953 0 0 1-1.864-.344 3.896 3.896 0 0 1-1.48-1.048c-.416-.47-.739-1.07-.968-1.8-.23-.73-.344-1.597-.344-2.6 0-1.045.128-1.933.384-2.664.256-.73.603-1.328 1.04-1.792a3.945 3.945 0 0 1 1.528-1.016 5.368 5.368 0 0 1 1.864-.32c.363 0 .677.013.944.04.267.027.501.064.704.112.203.048.381.11.536.184a4.3 4.3 0 0 1 .456.256h.016v2.528h-1.184v-1.712zm10.736 8.976c-.192.17-.419.33-.68.48-.261.15-.547.277-.856.384-.31.107-.632.19-.968.248a5.896 5.896 0 0 1-1.016.088c-.64 0-1.205-.099-1.696-.296a3.266 3.266 0 0 1-1.232-.848 3.696 3.696 0 0 1-.752-1.32 5.448 5.448 0 0 1-.256-1.728c0-.672.093-1.27.28-1.792.187-.523.456-.96.808-1.312a3.52 3.52 0 0 1 1.28-.808 4.785 4.785 0 0 1 1.68-.28c.448 0 .89.059 1.328.176.437.117.824.339 1.16.664.336.325.595.773.776 1.344.181.57.245 1.31.192 2.216H94.92c0 .96.259 1.677.776 2.152.517.475 1.208.712 2.072.712.288 0 .573-.035.856-.104.283-.07.552-.152.808-.248s.483-.203.68-.32c.197-.117.35-.224.456-.32l.496.912zm-3.376-6.128a4.32 4.32 0 0 0-1 .112 2.28 2.28 0 0 0-.832.376 2.07 2.07 0 0 0-.592.688c-.155.283-.253.632-.296 1.048h4.976c-.053-.704-.28-1.25-.68-1.64-.4-.39-.925-.584-1.576-.584zm11.456 3.584h-4.304V425h-1.232v-8h1.232v3.328h4.304V417h1.248v8h-1.248v-3.552zm3.488-4.448h7.936v2.992h-1.088v-1.904h-2.256v5.84h1.936V425h-5.184v-1.072h2v-5.84h-2.256v1.904h-1.088V417zm15.328 4.88h-1.92l-2.016 3.12h-1.6v-1.072h.832l1.456-2.176a2.082 2.082 0 0 1-.592-.264 2.18 2.18 0 0 1-.888-1.12c-.09-.25-.136-.53-.136-.84 0-.48.096-.893.288-1.24.192-.347.459-.632.8-.856a3.567 3.567 0 0 1 1.216-.488c.47-.101.987-.152 1.552-.152.405 0 .79.03 1.152.088.363.059.73.12 1.104.184V425h-1.248v-3.12zm0-.96v-2.848a4.09 4.09 0 0 0-.528-.144 2.613 2.613 0 0 0-.528-.064c-.81 0-1.43.125-1.856.376-.427.25-.64.648-.64 1.192 0 .437.128.776.384 1.016s.565.397.928.472h2.24zm5.168-2.464c.405-.533.85-.907 1.336-1.12.485-.213 1.09-.32 1.816-.32 1.099 0 1.941.33 2.528.992.587.661.88 1.6.88 2.816 0 1.408-.341 2.488-1.024 3.24-.683.752-1.637 1.128-2.864 1.128-2.592 0-3.888-1.68-3.888-5.04 0-.917.05-1.701.152-2.352.101-.65.248-1.2.44-1.648.192-.448.427-.805.704-1.072.277-.267.592-.477.944-.632a4.584 4.584 0 0 1 1.152-.328c.416-.064.864-.117 1.344-.16.619-.043 1.093-.101 1.424-.176.33-.075.603-.203.816-.384l.192 1.104a1.785 1.785 0 0 1-.384.24c-.139.064-.31.117-.512.16a8.09 8.09 0 0 1-.712.112c-.272.032-.595.059-.968.08a11.7 11.7 0 0 0-1.392.16c-.405.075-.75.227-1.032.456-.283.23-.507.56-.672.992-.165.432-.275 1.016-.328 1.752h.048zm.112 2.56c0 .395.05.779.152 1.152.101.373.256.704.464.992.208.288.472.52.792.696.32.176.704.264 1.152.264.853 0 1.493-.277 1.92-.832.427-.555.64-1.344.64-2.368 0-.395-.045-.763-.136-1.104a2.76 2.76 0 0 0-.408-.896 1.928 1.928 0 0 0-.712-.608 2.247 2.247 0 0 0-1.032-.224c-.992 0-1.712.248-2.16.744-.448.496-.672 1.224-.672 2.184zm8.896-1.216a16.054 16.054 0 0 0-.072-1.344 5.323 5.323 0 0 0-.056-.416h-1.072V417h2.128l.16 1.12h.08a3.61 3.61 0 0 1 1.096-.936c.443-.25.984-.376 1.624-.376 1.141 0 2 .315 2.576.944.576.63.864 1.659.864 3.088 0 .672-.099 1.277-.296 1.816a3.818 3.818 0 0 1-.84 1.368c-.363.373-.8.661-1.312.864a4.57 4.57 0 0 1-1.696.304c-.224 0-.424-.008-.6-.024a5.272 5.272 0 0 1-.48-.064 3.782 3.782 0 0 1-.424-.104 5.833 5.833 0 0 1-.448-.16v3.36h-1.232v-8.4zm3.68-1.824c-.32 0-.621.059-.904.176a2.697 2.697 0 0 0-1.288 1.104c-.139.235-.224.47-.256.704v3.648c.235.16.499.285.792.376.293.09.68.136 1.16.136.853 0 1.536-.28 2.048-.84.512-.56.768-1.379.768-2.456 0-.907-.179-1.608-.536-2.104-.357-.496-.952-.744-1.784-.744zm7.408 5.92c.117.021.259.037.424.048.165.01.333.024.504.04.17.016.336.027.496.032.16.005.288.008.384.008.8 0 1.387-.141 1.76-.424a1.33 1.33 0 0 0 .56-1.112c0-.405-.181-.752-.544-1.04-.363-.288-.933-.432-1.712-.432-.352 0-.696.005-1.032.016-.336.01-.616.043-.84.096v2.768zm0-3.808c.288-.043.595-.072.92-.088.325-.016.701-.024 1.128-.024.619 0 1.144.061 1.576.184.432.123.784.29 1.056.504.272.213.47.461.592.744.123.283.184.59.184.92 0 .97-.328 1.675-.984 2.112-.656.437-1.656.656-3 .656-.17 0-.37-.005-.6-.016-.23-.01-.464-.024-.704-.04l-.728-.048c-.245-.016-.47-.035-.672-.056V417h1.232v3.088zm24.176-3.456c0 .981-.464 2.075-1.392 3.28-.928 1.205-2.224 2.517-3.888 3.936h5.632V425h-7.104v-1.152c.203-.192.48-.443.832-.752.352-.31.73-.653 1.136-1.032.405-.379.819-.787 1.24-1.224.421-.437.803-.885 1.144-1.344.341-.459.619-.917.832-1.376.213-.459.32-.901.32-1.328 0-.64-.168-1.144-.504-1.512-.336-.368-.84-.552-1.512-.552-.576 0-1.061.064-1.456.192a3.545 3.545 0 0 0-1.072.56l-.544-.88a5.16 5.16 0 0 1 1.528-.752 6.189 6.189 0 0 1 1.768-.24c1.003 0 1.76.272 2.272.816.512.544.768 1.28.768 2.208zm2.48 2.768c0-.907.08-1.72.24-2.44.16-.72.4-1.328.72-1.824.32-.496.725-.875 1.216-1.136.49-.261 1.072-.392 1.744-.392.715 0 1.32.128 1.816.384s.899.63 1.208 1.12c.31.49.533 1.096.672 1.816s.208 1.544.208 2.472c0 .907-.08 1.72-.24 2.44-.16.72-.4 1.328-.72 1.824-.32.496-.725.875-1.216 1.136-.49.261-1.072.392-1.744.392-.704 0-1.304-.141-1.8-.424a3.379 3.379 0 0 1-1.216-1.192c-.315-.512-.541-1.123-.68-1.832-.139-.71-.208-1.49-.208-2.344zm6.512 0c0-.565-.032-1.104-.096-1.616l-4.752 4.336c.181.608.453 1.093.816 1.456.363.363.837.544 1.424.544.939 0 1.608-.39 2.008-1.168.4-.779.6-1.963.6-3.552zm-5.184 0c0 .267.008.523.024.768s.035.485.056.72l4.768-4.32c-.181-.576-.45-1.035-.808-1.376-.357-.341-.84-.512-1.448-.512-.95 0-1.619.392-2.008 1.176-.39.784-.584 1.965-.584 3.544zm9.424 4.448h2.512v-8.416l-2.56 1.792-.624-.912 3.52-2.512h.896v10.048h2.464V425h-6.208v-1.152zm9.552 1.152l4.896-10.048h-5.776V413.8h7.072v1.04l-4.88 10.16h-1.312zM48.68 392.4c0-.907.08-1.72.24-2.44.16-.72.4-1.328.72-1.824.32-.496.725-.875 1.216-1.136.49-.261 1.072-.392 1.744-.392.715 0 1.32.128 1.816.384s.899.63 1.208 1.12c.31.49.533 1.096.672 1.816s.208 1.544.208 2.472c0 .907-.08 1.72-.24 2.44-.16.72-.4 1.328-.72 1.824-.32.496-.725.875-1.216 1.136-.49.261-1.072.392-1.744.392-.704 0-1.304-.141-1.8-.424a3.379 3.379 0 0 1-1.216-1.192c-.315-.512-.541-1.123-.68-1.832-.139-.71-.208-1.49-.208-2.344zm6.512 0c0-.565-.032-1.104-.096-1.616l-4.752 4.336c.181.608.453 1.093.816 1.456.363.363.837.544 1.424.544.939 0 1.608-.39 2.008-1.168.4-.779.6-1.963.6-3.552zm-5.184 0c0 .267.008.523.024.768s.035.485.056.72l4.768-4.32c-.181-.576-.45-1.035-.808-1.376-.357-.341-.84-.512-1.448-.512-.95 0-1.619.392-2.008 1.176-.39.784-.584 1.965-.584 3.544zm7.84-3.072c0-.501.061-.925.184-1.272s.28-.627.472-.84c.192-.213.41-.368.656-.464.245-.096.49-.144.736-.144.245 0 .49.043.736.128.245.085.464.232.656.44s.35.485.472.832c.123.347.184.787.184 1.32 0 .523-.061.957-.184 1.304-.123.347-.28.624-.472.832-.192.208-.41.355-.656.44-.245.085-.49.128-.736.128-.245 0-.49-.043-.736-.128a1.604 1.604 0 0 1-.656-.44c-.192-.208-.35-.485-.472-.832-.123-.347-.184-.781-.184-1.304zm1.12 0c0 .63.099 1.07.296 1.32.197.25.408.376.632.376a.865.865 0 0 0 .344-.072.689.689 0 0 0 .296-.264c.085-.128.155-.301.208-.52a3.64 3.64 0 0 0 .08-.84c0-.33-.027-.605-.08-.824a1.756 1.756 0 0 0-.208-.528.735.735 0 0 0-.296-.28.792.792 0 0 0-.344-.08c-.245 0-.461.125-.648.376-.187.25-.28.696-.28 1.336zm3.472 5.968c0-.501.061-.925.184-1.272s.28-.627.472-.84c.192-.213.41-.368.656-.464.245-.096.49-.144.736-.144.245 0 .49.043.736.128.245.085.464.232.656.44s.35.485.472.832c.123.347.184.787.184 1.32 0 .523-.061.957-.184 1.304-.123.347-.28.624-.472.832-.192.208-.41.355-.656.44-.245.085-.49.128-.736.128-.245 0-.49-.043-.736-.128a1.604 1.604 0 0 1-.656-.44c-.192-.208-.35-.485-.472-.832-.123-.347-.184-.781-.184-1.304zm1.12 0c0 .63.099 1.07.296 1.32.197.25.408.376.632.376a.959.959 0 0 0 .344-.064.646.646 0 0 0 .296-.248c.085-.123.155-.296.208-.52.053-.224.08-.512.08-.864 0-.33-.027-.605-.08-.824a1.756 1.756 0 0 0-.208-.528.735.735 0 0 0-.296-.28.792.792 0 0 0-.344-.08.749.749 0 0 0-.64.352 1.646 1.646 0 0 0-.208.52 3.64 3.64 0 0 0-.08.84zm.912-8.784l.912.464-5.568 11.248-.912-.416 5.568-11.296zM30.632 330.848h2.512v-8.416l-2.56 1.792-.624-.912 3.52-2.512h.896v10.048h2.464V332h-6.208v-1.152zm8.448-4.448c0-.907.08-1.72.24-2.44.16-.72.4-1.328.72-1.824.32-.496.725-.875 1.216-1.136.49-.261 1.072-.392 1.744-.392.715 0 1.32.128 1.816.384s.899.63 1.208 1.12c.31.49.533 1.096.672 1.816s.208 1.544.208 2.472c0 .907-.08 1.72-.24 2.44-.16.72-.4 1.328-.72 1.824-.32.496-.725.875-1.216 1.136-.49.261-1.072.392-1.744.392-.704 0-1.304-.141-1.8-.424a3.379 3.379 0 0 1-1.216-1.192c-.315-.512-.541-1.123-.68-1.832-.139-.71-.208-1.49-.208-2.344zm6.512 0c0-.565-.032-1.104-.096-1.616l-4.752 4.336c.181.608.453 1.093.816 1.456.363.363.837.544 1.424.544.939 0 1.608-.39 2.008-1.168.4-.779.6-1.963.6-3.552zm-5.184 0c0 .267.008.523.024.768s.035.485.056.72l4.768-4.32c-.181-.576-.45-1.035-.808-1.376-.357-.341-.84-.512-1.448-.512-.95 0-1.619.392-2.008 1.176-.39.784-.584 1.965-.584 3.544zm8.272 0c0-.907.08-1.72.24-2.44.16-.72.4-1.328.72-1.824.32-.496.725-.875 1.216-1.136.49-.261 1.072-.392 1.744-.392.715 0 1.32.128 1.816.384s.899.63 1.208 1.12c.31.49.533 1.096.672 1.816s.208 1.544.208 2.472c0 .907-.08 1.72-.24 2.44-.16.72-.4 1.328-.72 1.824-.32.496-.725.875-1.216 1.136-.49.261-1.072.392-1.744.392-.704 0-1.304-.141-1.8-.424a3.379 3.379 0 0 1-1.216-1.192c-.315-.512-.541-1.123-.68-1.832-.139-.71-.208-1.49-.208-2.344zm6.512 0c0-.565-.032-1.104-.096-1.616l-4.752 4.336c.181.608.453 1.093.816 1.456.363.363.837.544 1.424.544.939 0 1.608-.39 2.008-1.168.4-.779.6-1.963.6-3.552zm-5.184 0c0 .267.008.523.024.768s.035.485.056.72l4.768-4.32c-.181-.576-.45-1.035-.808-1.376-.357-.341-.84-.512-1.448-.512-.95 0-1.619.392-2.008 1.176-.39.784-.584 1.965-.584 3.544zm7.84-3.072c0-.501.061-.925.184-1.272s.28-.627.472-.84c.192-.213.41-.368.656-.464.245-.096.49-.144.736-.144.245 0 .49.043.736.128.245.085.464.232.656.44s.35.485.472.832c.123.347.184.787.184 1.32 0 .523-.061.957-.184 1.304-.123.347-.28.624-.472.832-.192.208-.41.355-.656.44-.245.085-.49.128-.736.128-.245 0-.49-.043-.736-.128a1.604 1.604 0 0 1-.656-.44c-.192-.208-.35-.485-.472-.832-.123-.347-.184-.781-.184-1.304zm1.12 0c0 .63.099 1.07.296 1.32.197.25.408.376.632.376a.865.865 0 0 0 .344-.072.689.689 0 0 0 .296-.264c.085-.128.155-.301.208-.52a3.64 3.64 0 0 0 .08-.84c0-.33-.027-.605-.08-.824a1.756 1.756 0 0 0-.208-.528.735.735 0 0 0-.296-.28.792.792 0 0 0-.344-.08c-.245 0-.461.125-.648.376-.187.25-.28.696-.28 1.336zm3.472 5.968c0-.501.061-.925.184-1.272s.28-.627.472-.84c.192-.213.41-.368.656-.464.245-.096.49-.144.736-.144.245 0 .49.043.736.128.245.085.464.232.656.44s.35.485.472.832c.123.347.184.787.184 1.32 0 .523-.061.957-.184 1.304-.123.347-.28.624-.472.832-.192.208-.41.355-.656.44-.245.085-.49.128-.736.128-.245 0-.49-.043-.736-.128a1.604 1.604 0 0 1-.656-.44c-.192-.208-.35-.485-.472-.832-.123-.347-.184-.781-.184-1.304zm1.12 0c0 .63.099 1.07.296 1.32.197.25.408.376.632.376a.959.959 0 0 0 .344-.064.646.646 0 0 0 .296-.248c.085-.123.155-.296.208-.52.053-.224.08-.512.08-.864 0-.33-.027-.605-.08-.824a1.756 1.756 0 0 0-.208-.528.735.735 0 0 0-.296-.28.792.792 0 0 0-.344-.08.749.749 0 0 0-.64.352 1.646 1.646 0 0 0-.208.52 3.64 3.64 0 0 0-.08.84zm.912-8.784l.912.464-5.568 11.248-.912-.416 5.568-11.296zM36.6 258.632c0 .981-.464 2.075-1.392 3.28-.928 1.205-2.224 2.517-3.888 3.936h5.632V267h-7.104v-1.152c.203-.192.48-.443.832-.752.352-.31.73-.653 1.136-1.032.405-.379.819-.787 1.24-1.224.421-.437.803-.885 1.144-1.344.341-.459.619-.917.832-1.376.213-.459.32-.901.32-1.328 0-.64-.168-1.144-.504-1.512-.336-.368-.84-.552-1.512-.552-.576 0-1.061.064-1.456.192a3.545 3.545 0 0 0-1.072.56l-.544-.88a5.16 5.16 0 0 1 1.528-.752 6.189 6.189 0 0 1 1.768-.24c1.003 0 1.76.272 2.272.816.512.544.768 1.28.768 2.208zm2.48 2.768c0-.907.08-1.72.24-2.44.16-.72.4-1.328.72-1.824.32-.496.725-.875 1.216-1.136.49-.261 1.072-.392 1.744-.392.715 0 1.32.128 1.816.384s.899.63 1.208 1.12c.31.49.533 1.096.672 1.816s.208 1.544.208 2.472c0 .907-.08 1.72-.24 2.44-.16.72-.4 1.328-.72 1.824-.32.496-.725.875-1.216 1.136-.49.261-1.072.392-1.744.392-.704 0-1.304-.141-1.8-.424a3.379 3.379 0 0 1-1.216-1.192c-.315-.512-.541-1.123-.68-1.832-.139-.71-.208-1.49-.208-2.344zm6.512 0c0-.565-.032-1.104-.096-1.616l-4.752 4.336c.181.608.453 1.093.816 1.456.363.363.837.544 1.424.544.939 0 1.608-.39 2.008-1.168.4-.779.6-1.963.6-3.552zm-5.184 0c0 .267.008.523.024.768s.035.485.056.72l4.768-4.32c-.181-.576-.45-1.035-.808-1.376-.357-.341-.84-.512-1.448-.512-.95 0-1.619.392-2.008 1.176-.39.784-.584 1.965-.584 3.544zm8.272 0c0-.907.08-1.72.24-2.44.16-.72.4-1.328.72-1.824.32-.496.725-.875 1.216-1.136.49-.261 1.072-.392 1.744-.392.715 0 1.32.128 1.816.384s.899.63 1.208 1.12c.31.49.533 1.096.672 1.816s.208 1.544.208 2.472c0 .907-.08 1.72-.24 2.44-.16.72-.4 1.328-.72 1.824-.32.496-.725.875-1.216 1.136-.49.261-1.072.392-1.744.392-.704 0-1.304-.141-1.8-.424a3.379 3.379 0 0 1-1.216-1.192c-.315-.512-.541-1.123-.68-1.832-.139-.71-.208-1.49-.208-2.344zm6.512 0c0-.565-.032-1.104-.096-1.616l-4.752 4.336c.181.608.453 1.093.816 1.456.363.363.837.544 1.424.544.939 0 1.608-.39 2.008-1.168.4-.779.6-1.963.6-3.552zm-5.184 0c0 .267.008.523.024.768s.035.485.056.72l4.768-4.32c-.181-.576-.45-1.035-.808-1.376-.357-.341-.84-.512-1.448-.512-.95 0-1.619.392-2.008 1.176-.39.784-.584 1.965-.584 3.544zm7.84-3.072c0-.501.061-.925.184-1.272s.28-.627.472-.84c.192-.213.41-.368.656-.464.245-.096.49-.144.736-.144.245 0 .49.043.736.128.245.085.464.232.656.44s.35.485.472.832c.123.347.184.787.184 1.32 0 .523-.061.957-.184 1.304-.123.347-.28.624-.472.832-.192.208-.41.355-.656.44-.245.085-.49.128-.736.128-.245 0-.49-.043-.736-.128a1.604 1.604 0 0 1-.656-.44c-.192-.208-.35-.485-.472-.832-.123-.347-.184-.781-.184-1.304zm1.12 0c0 .63.099 1.07.296 1.32.197.25.408.376.632.376a.865.865 0 0 0 .344-.072.689.689 0 0 0 .296-.264c.085-.128.155-.301.208-.52a3.64 3.64 0 0 0 .08-.84c0-.33-.027-.605-.08-.824a1.756 1.756 0 0 0-.208-.528.735.735 0 0 0-.296-.28.792.792 0 0 0-.344-.08c-.245 0-.461.125-.648.376-.187.25-.28.696-.28 1.336zm3.472 5.968c0-.501.061-.925.184-1.272s.28-.627.472-.84c.192-.213.41-.368.656-.464.245-.096.49-.144.736-.144.245 0 .49.043.736.128.245.085.464.232.656.44s.35.485.472.832c.123.347.184.787.184 1.32 0 .523-.061.957-.184 1.304-.123.347-.28.624-.472.832-.192.208-.41.355-.656.44-.245.085-.49.128-.736.128-.245 0-.49-.043-.736-.128a1.604 1.604 0 0 1-.656-.44c-.192-.208-.35-.485-.472-.832-.123-.347-.184-.781-.184-1.304zm1.12 0c0 .63.099 1.07.296 1.32.197.25.408.376.632.376a.959.959 0 0 0 .344-.064.646.646 0 0 0 .296-.248c.085-.123.155-.296.208-.52.053-.224.08-.512.08-.864 0-.33-.027-.605-.08-.824a1.756 1.756 0 0 0-.208-.528.735.735 0 0 0-.296-.28.792.792 0 0 0-.344-.08.749.749 0 0 0-.64.352 1.646 1.646 0 0 0-.208.52 3.64 3.64 0 0 0-.08.84zm.912-8.784l.912.464-5.568 11.248-.912-.416 5.568-11.296zM32.568 200.088c.427 0 .819-.056 1.176-.168.357-.112.67-.27.936-.472.267-.203.475-.448.624-.736.15-.288.224-.608.224-.96 0-.736-.259-1.261-.776-1.576-.517-.315-1.213-.472-2.088-.472H31.64v-.768l3.152-3.984h-4.784V189.8h6.32v1.152l-3.152 3.696h.256c.49 0 .939.07 1.344.208a3.19 3.19 0 0 1 1.056.592c.299.256.53.565.696.928.165.363.248.773.248 1.232 0 .576-.112 1.088-.336 1.536a3.303 3.303 0 0 1-.912 1.128 3.997 3.997 0 0 1-1.352.688 5.753 5.753 0 0 1-1.656.232c-.544 0-1.016-.04-1.416-.12-.4-.08-.765-.179-1.096-.296l.32-1.12c.277.128.603.232.976.312.373.08.795.12 1.264.12zm6.512-4.688c0-.907.08-1.72.24-2.44.16-.72.4-1.328.72-1.824.32-.496.725-.875 1.216-1.136.49-.261 1.072-.392 1.744-.392.715 0 1.32.128 1.816.384s.899.63 1.208 1.12c.31.49.533 1.096.672 1.816s.208 1.544.208 2.472c0 .907-.08 1.72-.24 2.44-.16.72-.4 1.328-.72 1.824-.32.496-.725.875-1.216 1.136-.49.261-1.072.392-1.744.392-.704 0-1.304-.141-1.8-.424a3.379 3.379 0 0 1-1.216-1.192c-.315-.512-.541-1.123-.68-1.832-.139-.71-.208-1.49-.208-2.344zm6.512 0c0-.565-.032-1.104-.096-1.616l-4.752 4.336c.181.608.453 1.093.816 1.456.363.363.837.544 1.424.544.939 0 1.608-.39 2.008-1.168.4-.779.6-1.963.6-3.552zm-5.184 0c0 .267.008.523.024.768s.035.485.056.72l4.768-4.32c-.181-.576-.45-1.035-.808-1.376-.357-.341-.84-.512-1.448-.512-.95 0-1.619.392-2.008 1.176-.39.784-.584 1.965-.584 3.544zm8.272 0c0-.907.08-1.72.24-2.44.16-.72.4-1.328.72-1.824.32-.496.725-.875 1.216-1.136.49-.261 1.072-.392 1.744-.392.715 0 1.32.128 1.816.384s.899.63 1.208 1.12c.31.49.533 1.096.672 1.816s.208 1.544.208 2.472c0 .907-.08 1.72-.24 2.44-.16.72-.4 1.328-.72 1.824-.32.496-.725.875-1.216 1.136-.49.261-1.072.392-1.744.392-.704 0-1.304-.141-1.8-.424a3.379 3.379 0 0 1-1.216-1.192c-.315-.512-.541-1.123-.68-1.832-.139-.71-.208-1.49-.208-2.344zm6.512 0c0-.565-.032-1.104-.096-1.616l-4.752 4.336c.181.608.453 1.093.816 1.456.363.363.837.544 1.424.544.939 0 1.608-.39 2.008-1.168.4-.779.6-1.963.6-3.552zm-5.184 0c0 .267.008.523.024.768s.035.485.056.72l4.768-4.32c-.181-.576-.45-1.035-.808-1.376-.357-.341-.84-.512-1.448-.512-.95 0-1.619.392-2.008 1.176-.39.784-.584 1.965-.584 3.544zm7.84-3.072c0-.501.061-.925.184-1.272s.28-.627.472-.84c.192-.213.41-.368.656-.464.245-.096.49-.144.736-.144.245 0 .49.043.736.128.245.085.464.232.656.44s.35.485.472.832c.123.347.184.787.184 1.32 0 .523-.061.957-.184 1.304-.123.347-.28.624-.472.832-.192.208-.41.355-.656.44-.245.085-.49.128-.736.128-.245 0-.49-.043-.736-.128a1.604 1.604 0 0 1-.656-.44c-.192-.208-.35-.485-.472-.832-.123-.347-.184-.781-.184-1.304zm1.12 0c0 .63.099 1.07.296 1.32.197.25.408.376.632.376a.865.865 0 0 0 .344-.072.689.689 0 0 0 .296-.264c.085-.128.155-.301.208-.52a3.64 3.64 0 0 0 .08-.84c0-.33-.027-.605-.08-.824a1.756 1.756 0 0 0-.208-.528.735.735 0 0 0-.296-.28.792.792 0 0 0-.344-.08c-.245 0-.461.125-.648.376-.187.25-.28.696-.28 1.336zm3.472 5.968c0-.501.061-.925.184-1.272s.28-.627.472-.84c.192-.213.41-.368.656-.464.245-.096.49-.144.736-.144.245 0 .49.043.736.128.245.085.464.232.656.44s.35.485.472.832c.123.347.184.787.184 1.32 0 .523-.061.957-.184 1.304-.123.347-.28.624-.472.832-.192.208-.41.355-.656.44-.245.085-.49.128-.736.128-.245 0-.49-.043-.736-.128a1.604 1.604 0 0 1-.656-.44c-.192-.208-.35-.485-.472-.832-.123-.347-.184-.781-.184-1.304zm1.12 0c0 .63.099 1.07.296 1.32.197.25.408.376.632.376a.959.959 0 0 0 .344-.064.646.646 0 0 0 .296-.248c.085-.123.155-.296.208-.52.053-.224.08-.512.08-.864 0-.33-.027-.605-.08-.824a1.756 1.756 0 0 0-.208-.528.735.735 0 0 0-.296-.28.792.792 0 0 0-.344-.08.749.749 0 0 0-.64.352 1.646 1.646 0 0 0-.208.52 3.64 3.64 0 0 0-.08.84zm.912-8.784l.912.464-5.568 11.248-.912-.416 5.568-11.296zM37.88 132.512h-2.16V136h-1.248v-3.488h-5.168v-.928l5.36-6.784h1.056v6.656h2.16v1.056zm-3.408-5.712l-3.696 4.656h3.696V126.8zm4.608 3.6c0-.907.08-1.72.24-2.44.16-.72.4-1.328.72-1.824.32-.496.725-.875 1.216-1.136.49-.261 1.072-.392 1.744-.392.715 0 1.32.128 1.816.384s.899.63 1.208 1.12c.31.49.533 1.096.672 1.816s.208 1.544.208 2.472c0 .907-.08 1.72-.24 2.44-.16.72-.4 1.328-.72 1.824-.32.496-.725.875-1.216 1.136-.49.261-1.072.392-1.744.392-.704 0-1.304-.141-1.8-.424a3.379 3.379 0 0 1-1.216-1.192c-.315-.512-.541-1.123-.68-1.832-.139-.71-.208-1.49-.208-2.344zm6.512 0c0-.565-.032-1.104-.096-1.616l-4.752 4.336c.181.608.453 1.093.816 1.456.363.363.837.544 1.424.544.939 0 1.608-.39 2.008-1.168.4-.779.6-1.963.6-3.552zm-5.184 0c0 .267.008.523.024.768s.035.485.056.72l4.768-4.32c-.181-.576-.45-1.035-.808-1.376-.357-.341-.84-.512-1.448-.512-.95 0-1.619.392-2.008 1.176-.39.784-.584 1.965-.584 3.544zm8.272 0c0-.907.08-1.72.24-2.44.16-.72.4-1.328.72-1.824.32-.496.725-.875 1.216-1.136.49-.261 1.072-.392 1.744-.392.715 0 1.32.128 1.816.384s.899.63 1.208 1.12c.31.49.533 1.096.672 1.816s.208 1.544.208 2.472c0 .907-.08 1.72-.24 2.44-.16.72-.4 1.328-.72 1.824-.32.496-.725.875-1.216 1.136-.49.261-1.072.392-1.744.392-.704 0-1.304-.141-1.8-.424a3.379 3.379 0 0 1-1.216-1.192c-.315-.512-.541-1.123-.68-1.832-.139-.71-.208-1.49-.208-2.344zm6.512 0c0-.565-.032-1.104-.096-1.616l-4.752 4.336c.181.608.453 1.093.816 1.456.363.363.837.544 1.424.544.939 0 1.608-.39 2.008-1.168.4-.779.6-1.963.6-3.552zm-5.184 0c0 .267.008.523.024.768s.035.485.056.72l4.768-4.32c-.181-.576-.45-1.035-.808-1.376-.357-.341-.84-.512-1.448-.512-.95 0-1.619.392-2.008 1.176-.39.784-.584 1.965-.584 3.544zm7.84-3.072c0-.501.061-.925.184-1.272s.28-.627.472-.84c.192-.213.41-.368.656-.464.245-.096.49-.144.736-.144.245 0 .49.043.736.128.245.085.464.232.656.44s.35.485.472.832c.123.347.184.787.184 1.32 0 .523-.061.957-.184 1.304-.123.347-.28.624-.472.832-.192.208-.41.355-.656.44-.245.085-.49.128-.736.128-.245 0-.49-.043-.736-.128a1.604 1.604 0 0 1-.656-.44c-.192-.208-.35-.485-.472-.832-.123-.347-.184-.781-.184-1.304zm1.12 0c0 .63.099 1.07.296 1.32.197.25.408.376.632.376a.865.865 0 0 0 .344-.072.689.689 0 0 0 .296-.264c.085-.128.155-.301.208-.52a3.64 3.64 0 0 0 .08-.84c0-.33-.027-.605-.08-.824a1.756 1.756 0 0 0-.208-.528.735.735 0 0 0-.296-.28.792.792 0 0 0-.344-.08c-.245 0-.461.125-.648.376-.187.25-.28.696-.28 1.336zm3.472 5.968c0-.501.061-.925.184-1.272s.28-.627.472-.84c.192-.213.41-.368.656-.464.245-.096.49-.144.736-.144.245 0 .49.043.736.128.245.085.464.232.656.44s.35.485.472.832c.123.347.184.787.184 1.32 0 .523-.061.957-.184 1.304-.123.347-.28.624-.472.832-.192.208-.41.355-.656.44-.245.085-.49.128-.736.128-.245 0-.49-.043-.736-.128a1.604 1.604 0 0 1-.656-.44c-.192-.208-.35-.485-.472-.832-.123-.347-.184-.781-.184-1.304zm1.12 0c0 .63.099 1.07.296 1.32.197.25.408.376.632.376a.959.959 0 0 0 .344-.064.646.646 0 0 0 .296-.248c.085-.123.155-.296.208-.52.053-.224.08-.512.08-.864 0-.33-.027-.605-.08-.824a1.756 1.756 0 0 0-.208-.528.735.735 0 0 0-.296-.28.792.792 0 0 0-.344-.08.749.749 0 0 0-.64.352 1.646 1.646 0 0 0-.208.52 3.64 3.64 0 0 0-.08.84zm.912-8.784l.912.464-5.568 11.248-.912-.416 5.568-11.296zM32.696 69.072c.405 0 .779-.05 1.12-.152.341-.101.632-.256.872-.464a2.12 2.12 0 0 0 .56-.776c.133-.31.2-.672.2-1.088 0-.768-.275-1.352-.824-1.752-.55-.4-1.299-.6-2.248-.6l-1.504.08V58.8h5.488v1.152h-4.288V63.2l.8-.032c1.184 0 2.117.288 2.8.864.683.576 1.024 1.397 1.024 2.464 0 .597-.104 1.125-.312 1.584a3.339 3.339 0 0 1-.856 1.16 3.648 3.648 0 0 1-1.288.712c-.496.16-1.037.24-1.624.24-.32 0-.624-.024-.912-.072a6.616 6.616 0 0 1-.784-.176 4.751 4.751 0 0 1-.616-.224 1.673 1.673 0 0 1-.376-.216l.512-1.04c.181.107.459.235.832.384.373.15.848.224 1.424.224zM39.08 64.4c0-.907.08-1.72.24-2.44.16-.72.4-1.328.72-1.824.32-.496.725-.875 1.216-1.136.49-.261 1.072-.392 1.744-.392.715 0 1.32.128 1.816.384s.899.63 1.208 1.12c.31.49.533 1.096.672 1.816s.208 1.544.208 2.472c0 .907-.08 1.72-.24 2.44-.16.72-.4 1.328-.72 1.824-.32.496-.725.875-1.216 1.136-.49.261-1.072.392-1.744.392-.704 0-1.304-.141-1.8-.424a3.379 3.379 0 0 1-1.216-1.192c-.315-.512-.541-1.123-.68-1.832-.139-.71-.208-1.49-.208-2.344zm6.512 0c0-.565-.032-1.104-.096-1.616l-4.752 4.336c.181.608.453 1.093.816 1.456.363.363.837.544 1.424.544.939 0 1.608-.39 2.008-1.168.4-.779.6-1.963.6-3.552zm-5.184 0c0 .267.008.523.024.768s.035.485.056.72l4.768-4.32c-.181-.576-.45-1.035-.808-1.376-.357-.341-.84-.512-1.448-.512-.95 0-1.619.392-2.008 1.176-.39.784-.584 1.965-.584 3.544zm8.272 0c0-.907.08-1.72.24-2.44.16-.72.4-1.328.72-1.824.32-.496.725-.875 1.216-1.136.49-.261 1.072-.392 1.744-.392.715 0 1.32.128 1.816.384s.899.63 1.208 1.12c.31.49.533 1.096.672 1.816s.208 1.544.208 2.472c0 .907-.08 1.72-.24 2.44-.16.72-.4 1.328-.72 1.824-.32.496-.725.875-1.216 1.136-.49.261-1.072.392-1.744.392-.704 0-1.304-.141-1.8-.424a3.379 3.379 0 0 1-1.216-1.192c-.315-.512-.541-1.123-.68-1.832-.139-.71-.208-1.49-.208-2.344zm6.512 0c0-.565-.032-1.104-.096-1.616l-4.752 4.336c.181.608.453 1.093.816 1.456.363.363.837.544 1.424.544.939 0 1.608-.39 2.008-1.168.4-.779.6-1.963.6-3.552zm-5.184 0c0 .267.008.523.024.768s.035.485.056.72l4.768-4.32c-.181-.576-.45-1.035-.808-1.376-.357-.341-.84-.512-1.448-.512-.95 0-1.619.392-2.008 1.176-.39.784-.584 1.965-.584 3.544zm7.84-3.072c0-.501.061-.925.184-1.272s.28-.627.472-.84c.192-.213.41-.368.656-.464.245-.096.49-.144.736-.144.245 0 .49.043.736.128.245.085.464.232.656.44s.35.485.472.832c.123.347.184.787.184 1.32 0 .523-.061.957-.184 1.304-.123.347-.28.624-.472.832-.192.208-.41.355-.656.44-.245.085-.49.128-.736.128-.245 0-.49-.043-.736-.128a1.604 1.604 0 0 1-.656-.44c-.192-.208-.35-.485-.472-.832-.123-.347-.184-.781-.184-1.304zm1.12 0c0 .63.099 1.07.296 1.32.197.25.408.376.632.376a.865.865 0 0 0 .344-.072.689.689 0 0 0 .296-.264c.085-.128.155-.301.208-.52a3.64 3.64 0 0 0 .08-.84c0-.33-.027-.605-.08-.824a1.756 1.756 0 0 0-.208-.528.735.735 0 0 0-.296-.28.792.792 0 0 0-.344-.08c-.245 0-.461.125-.648.376-.187.25-.28.696-.28 1.336zm3.472 5.968c0-.501.061-.925.184-1.272s.28-.627.472-.84c.192-.213.41-.368.656-.464.245-.096.49-.144.736-.144.245 0 .49.043.736.128.245.085.464.232.656.44s.35.485.472.832c.123.347.184.787.184 1.32 0 .523-.061.957-.184 1.304-.123.347-.28.624-.472.832-.192.208-.41.355-.656.44-.245.085-.49.128-.736.128-.245 0-.49-.043-.736-.128a1.604 1.604 0 0 1-.656-.44c-.192-.208-.35-.485-.472-.832-.123-.347-.184-.781-.184-1.304zm1.12 0c0 .63.099 1.07.296 1.32.197.25.408.376.632.376a.959.959 0 0 0 .344-.064.646.646 0 0 0 .296-.248c.085-.123.155-.296.208-.52.053-.224.08-.512.08-.864 0-.33-.027-.605-.08-.824a1.756 1.756 0 0 0-.208-.528.735.735 0 0 0-.296-.28.792.792 0 0 0-.344-.08.749.749 0 0 0-.64.352 1.646 1.646 0 0 0-.208.52 3.64 3.64 0 0 0-.08.84zm.912-8.784l.912.464-5.568 11.248-.912-.416 5.568-11.296zM312.768 419.32c0-1.856.328-3.285.984-4.288.656-1.003 1.667-1.504 3.032-1.504.747 0 1.379.139 1.896.416.517.277.936.67 1.256 1.176.32.507.55 1.115.688 1.824.139.71.208 1.501.208 2.376 0 1.856-.328 3.285-.984 4.288-.656 1.003-1.677 1.504-3.064 1.504-.736 0-1.36-.139-1.872-.416a3.339 3.339 0 0 1-1.248-1.176c-.32-.507-.55-1.115-.688-1.824a12.43 12.43 0 0 1-.208-2.376zm1.408 0c0 .619.04 1.205.12 1.76.08.555.221 1.043.424 1.464.203.421.47.757.8 1.008.33.25.752.376 1.264.376.917 0 1.587-.373 2.008-1.12.421-.747.632-1.91.632-3.488 0-.608-.04-1.192-.12-1.752a5.023 5.023 0 0 0-.424-1.472 2.644 2.644 0 0 0-.816-1.008c-.341-.25-.768-.376-1.28-.376-.907 0-1.568.376-1.984 1.128-.416.752-.624 1.912-.624 3.48zm11.28 1.984h-.88v3.616h-1.232v-8h1.232v3.424h.88l3.152-3.424h1.504l-3.536 3.792 2.912 3.136h1.04v1.072h-1.648l-3.424-3.616zm6.576-4.384h7.936v2.992h-1.088v-1.904h-2.256v5.84h1.936v1.072h-5.184v-1.072h2v-5.84h-2.256v1.904h-1.088v-2.992zm15.328 4.88h-1.92l-2.016 3.12h-1.6v-1.072h.832l1.456-2.176a2.082 2.082 0 0 1-.592-.264 2.18 2.18 0 0 1-.888-1.12c-.09-.25-.136-.53-.136-.84 0-.48.096-.893.288-1.24.192-.347.459-.632.8-.856a3.567 3.567 0 0 1 1.216-.488c.47-.101.987-.152 1.552-.152.405 0 .79.03 1.152.088.363.059.73.12 1.104.184v7.936h-1.248v-3.12zm0-.96v-2.848a4.09 4.09 0 0 0-.528-.144 2.613 2.613 0 0 0-.528-.064c-.81 0-1.43.125-1.856.376-.427.25-.64.648-.64 1.192 0 .437.128.776.384 1.016s.565.397.928.472h2.24zm5.168-2.464c.405-.533.85-.907 1.336-1.12.485-.213 1.09-.32 1.816-.32 1.099 0 1.941.33 2.528.992.587.661.88 1.6.88 2.816 0 1.408-.341 2.488-1.024 3.24-.683.752-1.637 1.128-2.864 1.128-2.592 0-3.888-1.68-3.888-5.04 0-.917.05-1.701.152-2.352.101-.65.248-1.2.44-1.648.192-.448.427-.805.704-1.072.277-.267.592-.477.944-.632a4.584 4.584 0 0 1 1.152-.328c.416-.064.864-.117 1.344-.16.619-.043 1.093-.101 1.424-.176.33-.075.603-.203.816-.384l.192 1.104a1.785 1.785 0 0 1-.384.24c-.139.064-.31.117-.512.16a8.09 8.09 0 0 1-.712.112c-.272.032-.595.059-.968.08a11.7 11.7 0 0 0-1.392.16c-.405.075-.75.227-1.032.456-.283.23-.507.56-.672.992-.165.432-.275 1.016-.328 1.752h.048zm.112 2.56c0 .395.05.779.152 1.152.101.373.256.704.464.992.208.288.472.52.792.696.32.176.704.264 1.152.264.853 0 1.493-.277 1.92-.832.427-.555.64-1.344.64-2.368 0-.395-.045-.763-.136-1.104a2.76 2.76 0 0 0-.408-.896 1.928 1.928 0 0 0-.712-.608 2.247 2.247 0 0 0-1.032-.224c-.992 0-1.712.248-2.16.744-.448.496-.672 1.224-.672 2.184zm8.896-1.216a16.054 16.054 0 0 0-.072-1.344 5.323 5.323 0 0 0-.056-.416h-1.072v-1.04h2.128l.16 1.12h.08a3.61 3.61 0 0 1 1.096-.936c.443-.25.984-.376 1.624-.376 1.141 0 2 .315 2.576.944.576.63.864 1.659.864 3.088 0 .672-.099 1.277-.296 1.816a3.818 3.818 0 0 1-.84 1.368c-.363.373-.8.661-1.312.864a4.57 4.57 0 0 1-1.696.304c-.224 0-.424-.008-.6-.024a5.272 5.272 0 0 1-.48-.064 3.782 3.782 0 0 1-.424-.104 5.833 5.833 0 0 1-.448-.16v3.36h-1.232v-8.4zm3.68-1.824c-.32 0-.621.059-.904.176a2.697 2.697 0 0 0-1.288 1.104c-.139.235-.224.47-.256.704v3.648c.235.16.499.285.792.376.293.09.68.136 1.16.136.853 0 1.536-.28 2.048-.84.512-.56.768-1.379.768-2.456 0-.907-.179-1.608-.536-2.104-.357-.496-.952-.744-1.784-.744zm7.408 5.92c.117.021.259.037.424.048.165.01.333.024.504.04.17.016.336.027.496.032.16.005.288.008.384.008.8 0 1.387-.141 1.76-.424a1.33 1.33 0 0 0 .56-1.112c0-.405-.181-.752-.544-1.04-.363-.288-.933-.432-1.712-.432-.352 0-.696.005-1.032.016-.336.01-.616.043-.84.096v2.768zm0-3.808c.288-.043.595-.072.92-.088.325-.016.701-.024 1.128-.024.619 0 1.144.061 1.576.184.432.123.784.29 1.056.504.272.213.47.461.592.744.123.283.184.59.184.92 0 .97-.328 1.675-.984 2.112-.656.437-1.656.656-3 .656-.17 0-.37-.005-.6-.016-.23-.01-.464-.024-.704-.04l-.728-.048c-.245-.016-.47-.035-.672-.056v-7.936h1.232v3.088zm24.176-3.456c0 .981-.464 2.075-1.392 3.28-.928 1.205-2.224 2.517-3.888 3.936h5.632v1.152h-7.104v-1.152c.203-.192.48-.443.832-.752.352-.31.73-.653 1.136-1.032.405-.379.819-.787 1.24-1.224.421-.437.803-.885 1.144-1.344.341-.459.619-.917.832-1.376.213-.459.32-.901.32-1.328 0-.64-.168-1.144-.504-1.512-.336-.368-.84-.552-1.512-.552-.576 0-1.061.064-1.456.192a3.545 3.545 0 0 0-1.072.56l-.544-.88a5.16 5.16 0 0 1 1.528-.752 6.189 6.189 0 0 1 1.768-.24c1.003 0 1.76.272 2.272.816.512.544.768 1.28.768 2.208zm2.48 2.768c0-.907.08-1.72.24-2.44.16-.72.4-1.328.72-1.824.32-.496.725-.875 1.216-1.136.49-.261 1.072-.392 1.744-.392.715 0 1.32.128 1.816.384s.899.63 1.208 1.12c.31.49.533 1.096.672 1.816s.208 1.544.208 2.472c0 .907-.08 1.72-.24 2.44-.16.72-.4 1.328-.72 1.824-.32.496-.725.875-1.216 1.136-.49.261-1.072.392-1.744.392-.704 0-1.304-.141-1.8-.424a3.379 3.379 0 0 1-1.216-1.192c-.315-.512-.541-1.123-.68-1.832-.139-.71-.208-1.49-.208-2.344zm6.512 0c0-.565-.032-1.104-.096-1.616l-4.752 4.336c.181.608.453 1.093.816 1.456.363.363.837.544 1.424.544.939 0 1.608-.39 2.008-1.168.4-.779.6-1.963.6-3.552zm-5.184 0c0 .267.008.523.024.768s.035.485.056.72l4.768-4.32c-.181-.576-.45-1.035-.808-1.376-.357-.341-.84-.512-1.448-.512-.95 0-1.619.392-2.008 1.176-.39.784-.584 1.965-.584 3.544zm9.424 4.448h2.512v-8.416l-2.56 1.792-.624-.912 3.52-2.512h.896v10.048h2.464v1.152h-6.208v-1.152zm9.552 1.152l4.896-10.048h-5.776v-1.152h7.072v1.04l-4.88 10.16h-1.312zM539.312 419.784h-5.024v5.136h-1.328v-11.2h1.328v4.88h5.024v-4.88h1.328v11.2h-1.328v-5.136zm3.2 1.136c0-1.29.336-2.312 1.008-3.064.672-.752 1.632-1.128 2.88-1.128.672 0 1.25.11 1.736.328.485.219.888.515 1.208.888.32.373.557.816.712 1.328.155.512.232 1.061.232 1.648 0 .64-.085 1.219-.256 1.736-.17.517-.421.957-.752 1.32-.33.363-.739.643-1.224.84-.485.197-1.037.296-1.656.296-.661 0-1.237-.11-1.728-.328a3.391 3.391 0 0 1-1.216-.888 3.62 3.62 0 0 1-.712-1.328 5.672 5.672 0 0 1-.232-1.648zm1.328 0c0 .373.045.747.136 1.12.09.373.237.71.44 1.008.203.299.467.539.792.72.325.181.723.272 1.192.272.853 0 1.496-.264 1.928-.792.432-.528.648-1.304.648-2.328 0-.384-.045-.76-.136-1.128a2.98 2.98 0 0 0-.448-1 2.361 2.361 0 0 0-.8-.72c-.325-.181-.723-.272-1.192-.272-.853 0-1.493.261-1.92.784-.427.523-.64 1.301-.64 2.336zm13.92.88h-1.92l-2.016 3.12h-1.6v-1.072h.832l1.456-2.176a2.082 2.082 0 0 1-.592-.264 2.18 2.18 0 0 1-.888-1.12c-.09-.25-.136-.53-.136-.84 0-.48.096-.893.288-1.24.192-.347.459-.632.8-.856a3.567 3.567 0 0 1 1.216-.488c.47-.101.987-.152 1.552-.152.405 0 .79.03 1.152.088.363.059.73.12 1.104.184v7.936h-1.248v-3.12zm0-.96v-2.848a4.09 4.09 0 0 0-.528-.144 2.613 2.613 0 0 0-.528-.064c-.81 0-1.43.125-1.856.376-.427.25-.64.648-.64 1.192 0 .437.128.776.384 1.016s.565.397.928.472h2.24zm5.168-2.464c.405-.533.85-.907 1.336-1.12.485-.213 1.09-.32 1.816-.32 1.099 0 1.941.33 2.528.992.587.661.88 1.6.88 2.816 0 1.408-.341 2.488-1.024 3.24-.683.752-1.637 1.128-2.864 1.128-2.592 0-3.888-1.68-3.888-5.04 0-.917.05-1.701.152-2.352.101-.65.248-1.2.44-1.648.192-.448.427-.805.704-1.072.277-.267.592-.477.944-.632a4.584 4.584 0 0 1 1.152-.328c.416-.064.864-.117 1.344-.16.619-.043 1.093-.101 1.424-.176.33-.075.603-.203.816-.384l.192 1.104a1.785 1.785 0 0 1-.384.24c-.139.064-.31.117-.512.16a8.09 8.09 0 0 1-.712.112c-.272.032-.595.059-.968.08a11.7 11.7 0 0 0-1.392.16c-.405.075-.75.227-1.032.456-.283.23-.507.56-.672.992-.165.432-.275 1.016-.328 1.752h.048zm.112 2.56c0 .395.05.779.152 1.152.101.373.256.704.464.992.208.288.472.52.792.696.32.176.704.264 1.152.264.853 0 1.493-.277 1.92-.832.427-.555.64-1.344.64-2.368 0-.395-.045-.763-.136-1.104a2.76 2.76 0 0 0-.408-.896 1.928 1.928 0 0 0-.712-.608 2.247 2.247 0 0 0-1.032-.224c-.992 0-1.712.248-2.16.744-.448.496-.672 1.224-.672 2.184zm8.896-1.216a16.054 16.054 0 0 0-.072-1.344 5.323 5.323 0 0 0-.056-.416h-1.072v-1.04h2.128l.16 1.12h.08a3.61 3.61 0 0 1 1.096-.936c.443-.25.984-.376 1.624-.376 1.141 0 2 .315 2.576.944.576.63.864 1.659.864 3.088 0 .672-.099 1.277-.296 1.816a3.818 3.818 0 0 1-.84 1.368c-.363.373-.8.661-1.312.864a4.57 4.57 0 0 1-1.696.304c-.224 0-.424-.008-.6-.024a5.272 5.272 0 0 1-.48-.064 3.782 3.782 0 0 1-.424-.104 5.833 5.833 0 0 1-.448-.16v3.36h-1.232v-8.4zm3.68-1.824c-.32 0-.621.059-.904.176a2.697 2.697 0 0 0-1.288 1.104c-.139.235-.224.47-.256.704v3.648c.235.16.499.285.792.376.293.09.68.136 1.16.136.853 0 1.536-.28 2.048-.84.512-.56.768-1.379.768-2.456 0-.907-.179-1.608-.536-2.104-.357-.496-.952-.744-1.784-.744zm7.408 5.92c.117.021.259.037.424.048.165.01.333.024.504.04.17.016.336.027.496.032.16.005.288.008.384.008.8 0 1.387-.141 1.76-.424a1.33 1.33 0 0 0 .56-1.112c0-.405-.181-.752-.544-1.04-.363-.288-.933-.432-1.712-.432-.352 0-.696.005-1.032.016-.336.01-.616.043-.84.096v2.768zm0-3.808c.288-.043.595-.072.92-.088.325-.016.701-.024 1.128-.024.619 0 1.144.061 1.576.184.432.123.784.29 1.056.504.272.213.47.461.592.744.123.283.184.59.184.92 0 .97-.328 1.675-.984 2.112-.656.437-1.656.656-3 .656-.17 0-.37-.005-.6-.016-.23-.01-.464-.024-.704-.04l-.728-.048c-.245-.016-.47-.035-.672-.056v-7.936h1.232v3.088zm24.176-3.456c0 .981-.464 2.075-1.392 3.28-.928 1.205-2.224 2.517-3.888 3.936h5.632v1.152h-7.104v-1.152c.203-.192.48-.443.832-.752.352-.31.73-.653 1.136-1.032.405-.379.819-.787 1.24-1.224.421-.437.803-.885 1.144-1.344.341-.459.619-.917.832-1.376.213-.459.32-.901.32-1.328 0-.64-.168-1.144-.504-1.512-.336-.368-.84-.552-1.512-.552-.576 0-1.061.064-1.456.192a3.545 3.545 0 0 0-1.072.56l-.544-.88a5.16 5.16 0 0 1 1.528-.752 6.189 6.189 0 0 1 1.768-.24c1.003 0 1.76.272 2.272.816.512.544.768 1.28.768 2.208zm2.48 2.768c0-.907.08-1.72.24-2.44.16-.72.4-1.328.72-1.824.32-.496.725-.875 1.216-1.136.49-.261 1.072-.392 1.744-.392.715 0 1.32.128 1.816.384s.899.63 1.208 1.12c.31.49.533 1.096.672 1.816s.208 1.544.208 2.472c0 .907-.08 1.72-.24 2.44-.16.72-.4 1.328-.72 1.824-.32.496-.725.875-1.216 1.136-.49.261-1.072.392-1.744.392-.704 0-1.304-.141-1.8-.424a3.379 3.379 0 0 1-1.216-1.192c-.315-.512-.541-1.123-.68-1.832-.139-.71-.208-1.49-.208-2.344zm6.512 0c0-.565-.032-1.104-.096-1.616l-4.752 4.336c.181.608.453 1.093.816 1.456.363.363.837.544 1.424.544.939 0 1.608-.39 2.008-1.168.4-.779.6-1.963.6-3.552zm-5.184 0c0 .267.008.523.024.768s.035.485.056.72l4.768-4.32c-.181-.576-.45-1.035-.808-1.376-.357-.341-.84-.512-1.448-.512-.95 0-1.619.392-2.008 1.176-.39.784-.584 1.965-.584 3.544zm9.424 4.448h2.512v-8.416l-2.56 1.792-.624-.912 3.52-2.512h.896v10.048h2.464v1.152h-6.208v-1.152zm9.552 1.152l4.896-10.048h-5.776v-1.152h7.072v1.04l-4.88 10.16h-1.312zM750.344 427.176h-1.12v-2.256h-6.976v2.256h-1.12v-3.44h1.072c.043-.128.141-.41.296-.848.155-.437.315-1.056.48-1.856.165-.8.317-1.803.456-3.008s.208-2.64.208-4.304h5.504v10.016h1.2v3.44zm-2.528-3.44v-8.832h-2.928a39.892 39.892 0 0 1-.2 3.168c-.101.939-.216 1.77-.344 2.496a25.93 25.93 0 0 1-.392 1.872c-.133.523-.248.955-.344 1.296h4.208zm11.248.176c-.192.17-.419.33-.68.48-.261.15-.547.277-.856.384-.31.107-.632.19-.968.248a5.896 5.896 0 0 1-1.016.088c-.64 0-1.205-.099-1.696-.296a3.266 3.266 0 0 1-1.232-.848 3.696 3.696 0 0 1-.752-1.32 5.447 5.447 0 0 1-.256-1.728c0-.672.093-1.27.28-1.792.187-.523.456-.96.808-1.312a3.52 3.52 0 0 1 1.28-.808 4.785 4.785 0 0 1 1.68-.28c.448 0 .89.059 1.328.176.437.117.824.339 1.16.664.336.325.595.773.776 1.344.181.57.245 1.31.192 2.216h-6.192c0 .96.259 1.677.776 2.152.517.475 1.208.712 2.072.712.288 0 .573-.035.856-.104.283-.07.552-.152.808-.248s.483-.203.68-.32c.197-.117.35-.224.456-.32l.496.912zm-3.376-6.128a4.32 4.32 0 0 0-1 .112 2.28 2.28 0 0 0-.832.376 2.07 2.07 0 0 0-.592.688c-.155.283-.253.632-.296 1.048h4.976c-.053-.704-.28-1.25-.68-1.64-.4-.39-.925-.584-1.576-.584zm8.368 3.52h-.88v3.616h-1.232v-8h1.232v3.424h.88l3.152-3.424h1.504l-3.536 3.792 2.912 3.136h1.04v1.072h-1.648l-3.424-3.616zm7.472-3.76a5.082 5.082 0 0 1 1.552-.576 8.483 8.483 0 0 1 1.696-.176c.544 0 .99.085 1.336.256.347.17.619.392.816.664.197.272.33.581.4.928.07.347.104.696.104 1.048 0 .405-.01.837-.032 1.296-.021.459-.037.917-.048 1.376 0 .533.032 1.04.096 1.52h1.072v1.04h-2.128l-.144-1.2h-.08c-.064.096-.16.219-.288.368-.128.15-.296.296-.504.44a3.142 3.142 0 0 1-1.816.536c-.79 0-1.413-.203-1.872-.608-.459-.405-.688-.96-.688-1.664 0-.544.12-.997.36-1.36.24-.363.584-.64 1.032-.832.448-.192.99-.304 1.624-.336.635-.032 1.347.01 2.136.128.053-.49.061-.899.024-1.224-.037-.325-.123-.584-.256-.776a1.072 1.072 0 0 0-.56-.408c-.24-.08-.536-.12-.888-.12-.48 0-.939.067-1.376.2-.437.133-.827.27-1.168.408l-.4-.928zm2.352 6.448c.299 0 .576-.048.832-.144.256-.096.48-.219.672-.368a2.438 2.438 0 0 0 .768-.992v-1.12a9.052 9.052 0 0 0-1.536-.144 4.3 4.3 0 0 0-1.216.152c-.341.101-.608.259-.8.472-.192.213-.288.49-.288.832 0 .352.12.659.36.92s.643.392 1.208.392zm7.648-5.616c.405-.533.85-.907 1.336-1.12.485-.213 1.09-.32 1.816-.32 1.099 0 1.941.33 2.528.992.587.661.88 1.6.88 2.816 0 1.408-.341 2.488-1.024 3.24-.683.752-1.637 1.128-2.864 1.128-2.592 0-3.888-1.68-3.888-5.04 0-.917.05-1.701.152-2.352.101-.65.248-1.2.44-1.648.192-.448.427-.805.704-1.072.277-.267.592-.477.944-.632a4.584 4.584 0 0 1 1.152-.328c.416-.064.864-.117 1.344-.16.619-.043 1.093-.101 1.424-.176.33-.075.603-.203.816-.384l.192 1.104a1.785 1.785 0 0 1-.384.24c-.139.064-.31.117-.512.16a8.09 8.09 0 0 1-.712.112c-.272.032-.595.059-.968.08a11.7 11.7 0 0 0-1.392.16c-.405.075-.75.227-1.032.456-.283.23-.507.56-.672.992-.165.432-.275 1.016-.328 1.752h.048zm.112 2.56c0 .395.05.779.152 1.152.101.373.256.704.464.992.208.288.472.52.792.696.32.176.704.264 1.152.264.853 0 1.493-.277 1.92-.832.427-.555.64-1.344.64-2.368 0-.395-.045-.763-.136-1.104a2.76 2.76 0 0 0-.408-.896 1.928 1.928 0 0 0-.712-.608 2.247 2.247 0 0 0-1.032-.224c-.992 0-1.712.248-2.16.744-.448.496-.672 1.224-.672 2.184zm8.896-1.216a16.054 16.054 0 0 0-.072-1.344 5.323 5.323 0 0 0-.056-.416h-1.072v-1.04h2.128l.16 1.12h.08a3.61 3.61 0 0 1 1.096-.936c.443-.25.984-.376 1.624-.376 1.141 0 2 .315 2.576.944.576.63.864 1.659.864 3.088 0 .672-.099 1.277-.296 1.816a3.818 3.818 0 0 1-.84 1.368c-.363.373-.8.661-1.312.864a4.57 4.57 0 0 1-1.696.304c-.224 0-.424-.008-.6-.024a5.272 5.272 0 0 1-.48-.064 3.782 3.782 0 0 1-.424-.104 5.833 5.833 0 0 1-.448-.16v3.36h-1.232v-8.4zm3.68-1.824c-.32 0-.621.059-.904.176a2.697 2.697 0 0 0-1.288 1.104c-.139.235-.224.47-.256.704v3.648c.235.16.499.285.792.376.293.09.68.136 1.16.136.853 0 1.536-.28 2.048-.84.512-.56.768-1.379.768-2.456 0-.907-.179-1.608-.536-2.104-.357-.496-.952-.744-1.784-.744zm7.408 5.92c.117.021.259.037.424.048.165.01.333.024.504.04.17.016.336.027.496.032.16.005.288.008.384.008.8 0 1.387-.141 1.76-.424a1.33 1.33 0 0 0 .56-1.112c0-.405-.181-.752-.544-1.04-.363-.288-.933-.432-1.712-.432-.352 0-.696.005-1.032.016-.336.01-.616.043-.84.096v2.768zm0-3.808c.288-.043.595-.072.92-.088.325-.016.701-.024 1.128-.024.619 0 1.144.061 1.576.184.432.123.784.29 1.056.504.272.213.47.461.592.744.123.283.184.59.184.92 0 .97-.328 1.675-.984 2.112-.656.437-1.656.656-3 .656-.17 0-.37-.005-.6-.016-.23-.01-.464-.024-.704-.04l-.728-.048c-.245-.016-.47-.035-.672-.056v-7.936h1.232v3.088zm24.176-3.456c0 .981-.464 2.075-1.392 3.28-.928 1.205-2.224 2.517-3.888 3.936h5.632v1.152h-7.104v-1.152c.203-.192.48-.443.832-.752.352-.31.73-.653 1.136-1.032.405-.379.819-.787 1.24-1.224.421-.437.803-.885 1.144-1.344.341-.459.619-.917.832-1.376.213-.459.32-.901.32-1.328 0-.64-.168-1.144-.504-1.512-.336-.368-.84-.552-1.512-.552-.576 0-1.061.064-1.456.192a3.545 3.545 0 0 0-1.072.56l-.544-.88a5.16 5.16 0 0 1 1.528-.752 6.189 6.189 0 0 1 1.768-.24c1.003 0 1.76.272 2.272.816.512.544.768 1.28.768 2.208zm2.48 2.768c0-.907.08-1.72.24-2.44.16-.72.4-1.328.72-1.824.32-.496.725-.875 1.216-1.136.49-.261 1.072-.392 1.744-.392.715 0 1.32.128 1.816.384s.899.63 1.208 1.12c.31.49.533 1.096.672 1.816s.208 1.544.208 2.472c0 .907-.08 1.72-.24 2.44-.16.72-.4 1.328-.72 1.824-.32.496-.725.875-1.216 1.136-.49.261-1.072.392-1.744.392-.704 0-1.304-.141-1.8-.424a3.379 3.379 0 0 1-1.216-1.192c-.315-.512-.541-1.123-.68-1.832-.139-.71-.208-1.49-.208-2.344zm6.512 0c0-.565-.032-1.104-.096-1.616l-4.752 4.336c.181.608.453 1.093.816 1.456.363.363.837.544 1.424.544.939 0 1.608-.39 2.008-1.168.4-.779.6-1.963.6-3.552zm-5.184 0c0 .267.008.523.024.768s.035.485.056.72l4.768-4.32c-.181-.576-.45-1.035-.808-1.376-.357-.341-.84-.512-1.448-.512-.95 0-1.619.392-2.008 1.176-.39.784-.584 1.965-.584 3.544zm9.424 4.448h2.512v-8.416l-2.56 1.792-.624-.912 3.52-2.512h.896v10.048h2.464v1.152h-6.208v-1.152zm9.552 1.152l4.896-10.048h-5.776v-1.152h7.072v1.04l-4.88 10.16h-1.312zM969 424.92h-1.328v-4.624h-1.648l-2.784 4.624h-1.568l3.104-4.832a3.303 3.303 0 0 1-.88-.352 2.73 2.73 0 0 1-.736-.624 2.916 2.916 0 0 1-.504-.904c-.123-.347-.184-.755-.184-1.224 0-.65.11-1.192.328-1.624.219-.432.517-.779.896-1.04a3.728 3.728 0 0 1 1.328-.56 7.434 7.434 0 0 1 1.608-.168c.363 0 .75.016 1.16.048a7.6 7.6 0 0 1 1.208.192v11.088zm-2.432-10.176a4.75 4.75 0 0 0-1.008.104c-.32.07-.605.19-.856.36-.25.17-.45.4-.6.688-.15.288-.224.65-.224 1.088 0 .405.072.752.216 1.04.144.288.339.525.584.712.245.187.53.323.856.408.325.085.675.128 1.048.128h1.088v-4.432a4.215 4.215 0 0 0-.464-.072 6.74 6.74 0 0 0-.64-.024zm10.976 6.624h-4.304v3.552h-1.232v-8h1.232v3.328h4.304v-3.328h1.248v8h-1.248v-3.552zm4.576-4.432c.203-.01.405-.024.608-.04.203-.016.421-.03.656-.04l.76-.032a23.7 23.7 0 0 1 .92-.016c1.152 0 1.984.163 2.496.488.512.325.768.813.768 1.464 0 .373-.123.744-.368 1.112-.245.368-.645.632-1.2.792v.064c.704.117 1.2.333 1.488.648.288.315.432.744.432 1.288 0 .832-.339 1.435-1.016 1.808s-1.661.56-2.952.56c-.512 0-.97-.013-1.376-.04a93.15 93.15 0 0 1-1.216-.088v-7.968zm1.232 6.976a17.04 17.04 0 0 0 1.568.064c.832 0 1.453-.104 1.864-.312.41-.208.616-.568.616-1.08a1.2 1.2 0 0 0-.12-.544 1.06 1.06 0 0 0-.4-.416 2.26 2.26 0 0 0-.728-.272 5.469 5.469 0 0 0-1.12-.096h-1.68v2.656zm1.904-3.616c.213 0 .427-.035.64-.104.213-.07.408-.16.584-.272.176-.112.317-.245.424-.4a.846.846 0 0 0 .16-.488c0-.437-.157-.741-.472-.912-.315-.17-.84-.256-1.576-.256-.405 0-.728.005-.968.016-.24.01-.472.021-.696.032v2.384h1.904zm6.272-2.752a5.082 5.082 0 0 1 1.552-.576 8.483 8.483 0 0 1 1.696-.176c.544 0 .99.085 1.336.256.347.17.619.392.816.664.197.272.33.581.4.928.07.347.104.696.104 1.048 0 .405-.01.837-.032 1.296-.021.459-.037.917-.048 1.376 0 .533.032 1.04.096 1.52h1.072v1.04h-2.128l-.144-1.2h-.08c-.064.096-.16.219-.288.368-.128.15-.296.296-.504.44a3.142 3.142 0 0 1-1.816.536c-.79 0-1.413-.203-1.872-.608-.459-.405-.688-.96-.688-1.664 0-.544.12-.997.36-1.36.24-.363.584-.64 1.032-.832.448-.192.99-.304 1.624-.336.635-.032 1.347.01 2.136.128.053-.49.061-.899.024-1.224-.037-.325-.123-.584-.256-.776a1.072 1.072 0 0 0-.56-.408c-.24-.08-.536-.12-.888-.12-.48 0-.939.067-1.376.2-.437.133-.827.27-1.168.408l-.4-.928zm2.352 6.448c.299 0 .576-.048.832-.144.256-.096.48-.219.672-.368a2.438 2.438 0 0 0 .768-.992v-1.12a9.052 9.052 0 0 0-1.536-.144 4.3 4.3 0 0 0-1.216.152c-.341.101-.608.259-.8.472-.192.213-.288.49-.288.832 0 .352.12.659.36.92s.643.392 1.208.392zm7.056-4.272a16.034 16.034 0 0 0-.072-1.344 5.324 5.324 0 0 0-.056-.416h-1.072v-1.04h2.128l.16 1.12h.08a3.61 3.61 0 0 1 1.096-.936c.443-.25.984-.376 1.624-.376 1.141 0 2 .315 2.576.944.576.63.864 1.659.864 3.088 0 .672-.099 1.277-.296 1.816a3.818 3.818 0 0 1-.84 1.368c-.363.373-.8.661-1.312.864a4.57 4.57 0 0 1-1.696.304c-.224 0-.424-.008-.6-.024a5.272 5.272 0 0 1-.48-.064 3.783 3.783 0 0 1-.424-.104 5.832 5.832 0 0 1-.448-.16v3.36h-1.232v-8.4zm3.68-1.824c-.32 0-.621.059-.904.176a2.697 2.697 0 0 0-1.288 1.104c-.139.235-.224.47-.256.704v3.648c.235.16.499.285.792.376.293.09.68.136 1.16.136.853 0 1.536-.28 2.048-.84.512-.56.768-1.379.768-2.456 0-.907-.179-1.608-.536-2.104-.357-.496-.952-.744-1.784-.744zm7.408 5.92c.117.021.259.037.424.048.165.01.333.024.504.04.17.016.336.027.496.032.16.005.288.008.384.008.8 0 1.387-.141 1.76-.424a1.33 1.33 0 0 0 .56-1.112c0-.405-.181-.752-.544-1.04-.363-.288-.933-.432-1.712-.432-.352 0-.696.005-1.032.016-.336.01-.616.043-.84.096v2.768zm0-3.808c.288-.043.595-.072.92-.088.325-.016.701-.024 1.128-.024.619 0 1.144.061 1.576.184.432.123.784.29 1.056.504.272.213.47.461.592.744.123.283.184.59.184.92 0 .97-.328 1.675-.984 2.112-.656.437-1.656.656-3 .656-.17 0-.37-.005-.6-.016-.23-.01-.464-.024-.704-.04l-.728-.048c-.245-.016-.47-.035-.672-.056v-7.936h1.232v3.088zm24.176-3.456c0 .981-.464 2.075-1.392 3.28-.928 1.205-2.224 2.517-3.888 3.936h5.632v1.152h-7.104v-1.152c.203-.192.48-.443.832-.752.352-.31.73-.653 1.136-1.032.405-.379.819-.787 1.24-1.224.421-.437.803-.885 1.144-1.344.341-.459.619-.917.832-1.376.213-.459.32-.901.32-1.328 0-.64-.168-1.144-.504-1.512-.336-.368-.84-.552-1.512-.552-.576 0-1.061.064-1.456.192a3.544 3.544 0 0 0-1.072.56l-.544-.88a5.16 5.16 0 0 1 1.528-.752 6.189 6.189 0 0 1 1.768-.24c1.003 0 1.76.272 2.272.816.512.544.768 1.28.768 2.208zm2.48 2.768c0-.907.08-1.72.24-2.44.16-.72.4-1.328.72-1.824.32-.496.725-.875 1.216-1.136.49-.261 1.072-.392 1.744-.392.715 0 1.32.128 1.816.384s.899.63 1.208 1.12c.31.49.533 1.096.672 1.816s.208 1.544.208 2.472c0 .907-.08 1.72-.24 2.44-.16.72-.4 1.328-.72 1.824-.32.496-.725.875-1.216 1.136-.49.261-1.072.392-1.744.392-.704 0-1.304-.141-1.8-.424a3.379 3.379 0 0 1-1.216-1.192c-.315-.512-.541-1.123-.68-1.832-.139-.71-.208-1.49-.208-2.344zm6.512 0c0-.565-.032-1.104-.096-1.616l-4.752 4.336c.181.608.453 1.093.816 1.456.363.363.837.544 1.424.544.939 0 1.608-.39 2.008-1.168.4-.779.6-1.963.6-3.552zm-5.184 0c0 .267.008.523.024.768s.035.485.056.72l4.768-4.32c-.181-.576-.45-1.035-.808-1.376-.357-.341-.84-.512-1.448-.512-.95 0-1.619.392-2.008 1.176-.39.784-.584 1.965-.584 3.544zm9.424 4.448h2.512v-8.416l-2.56 1.792-.624-.912 3.52-2.512h.896v10.048h2.464v1.152h-6.208v-1.152zm8.768-1.568c0-1.29.784-2.33 2.352-3.12-.299-.16-.576-.325-.832-.496a3.33 3.33 0 0 1-.664-.576 2.433 2.433 0 0 1-.44-.736 2.663 2.663 0 0 1-.16-.96c0-.395.08-.763.24-1.104.16-.341.39-.635.688-.88.299-.245.661-.44 1.088-.584a4.434 4.434 0 0 1 1.424-.216c.49 0 .936.064 1.336.192s.741.307 1.024.536c.283.23.499.499.648.808.15.31.224.64.224.992 0 .608-.152 1.165-.456 1.672-.304.507-.792.968-1.464 1.384.31.16.597.33.864.512.267.181.499.384.696.608.197.224.352.477.464.76.112.283.168.605.168.968 0 .448-.08.867-.24 1.256-.16.39-.397.723-.712 1a3.45 3.45 0 0 1-1.16.656c-.459.16-.992.24-1.6.24-.565 0-1.067-.08-1.504-.24a3.285 3.285 0 0 1-1.096-.64 2.634 2.634 0 0 1-.664-.928 2.799 2.799 0 0 1-.224-1.104zm5.936-.16c0-.31-.072-.584-.216-.824a2.436 2.436 0 0 0-.576-.648 4.969 4.969 0 0 0-.824-.528c-.31-.16-.63-.32-.96-.48-.768.373-1.315.784-1.64 1.232-.325.448-.488.87-.488 1.264 0 .267.05.52.152.76.101.24.25.45.448.632.197.181.443.325.736.432.293.107.632.16 1.016.16.31 0 .605-.043.888-.128a2.37 2.37 0 0 0 .752-.376c.219-.165.392-.373.52-.624.128-.25.192-.541.192-.872zm-4.432-5.776c0 .299.07.565.208.8.139.235.323.445.552.632.23.187.493.357.792.512.299.155.613.307.944.456.565-.373.99-.747 1.272-1.12.283-.373.424-.784.424-1.232 0-.267-.056-.504-.168-.712a1.732 1.732 0 0 0-.448-.536 2.038 2.038 0 0 0-.648-.344 2.461 2.461 0 0 0-.768-.12c-.341 0-.645.048-.912.144-.267.096-.49.224-.672.384-.181.16-.323.339-.424.536a1.3 1.3 0 0 0-.152.6z"/>
        <path fill="url(#a)" d="M83 23h981v338H83z"/>
    </g>
</svg>
