<?xml version="1.0" encoding="UTF-8"?>
<svg width="660px" height="292px" viewBox="0 0 660 292" version="1.1" xmlns="http://www.w3.org/2000/svg" xmlns:xlink="http://www.w3.org/1999/xlink">
    <!-- Generator: Sketch 49.1 (51147) - http://www.bohemiancoding.com/sketch -->
    <title>Path 3</title>
    <desc>Created with Sketch.</desc>
    <defs>
        <linearGradient x1="2.42890995%" y1="112.652853%" x2="96.5847303%" y2="-3.96582093%" id="linearGradient-1">
            <stop stop-color="#F7618B" offset="0%"></stop>
            <stop stop-color="#2A7AFF" offset="100%"></stop>
        </linearGradient>
        <polygon id="path-2" points="423.818313 6192 417 6187.49782 423.952819 6176.92054 432.043699 6176.92054 435.868518 6169.14857 455.299829 6169.14857 457.432044 6174.55709 463.520372 6169.14857 498.832736 6169.14857 528.303119 6164.5497 556.140077 6164.5497 565.785273 6158.80415 576.80354 6158.80415 586.588293 6168.86461 613.485424 6164.5497 639.928619 6164.5497 664.554603 6169.04862 694.533511 6160.88088 701.001122 6168.48463 739.209523 6155.69414 758.894578 6145.49868 764.892102 6133.01413 793.545013 6123.78842 797.605076 6139.66016 801.836176 6132.28061 823.762017 6132.28061 831.847028 6141.06922 840.274745 6121.14739 845.301554 6132.0447 863.37526 6064.16879 868.811639 6084.8625 877.859511 6080.98933 883.954344 6056.98749 902.008345 6050.80621 904.562773 6081.23333 907.256174 6059.92614 913.459176 6081.50883 914.894205 6071.25981 929.814155 6067.71916 932.937426 6075.67648 935.721768 6066.9589 943.381265 6080.9784 950.983985 6072.96275 950.983985 6043.37471 960.850192 6043.37471 968.697561 6013.73446 975.552001 6013.73446 986.631998 5951.40913 989.065082 5972.47019 994.582202 5922.60612 1004.30824 5975.27818 1012.63094 5922 1018.43694 5954.76836 1023 5955.36964 1017.57639 5996.71499 1013.13753 5971.66262 1004.97984 6023.8845 996.607936 5978.54585 989.240211 6045.1358 984.916608 6007.71019 982.390801 6021.91793 974.978557 6021.91793 967.131187 6051.55818 959.149018 6051.55818 959.149018 6076.23176 941.592092 6094.74228 937.697747 6087.61429 933.727712 6100.0442 924.807258 6077.31708 922.204651 6077.9347 916.219803 6120.67868 910.376769 6100.34846 902.923585 6159.30975 894.749115 6061.93938 890.776872 6063.29939 884.777143 6086.92671 875.663169 6090.82817 868.928294 6117.44624 863.322013 6096.1058 847.367342 6156.02366 840.597679 6141.34812 834.42365 6155.94259 820.184327 6140.46408 806.561307 6140.46408 794.681729 6161.1835 787.78875 6134.23722 770.727729 6139.73056 765.067426 6151.51314 742.396096 6163.25528 698.361937 6177.99598 691.678965 6170.13904 664.910825 6177.432 639.190546 6172.73317 614.134743 6172.73317 583.697379 6177.61601 573.360257 6166.98762 568.028556 6166.98762 558.383359 6172.73317 528.934956 6172.73317 499.464573 6177.33204 466.618053 6177.33204 454.122748 6188.43213 449.746724 6177.33204 440.945426 6177.33204 437.120607 6185.10401 428.35129 6185.10401"></polygon>
        <filter x="-4.5%" y="-12.4%" width="118.2%" height="130.0%" filterUnits="objectBoundingBox" id="filter-3">
            <feOffset dx="42" dy="7" in="SourceAlpha" result="shadowOffsetOuter1"></feOffset>
            <feGaussianBlur stdDeviation="6.5" in="shadowOffsetOuter1" result="shadowBlurOuter1"></feGaussianBlur>
            <feColorMatrix values="0 0 0 0 0   0 0 0 0 0   0 0 0 0 0  0 0 0 0.15 0" type="matrix" in="shadowBlurOuter1"></feColorMatrix>
        </filter>
    </defs>
    <g id="Page-1" stroke="none" stroke-width="1" fill="none" fill-rule="evenodd">
        <g id="Charts" transform="translate(-417.000000, -5919.000000)" fill-rule="nonzero">
            <g id="Path-3">
                <use fill="black" fill-opacity="1" filter="url(#filter-3)" xlink:href="#path-2"></use>
                <use fill="url(#linearGradient-1)" fill-rule="evenodd" xlink:href="#path-2"></use>
            </g>
        </g>
    </g>
</svg>