<?xml version="1.0" encoding="UTF-8"?>
<svg width="657px" height="330px" viewBox="0 0 657 330" version="1.1" xmlns="http://www.w3.org/2000/svg" xmlns:xlink="http://www.w3.org/1999/xlink">
    <!-- Generator: Sketch 49.1 (51147) - http://www.bohemiancoding.com/sketch -->
    <title>Path 12</title>
    <desc>Created with Sketch.</desc>
    <defs>
        <linearGradient x1="2.42890995%" y1="112.652853%" x2="96.5847303%" y2="-3.96582093%" id="linearGradient-1">
            <stop stop-color="#F7618B" offset="0%"></stop>
            <stop stop-color="#2A7AFF" offset="100%"></stop>
        </linearGradient>
        <path d="M525.278367,6673.62219 L421,6673.62219 L421,6665.45251 L522.712651,6665.45251 L529.991889,6660.38309 L569.072709,6665.0747 L571.990079,6655.58418 L582.831797,6655.58418 L596.661819,6659.98981 L601.20232,6655.58418 L616.847823,6655.58418 L678.811279,6660.48659 L694.429531,6655.26369 L700.435126,6658.20591 L775.063151,6655.64644 L791.185175,6637.59087 L795.738787,6645.38049 L802.225033,6640.41616 L816.879309,6640.41616 L826.462111,6613.67221 L834.32563,6627.0587 L841.423553,6622.85754 L845.139601,6631.16207 L848.464299,6626.19483 L863.849993,6609.01085 L878.244052,6574.88981 L883.38216,6583.49998 L889.645177,6576.49074 L896.646436,6592.13705 L905.076948,6580.0193 L907.669653,6593.89902 L908.848041,6575.64417 L919.274761,6606.44041 L931.815773,6603.64146 L941.672647,6553.35267 L945.770491,6561.42037 L960.300943,6400.85923 L970.713129,6367 L975.87967,6437.24268 L977.971758,6413.19965 L996.755585,6499.89844 L1001.32117,6471.47064 L1004.48035,6495.34881 L1009.71006,6436.90776 L1024,6492.11071 L1016.08876,6494.15753 L1013.6385,6484.69203 L1006.0487,6569.50673 L1000.53991,6527.86938 L997.949204,6544.0005 L981.428182,6467.74593 L976.952191,6519.18562 L968.52003,6448.52824 L966.577328,6422.17312 L951.348897,6590.44691 L945.129325,6578.20201 L938.808223,6610.45165 L914.43893,6615.89047 L911.620454,6659.55254 L900.630361,6600.71844 L895.094569,6608.67541 L887.33645,6591.33768 L882.064515,6597.23776 L879.499002,6592.93861 L870.84922,6613.44287 L854.936394,6631.21559 L843.713946,6647.98242 L837.704592,6634.55287 L831.431949,6638.26556 L828.263168,6632.87117 L822.632343,6648.58584 L804.993965,6648.58584 L793.35492,6657.49394 L789.799066,6651.41113 L778.833685,6663.69161 L698.67359,6666.44081 L693.843253,6664.07436 L679.825466,6668.76206 L616.524971,6663.75386 L604.515916,6663.75386 L598.842405,6669.25884 L581.561321,6663.75386 L578.027786,6663.75386 L574.878138,6674 L532.108474,6668.86556 L525.278367,6673.62219 Z M864.305164,6608.50247 L863.58479,6609.63951 L863.849993,6609.01085 L864.305164,6608.50247 Z M819.755826,6640.41616 L815.909244,6643.12344 L816.879309,6640.41616 L819.755826,6640.41616 Z M701.352367,6658.65528 L699.41427,6658.24092 L700.435126,6658.20591 L701.352367,6658.65528 Z M679.640722,6660.55222 L678.022218,6660.75047 L678.811279,6660.48659 L679.640722,6660.55222 Z M598.992605,6660.73229 L594.906409,6661.69308 L596.661819,6659.98981 L598.992605,6660.73229 Z" id="path-2"></path>
        <filter x="-4.6%" y="-10.9%" width="118.2%" height="126.4%" filterUnits="objectBoundingBox" id="filter-3">
            <feOffset dx="42" dy="7" in="SourceAlpha" result="shadowOffsetOuter1"></feOffset>
            <feGaussianBlur stdDeviation="6.5" in="shadowOffsetOuter1" result="shadowBlurOuter1"></feGaussianBlur>
            <feColorMatrix values="0 0 0 0 0   0 0 0 0 0   0 0 0 0 0  0 0 0 0.15 0" type="matrix" in="shadowBlurOuter1"></feColorMatrix>
        </filter>
    </defs>
    <g id="Page-1" stroke="none" stroke-width="1" fill="none" fill-rule="evenodd">
        <g id="Charts" transform="translate(-421.000000, -6364.000000)" fill-rule="nonzero">
            <g id="Path-12">
                <use fill="black" fill-opacity="1" filter="url(#filter-3)" xlink:href="#path-2"></use>
                <use fill="url(#linearGradient-1)" fill-rule="evenodd" xlink:href="#path-2"></use>
            </g>
        </g>
    </g>
</svg>