<?xml version="1.0" encoding="UTF-8"?>
<svg width="644px" height="253px" viewBox="0 0 644 253" version="1.1" xmlns="http://www.w3.org/2000/svg" xmlns:xlink="http://www.w3.org/1999/xlink">
    <!-- Generator: Sketch 49.1 (51147) - http://www.bohemiancoding.com/sketch -->
    <title>Path 2</title>
    <desc>Created with Sketch.</desc>
    <defs>
        <linearGradient x1="2.42890995%" y1="112.652853%" x2="96.5847303%" y2="-3.96582093%" id="linearGradient-1">
            <stop stop-color="#F7618B" offset="0%"></stop>
            <stop stop-color="#2A7AFF" offset="100%"></stop>
        </linearGradient>
        <path d="M428.331803,5725 L425,5717.53618 L443.022987,5709.49717 L463.037585,5710.5701 L488.260326,5704.10381 L510.70473,5700.12891 L556.552961,5700.12891 L563.134314,5696.02437 L570.414856,5692.95118 L639.742926,5692.95118 L660.83064,5685.02576 L688.214236,5682.13392 L698.660419,5682.13392 L700.964021,5687.43187 L710.748103,5685.15028 L726.070047,5678.06073 L745.186785,5673.22746 L774.660134,5657.33277 L790.274135,5641.58163 L795.23905,5657.36622 L827.139373,5611.90027 L837.477997,5616.37528 L839.323019,5624.09526 L840.763721,5617.96545 L849.407543,5599.4992 L872.920763,5568.01244 L876.002376,5571.12539 L880.281295,5559.41623 L897.053374,5555.21628 L899.949547,5579.93736 L905.337153,5547.57412 L910.647891,5584.56264 L921.525805,5553.74912 L927.371135,5576.30256 L937.038923,5553.09367 L939.53517,5567.83422 L940.438455,5563.64234 L946.378759,5563.64234 L956.332137,5524.64023 L978.185224,5495 L984.71266,5534.49078 L987.536847,5534.49078 L996.781982,5521.32011 L996.781982,5537.22536 L1000.78058,5526.28959 L1010.90443,5526.28959 L1015,5542.7519 L1007.06528,5544.72437 L1005.31616,5537.6937 L988.605585,5583.39551 L988.605585,5542.66395 L977.776354,5542.66395 L973.27573,5515.43532 L963.860509,5528.20557 L952.731205,5571.81551 L947.041192,5571.81551 L943.986232,5585.99271 L934.317511,5585.99271 L933.703035,5582.36418 L925.561444,5601.90921 L920.325948,5581.70873 L907.282742,5618.65581 L904.740468,5600.94924 L898.541424,5638.18677 L890.014703,5565.40459 L886.473754,5566.29129 L879.258817,5586.03479 L873.790546,5580.51092 L856.459368,5603.71925 L848.529258,5620.66075 L839.389501,5659.54802 L830.47575,5622.25092 L792.412371,5675.62881 L786.540274,5656.96008 L779.612345,5663.94886 L748.175722,5680.90232 L728.813428,5685.79768 L713.422016,5692.91937 L696.182711,5696.93947 L693.298885,5690.30709 L688.644941,5690.30709 L662.729451,5693.04389 L641.229214,5701.12435 L572.07043,5701.12435 L566.912306,5703.30165 L558.894446,5708.30209 L511.423438,5708.30209 L489.991627,5712.09766 L463.853053,5718.79873 L444.554113,5717.76417 L428.331803,5725 Z M989.662477,5534.49078 L986.315926,5536.23011 L987.536847,5534.49078 L989.662477,5534.49078 Z M880.536543,5575.70567 L873.790578,5577.17793 L876.002376,5571.12539 L880.536543,5575.70567 Z M745.678797,5673.10306 L744.740136,5673.46833 L745.186785,5673.22746 L745.678797,5673.10306 Z M711.156279,5685.05509 L710.367741,5685.32627 L710.748103,5685.15028 L711.156279,5685.05509 Z" id="path-2"></path>
        <filter x="-4.7%" y="-14.6%" width="118.6%" height="135.2%" filterUnits="objectBoundingBox" id="filter-3">
            <feOffset dx="42" dy="7" in="SourceAlpha" result="shadowOffsetOuter1"></feOffset>
            <feGaussianBlur stdDeviation="6.5" in="shadowOffsetOuter1" result="shadowBlurOuter1"></feGaussianBlur>
            <feColorMatrix values="0 0 0 0 0   0 0 0 0 0   0 0 0 0 0  0 0 0 0.15 0" type="matrix" in="shadowBlurOuter1"></feColorMatrix>
        </filter>
    </defs>
    <g id="Page-1" stroke="none" stroke-width="1" fill="none" fill-rule="evenodd">
        <g id="Charts" transform="translate(-425.000000, -5491.000000)" fill-rule="nonzero">
            <g id="Path-2">
                <use fill="black" fill-opacity="1" filter="url(#filter-3)" xlink:href="#path-2"></use>
                <use fill="url(#linearGradient-1)" fill-rule="evenodd" xlink:href="#path-2"></use>
            </g>
        </g>
    </g>
</svg>