<svg xmlns="http://www.w3.org/2000/svg" width="91" height="42" viewBox="0 0 91 42">
    <g fill="#6F95BA" fill-rule="evenodd">
        <g fill-rule="nonzero">
            <path d="M14.939 28.176h2.087v1.876h-2.087z"/>
            <path d="M16.809 28.176h1.868v1.876h-1.868zM16.743 30.052h1.868v1.876h-1.868zM18.651 31.931h1.868v1.876h-1.868zM20.521 33.807h1.868v1.876h-1.868zM24.259 31.931h1.868v1.876h-1.868zM27.996 31.931h1.868v1.876h-1.868zM29.864 33.807h1.868v1.876h-1.868zM26.126 35.686h1.868v1.876h-1.868zM24.259 37.562h1.868v1.876h-1.868zM27.996 39.439h1.868v1.876h-1.868zM22.389 30.052h1.868v1.876h-1.868z"/>
            <path d="M22.389 28.071h1.868v1.981h-1.868z"/>
            <path d="M24.117 28.176h2.012v1.876h-2.012zM18.651 27.915h1.868v2.137h-1.868z"/>
            <path d="M18.488 26.297h2.156v1.876h-2.156z"/>
            <path d="M20.521 26.136h1.998v2.04h-1.998z"/>
            <path d="M20.521 24.466h5.605v1.831h-5.605z"/>
            <path d="M22.389 26.129h1.868v2.045h-1.868zM25.959 24.2h2.035v2.097h-2.035zM29.864 22.587h1.868v1.876h-1.868zM27.996 26.297h1.868v1.876h-1.868z"/>
            <path d="M27.996 28.071h1.868v1.981h-1.868z"/>
            <path d="M29.581 26.297h2.153v1.876h-2.153zM16.809 26.181h1.804v2.163h-1.804zM13.071 26.181h1.868v1.995h-1.868z"/>
            <path d="M13.071 24.421h5.605v1.876h-5.605zM11.055 26.297h2.243v1.876h-2.243z"/>
            <path d="M11.055 28.071h2.016v1.981h-2.016z"/>
            <path d="M9.334 28.071h1.868v1.981H9.334z"/>
            <path d="M9.334 26.129h1.868v2.045H9.334z"/>
            <path d="M7.478 26.181h2.463v1.995H7.478zM5.608 28.176h1.868v1.876H5.608zM3.74 30.052h1.868v1.876H3.74zM1.872 28.124H3.74v1.929H1.872z"/>
            <path d="M1.872 26.297H3.74v1.876H1.872zM.002 24.264H1.87v2.033H.002zM15.865.014L0 15.077l31.732-.005L15.865.014zm-.907 10.876H13.09V9.014h1.868v1.876zm1.733 2.31v-1.876h1.868v1.877H16.69zM.002 28.176H1.91v1.876H.002zM.002 15.077h2.153v7.724H.002zM29.581 15.077h2.153v7.588h-2.153zM3.74 24.466h7.461v1.831H3.74zM.002 30.052H1.87v1.876H.002zM.002 33.807H1.87v1.876H.002zM1.872 35.686H3.74v1.876H1.872zM9.334 30.052h1.868v1.876H9.334zM7.478 31.931h1.868v1.876H7.478zM13.071 31.931h1.868v1.876h-1.868zM14.939 35.686h1.868v1.876h-1.868zM16.809 39.439h1.868v1.876h-1.868zM13.071 37.562h1.868v1.876h-1.868zM5.608 33.807h1.868v1.876H5.608zM9.334 33.807h1.868v1.876H9.334zM7.464 37.562h1.868v1.876H7.464zM9.334 39.439h1.868v1.876H9.334z"/>
            <path d="M1.872 14.773v7.892h27.994v-7.892H1.872zm11.2 2.183h1.867v1.876h-1.868v-1.876zM7.477 20.71H5.61v-1.876h1.868v1.876zm1.856-3.755H7.466v-1.877h1.868v1.877zm7.442 5.61h-1.844l.007.1h-1.868l-.007-1.979H16.778v1.879h-.002zm3.705-1.855h-1.868v-1.876h-1.868v-1.877h1.868v1.877h1.868v1.876zm3.778-1.879H22.39v-1.876h1.868v-1.877h1.867v1.877H24.26v1.876zm3.737 3.755H26.13v-1.876h1.867v1.876z"/>
            <path d="M5.608 22.587h1.856v1.876H5.608zM.002 22.587H3.74v1.876H.002zM13.071 22.587H9.334v1.879h18.662v-1.879H24.26v1.855h-1.87v-1.855h-7.45v1.855h-1.868v-1.855"/>
        </g>
        <path d="M41.09 12.705a4.044 4.044 0 0 1-2.45-.798c-.725-.531-1.238-1.242-1.536-2.132l1.729-.65c.245.53.584.957 1.017 1.277.432.32.899.48 1.4.48.492 0 .887-.13 1.186-.39.298-.261.448-.635.448-1.124 0-.412-.203-.778-.609-1.098-.405-.32-.97-.643-1.697-.969a16.259 16.259 0 0 1-1.105-.537 7.09 7.09 0 0 1-.936-.634 2.599 2.599 0 0 1-.777-.96 2.91 2.91 0 0 1-.256-1.237c0-.847.317-1.56.953-2.14.635-.581 1.47-.871 2.505-.871.822 0 1.54.227 2.154.683a3.24 3.24 0 0 1 1.225 1.742l-1.713.586c-.385-.793-.977-1.189-1.778-1.189-.416 0-.758.109-1.024.326-.267.217-.4.515-.4.895 0 .087.01.171.031.252a.647.647 0 0 0 .112.228c.054.07.105.136.153.195.048.06.122.125.224.196.101.07.187.127.256.17a6.476 6.476 0 0 0 .632.326c.075.033.198.09.369.171.17.081.293.138.368.171.448.206.822.399 1.12.578.3.179.63.415.994.708.362.293.64.64.832 1.041.192.402.288.841.288 1.319 0 1.041-.36 1.866-1.08 2.473-.721.608-1.599.912-2.634.912zm9.16-9.668a1.04 1.04 0 0 1-.77-.325 1.094 1.094 0 0 1-.32-.798c0-.314.107-.577.32-.789.214-.212.47-.317.77-.317.309 0 .57.105.784.317.214.212.32.475.32.79 0 .314-.106.58-.32.797a1.058 1.058 0 0 1-.785.325zm.928 7.829h2.258v1.643h-6.357v-1.643h2.258v-5.03h-2.258V4.194h4.1v6.673zm10.36-6.868c.736 0 1.377.146 1.921.439v3.076h-1.793V5.739h-.16c-.843 0-1.495.2-1.954.602-.459.402-.688 1.004-.688 1.807v2.718h2.29v1.643h-5.86v-1.643h1.729v-5.03h-1.73V4.194h3.443v1.334c.224-.477.592-.851 1.105-1.123a3.57 3.57 0 0 1 1.697-.406zm7.157-.96a1.04 1.04 0 0 1-.768-.326 1.094 1.094 0 0 1-.32-.798c0-.314.106-.577.32-.789.213-.212.47-.317.768-.317.31 0 .571.105.785.317.213.212.32.475.32.79 0 .314-.107.58-.32.797a1.058 1.058 0 0 1-.785.325zm.929 7.828h2.258v1.643h-6.357v-1.643h2.258v-5.03h-2.258V4.194h4.099v6.673zm7.686 1.839c-.908 0-1.641-.274-2.202-.822-.56-.548-.84-1.424-.84-2.629V4.193h1.84v4.655c0 1.378.561 2.067 1.682 2.067 1.206 0 1.81-.679 1.81-2.035V4.193h1.84v8.316H79.6v-.797c-.524.662-1.287.993-2.29.993zm9.815 0a4.604 4.604 0 0 1-1.921-.399c-.587-.266-1.057-.627-1.41-1.082l1.201-1.107c.673.662 1.415.993 2.226.993.395 0 .72-.07.977-.212.256-.14.384-.352.384-.634 0-.163-.077-.318-.232-.464a2.098 2.098 0 0 0-.536-.366 18.253 18.253 0 0 0-.897-.391 1.436 1.436 0 0 0-.208-.09 3.235 3.235 0 0 0-.112-.04 31.77 31.77 0 0 1-.881-.399 7.774 7.774 0 0 1-.696-.39c-.273-.169-.47-.329-.593-.48a2.324 2.324 0 0 1-.328-.579 2.056 2.056 0 0 1-.144-.789c0-.705.299-1.261.896-1.668.598-.407 1.35-.61 2.258-.61 1.27 0 2.29.439 3.058 1.318L88.934 6.34c-.587-.499-1.216-.748-1.889-.748-.416 0-.75.062-1 .187-.252.125-.377.3-.377.529 0 .108.043.214.128.317.085.103.235.212.448.326.214.113.39.2.529.26s.373.155.704.285c.982.401 1.634.727 1.954.976.566.456.854 1.047.864 1.774 0 .77-.285 1.373-.856 1.807-.571.434-1.343.65-2.314.65zm-45.97 14.631c-.63 0-1.199-.114-1.706-.342a3.725 3.725 0 0 1-1.265-.903 4.905 4.905 0 0 1-.84-1.334 7.03 7.03 0 0 1-.48-1.595 9.832 9.832 0 0 1-.145-1.701c0-.716.083-1.408.248-2.075a6.983 6.983 0 0 1 .761-1.872 3.946 3.946 0 0 1 1.393-1.4c.587-.352 1.265-.529 2.034-.529.875 0 1.606.228 2.193.684a3.96 3.96 0 0 1 1.281 1.693l-1.697.83c-.235-.456-.488-.798-.76-1.026-.273-.227-.612-.341-1.017-.341-.577 0-1.057.217-1.441.65a3.622 3.622 0 0 0-.801 1.522 7.453 7.453 0 0 0-.224 1.864c0 1.074.213 2.015.64 2.824.427.808 1.036 1.212 1.826 1.212.747 0 1.345-.488 1.793-1.465l1.73.668c-.705 1.757-1.88 2.636-3.523 2.636zm11.16-8.69c.737 0 1.377.146 1.921.439v3.076h-1.793v-1.774h-.16c-.843 0-1.494.2-1.953.602-.46.401-.689 1.003-.689 1.806v2.718h2.29v1.644h-5.86v-1.644H47.8v-5.029h-1.73v-1.643h3.443v1.334c.224-.477.592-.852 1.105-1.123a3.57 3.57 0 0 1 1.697-.407zm4.9 11.668l1.249-3.303-3.059-8.17h1.874l1.873 5.077c.086.217.166.478.24.782.022-.076.048-.16.08-.253.032-.092.064-.19.096-.293a3.63 3.63 0 0 1 .08-.236l1.874-5.077h1.89L59.12 30.314h-1.905zm7.894.114V18.841h1.841v.634c.502-.553 1.169-.83 2.001-.83 1.1 0 1.973.385 2.618 1.156.646.77.97 1.839.97 3.206 0 1.335-.334 2.392-1.002 3.174-.667.78-1.523 1.171-2.57 1.171-.853 0-1.526-.287-2.017-.862v3.076l-1.841.862zm3.586-4.866c.63 0 1.118-.22 1.465-.659.347-.44.52-1.071.52-1.896 0-.792-.173-1.421-.52-1.888-.347-.467-.84-.7-1.48-.7-.77 0-1.346.277-1.73.83v3.483c.384.553.966.83 1.745.83zm9.912 1.79c-1.602 0-2.402-.754-2.402-2.262v-4.606h-1.713v-1.643h1.713V16.3l1.841-.895v3.435h2.786v1.643h-2.786v4.248c0 .64.385.96 1.153.96.448 0 .918-.13 1.41-.39l-.225 1.676c-.47.25-1.062.374-1.777.374zm8.47 0c-1.206 0-2.162-.387-2.866-1.163-.705-.776-1.057-1.837-1.057-3.182 0-1.335.352-2.395 1.057-3.182.704-.786 1.66-1.18 2.866-1.18 1.217 0 2.175.394 2.874 1.18.7.787 1.049 1.847 1.049 3.182s-.35 2.392-1.049 3.174c-.699.78-1.657 1.171-2.874 1.171zm0-1.79c.662 0 1.172-.228 1.53-.683.357-.456.536-1.08.536-1.872s-.18-1.421-.537-1.888c-.357-.467-.867-.7-1.529-.7-.651 0-1.158.233-1.521.7-.363.467-.544 1.096-.544 1.888 0 .781.181 1.402.544 1.863.363.462.87.692 1.521.692zm-49.83 16.243V30.412h7.558v1.84h-5.652v2.75h4.115v1.839h-4.115v4.964h-1.905zM49.642 42c-.907 0-1.641-.274-2.202-.822-.56-.548-.84-1.424-.84-2.628v-5.062h1.841v4.655c0 1.378.56 2.067 1.681 2.067 1.207 0 1.81-.678 1.81-2.035v-4.687h1.841v8.317h-1.841v-.798c-.523.662-1.287.993-2.29.993zm10.344-8.707c.896 0 1.625.274 2.185.822.56.548.841 1.418.841 2.612v5.078H61.17v-4.688c0-.716-.155-1.236-.465-1.562-.31-.325-.72-.488-1.233-.488-1.206 0-1.809.673-1.809 2.018v4.72h-1.841v-8.317h1.697v1.025c.16-.325.472-.61.937-.854a3.235 3.235 0 0 1 1.529-.366zM68.343 42c-1.12 0-2.001-.382-2.642-1.147-.64-.765-.96-1.837-.96-3.215 0-1.334.328-2.392.984-3.173.657-.782 1.513-1.172 2.57-1.172.875 0 1.553.266 2.033.797v-3.173l1.842-.863v11.75h-1.842v-.634c-.17.228-.434.423-.792.586a2.847 2.847 0 0 1-1.193.244zm.256-1.79c.8 0 1.377-.272 1.73-.814v-3.515c-.385-.543-.972-.814-1.762-.814-.63 0-1.115.222-1.457.667-.342.445-.512 1.08-.512 1.904 0 .781.173 1.405.52 1.872.347.466.84.7 1.481.7z"/>
    </g>
</svg>
