<svg xmlns="http://www.w3.org/2000/svg" width="114" height="53" viewBox="0 0 114 53">
    <g fill="none" fill-rule="evenodd">
        <g fill="#2A7AFF" fill-rule="nonzero">
            <path d="M18.715 35.684h2.615v2.323h-2.615z"/>
            <path d="M21.058 35.684h2.34v2.323h-2.34zM20.975 38.007h2.34v2.323h-2.34zM23.365 40.334h2.34v2.323h-2.34zM25.707 42.657h2.34v2.323h-2.34zM30.39 40.334h2.34v2.323h-2.34zM35.072 40.334h2.34v2.323h-2.34z"/>
            <path d="M37.412 42.657h2.34v2.323h-2.34zM32.73 44.983h2.34v2.323h-2.34zM30.39 47.306h2.34v2.323h-2.34zM35.072 49.629h2.34v2.323h-2.34zM28.047 38.007h2.34v2.323h-2.34zM28.047 35.555h2.34v2.452h-2.34z"/>
            <path d="M30.212 35.684h2.52v2.323h-2.52zM23.365 35.361h2.34v2.646h-2.34z"/>
            <path d="M23.161 33.358h2.701v2.323h-2.701z"/>
            <path d="M25.707 33.159h2.502v2.526h-2.502z"/>
            <path d="M25.707 31.091h7.022v2.267h-7.022z"/>
            <path d="M28.047 33.15h2.34v2.532h-2.34zM32.52 30.762h2.55v2.596h-2.55zM37.412 28.765h2.34v2.323h-2.34zM35.072 33.358h2.34v2.323h-2.34z"/>
            <path d="M35.072 35.555h2.34v2.452h-2.34z"/>
            <path d="M37.057 33.358h2.698v2.323h-2.698zM21.058 33.214h2.26v2.678h-2.26zM16.375 33.214h2.34v2.47h-2.34z"/>
            <path d="M16.375 31.035h7.022v2.323h-7.022zM13.849 33.358h2.81v2.323h-2.81z"/>
            <path d="M13.849 35.555h2.526v2.452h-2.526z"/>
            <path d="M11.693 35.555h2.34v2.452h-2.34z"/>
            <path d="M11.693 33.15h2.34v2.532h-2.34z"/>
            <path d="M9.368 33.214h3.085v2.47H9.368zM7.025 35.684h2.34v2.323h-2.34zM4.685 38.007h2.34v2.323h-2.34z"/>
            <path d="M2.346 35.62h2.34v2.388h-2.34z"/>
            <path d="M2.346 33.358h2.34v2.323h-2.34zM.003 30.841h2.34v2.517H.003zM19.874.818L0 19.467l39.752-.006L19.874.818zM18.74 14.283h-2.34V11.96h2.34v2.323zm2.17 2.86v-2.322h2.34v2.323h-2.34zM.003 35.684h2.39v2.323H.003zM.003 19.467h2.698v9.563H.003zM37.057 19.467h2.698v9.395h-2.698z"/>
            <path d="M4.685 31.091h9.347v2.267H4.685zM.003 38.007h2.34v2.323H.003zM.003 42.657h2.34v2.323H.003zM2.346 44.983h2.34v2.323h-2.34zM11.693 38.007h2.34v2.323h-2.34zM9.368 40.334h2.34v2.323h-2.34zM16.375 40.334h2.34v2.323h-2.34zM18.715 44.983h2.34v2.323h-2.34zM21.058 49.629h2.34v2.323h-2.34zM16.375 47.306h2.34v2.323h-2.34zM7.025 42.657h2.34v2.323h-2.34z"/>
            <path d="M11.693 42.657h2.34v2.323h-2.34zM9.35 47.306h2.34v2.323H9.35zM11.693 49.629h2.34v2.323h-2.34zM2.346 19.091v9.771h35.069v-9.771H2.345zm14.03 2.702h2.339v2.323h-2.34v-2.323zm-7.008 4.649h-2.34v-2.323h2.34v2.323zm2.325-4.65h-2.34V19.47h2.34v2.323zm9.323 6.947h-2.31l.009.123h-2.34l-.009-2.45H21.02v2.327h-.003zm4.641-2.297h-2.34v-2.323h-2.34v-2.323h2.34v2.323h2.34v2.323zm4.733-2.326h-2.34v-2.323h2.34V19.47h2.34v2.323h-2.34v2.323zm4.682 4.65h-2.34v-2.324h2.34v2.323z"/>
            <path d="M7.025 28.765H9.35v2.323H7.025zM.003 28.765h4.682v2.323H.003zM16.375 28.765h-4.682v2.326h23.38v-2.326H30.39v2.297h-2.343v-2.297h-9.332v2.297h-2.34v-2.297"/>
        </g>
        <path fill="#FFF" d="M51.32 16.24a5.107 5.107 0 0 1-3.06-.98c-.907-.653-1.547-1.527-1.92-2.62l2.16-.8c.307.653.73 1.177 1.27 1.57s1.123.59 1.75.59c.613 0 1.107-.16 1.48-.48.373-.32.56-.78.56-1.38 0-.507-.253-.957-.76-1.35-.507-.393-1.213-.79-2.12-1.19a20.451 20.451 0 0 1-1.38-.66 8.866 8.866 0 0 1-1.17-.78 3.204 3.204 0 0 1-.97-1.18 3.526 3.526 0 0 1-.32-1.52c0-1.04.397-1.917 1.19-2.63.793-.713 1.837-1.07 3.13-1.07 1.027 0 1.923.28 2.69.84.767.56 1.277 1.273 1.53 2.14l-2.14.72C52.76 4.487 52.02 4 51.02 4c-.52 0-.947.133-1.28.4-.333.267-.5.633-.5 1.1 0 .107.013.21.04.31a.79.79 0 0 0 .14.28c.067.087.13.167.19.24.06.073.153.153.28.24.127.087.233.157.32.21.087.053.217.123.39.21.173.087.307.15.4.19.093.04.247.11.46.21.213.1.367.17.46.21.56.253 1.027.49 1.4.71.373.22.787.51 1.24.87.453.36.8.787 1.04 1.28s.36 1.033.36 1.62c0 1.28-.45 2.293-1.35 3.04-.9.747-1.997 1.12-3.29 1.12zM62.76 4.36a1.31 1.31 0 0 1-.96-.4 1.333 1.333 0 0 1-.4-.98c0-.387.133-.71.4-.97s.587-.39.96-.39c.387 0 .713.13.98.39s.4.583.4.97-.133.713-.4.98-.593.4-.98.4zm1.16 9.62h2.82V16H58.8v-2.02h2.82V7.8H58.8V5.78h5.12v8.2zm12.94-8.44c.92 0 1.72.18 2.4.54v3.78h-2.24V7.68h-.2c-1.053 0-1.867.247-2.44.74s-.86 1.233-.86 2.22v3.34h2.86V16h-7.32v-2.02h2.16V7.8h-2.16V5.78h4.3v1.64c.28-.587.74-1.047 1.38-1.38a4.52 4.52 0 0 1 2.12-.5zm8.94-1.18a1.31 1.31 0 0 1-.96-.4 1.333 1.333 0 0 1-.4-.98c0-.387.133-.71.4-.97s.587-.39.96-.39c.387 0 .713.13.98.39s.4.583.4.97-.133.713-.4.98-.593.4-.98.4zm1.16 9.62h2.82V16h-7.94v-2.02h2.82V7.8h-2.82V5.78h5.12v8.2zm9.6 2.26c-1.133 0-2.05-.337-2.75-1.01-.7-.673-1.05-1.75-1.05-3.23V5.78h2.3v5.72c0 1.693.7 2.54 2.1 2.54 1.507 0 2.26-.833 2.26-2.5V5.78h2.3V16h-2.3v-.98c-.653.813-1.607 1.22-2.86 1.22zm12.26 0a5.83 5.83 0 0 1-2.4-.49c-.733-.327-1.32-.77-1.76-1.33l1.5-1.36c.84.813 1.767 1.22 2.78 1.22.493 0 .9-.087 1.22-.26.32-.173.48-.433.48-.78 0-.2-.097-.39-.29-.57a2.623 2.623 0 0 0-.67-.45c-.253-.12-.627-.28-1.12-.48a1.807 1.807 0 0 0-.26-.11c-.053-.02-.1-.037-.14-.05-.493-.213-.86-.377-1.1-.49a9.757 9.757 0 0 1-.87-.48c-.34-.207-.587-.403-.74-.59a2.844 2.844 0 0 1-.41-.71 2.49 2.49 0 0 1-.18-.97c0-.867.373-1.55 1.12-2.05.747-.5 1.687-.75 2.82-.75 1.587 0 2.86.54 3.82 1.62l-1.54 1.26c-.733-.613-1.52-.92-2.36-.92-.52 0-.937.077-1.25.23-.313.153-.47.37-.47.65 0 .133.053.263.16.39.107.127.293.26.56.4.267.14.487.247.66.32.173.073.467.19.88.35 1.227.493 2.04.893 2.44 1.2.707.56 1.067 1.287 1.08 2.18 0 .947-.357 1.687-1.07 2.22-.713.533-1.677.8-2.89.8zM51.4 34.22c-.787 0-1.497-.14-2.13-.42a4.652 4.652 0 0 1-1.58-1.11 6.016 6.016 0 0 1-1.05-1.64 8.534 8.534 0 0 1-.6-1.96c-.12-.673-.18-1.37-.18-2.09 0-.88.103-1.73.31-2.55.207-.82.523-1.587.95-2.3a4.889 4.889 0 0 1 1.74-1.72c.733-.433 1.58-.65 2.54-.65 1.093 0 2.007.28 2.74.84a4.875 4.875 0 0 1 1.6 2.08l-2.12 1.02c-.293-.56-.61-.98-.95-1.26-.34-.28-.763-.42-1.27-.42-.72 0-1.32.267-1.8.8a4.427 4.427 0 0 0-1 1.87 9.018 9.018 0 0 0-.28 2.29c0 1.32.267 2.477.8 3.47.533.993 1.293 1.49 2.28 1.49.933 0 1.68-.6 2.24-1.8l2.16.82c-.88 2.16-2.347 3.24-4.4 3.24zm13.94-10.68c.92 0 1.72.18 2.4.54v3.78H65.5v-2.18h-.2c-1.053 0-1.867.247-2.44.74S62 27.653 62 28.64v3.34h2.86V34h-7.32v-2.02h2.16V25.8h-2.16v-2.02h4.3v1.64c.28-.587.74-1.047 1.38-1.38a4.52 4.52 0 0 1 2.12-.5zm6.12 14.34l1.56-4.06-3.82-10.04h2.34l2.34 6.24c.107.267.207.587.3.96.027-.093.06-.197.1-.31.04-.113.08-.233.12-.36.04-.127.073-.223.1-.29l2.34-6.24h2.36l-5.36 14.1h-2.38zm9.86.14V23.78h2.3v.78c.627-.68 1.46-1.02 2.5-1.02 1.373 0 2.463.473 3.27 1.42.807.947 1.21 2.26 1.21 3.94 0 1.64-.417 2.94-1.25 3.9s-1.903 1.44-3.21 1.44c-1.067 0-1.907-.353-2.52-1.06v3.78l-2.3 1.06zm4.48-5.98c.787 0 1.397-.27 1.83-.81.433-.54.65-1.317.65-2.33 0-.973-.217-1.747-.65-2.32-.433-.573-1.05-.86-1.85-.86-.96 0-1.68.34-2.16 1.02v4.28c.48.68 1.207 1.02 2.18 1.02zm12.38 2.2c-2 0-3-.927-3-2.78V25.8h-2.14v-2.02h2.14v-3.12l2.3-1.1v4.22h3.48v2.02h-3.48v5.22c0 .787.48 1.18 1.44 1.18.56 0 1.147-.16 1.76-.48l-.28 2.06c-.587.307-1.327.46-2.22.46zm10.58 0c-1.507 0-2.7-.477-3.58-1.43-.88-.953-1.32-2.257-1.32-3.91 0-1.64.44-2.943 1.32-3.91.88-.967 2.073-1.45 3.58-1.45 1.52 0 2.717.483 3.59 1.45.873.967 1.31 2.27 1.31 3.91 0 1.64-.437 2.94-1.31 3.9s-2.07 1.44-3.59 1.44zm0-2.2c.827 0 1.463-.28 1.91-.84.447-.56.67-1.327.67-2.3 0-.973-.223-1.747-.67-2.32-.447-.573-1.083-.86-1.91-.86-.813 0-1.447.287-1.9.86-.453.573-.68 1.347-.68 2.32 0 .96.227 1.723.68 2.29.453.567 1.087.85 1.9.85zM46.52 52V38h9.44v2.26H48.9v3.38h5.14v2.26H48.9V52h-2.38zm15.48.24c-1.133 0-2.05-.337-2.75-1.01-.7-.673-1.05-1.75-1.05-3.23v-6.22h2.3v5.72c0 1.693.7 2.54 2.1 2.54 1.507 0 2.26-.833 2.26-2.5v-5.76h2.3V52h-2.3v-.98c-.653.813-1.607 1.22-2.86 1.22zm12.92-10.7c1.12 0 2.03.337 2.73 1.01.7.673 1.05 1.743 1.05 3.21V52h-2.3v-5.76c0-.88-.193-1.52-.58-1.92-.387-.4-.9-.6-1.54-.6-1.507 0-2.26.827-2.26 2.48V52h-2.3V41.78h2.12v1.26c.2-.4.59-.75 1.17-1.05.58-.3 1.217-.45 1.91-.45zm10.44 10.7c-1.4 0-2.5-.47-3.3-1.41-.8-.94-1.2-2.257-1.2-3.95 0-1.64.41-2.94 1.23-3.9.82-.96 1.89-1.44 3.21-1.44 1.093 0 1.94.327 2.54.98v-3.9l2.3-1.06V52h-2.3v-.78c-.213.28-.543.52-.99.72-.447.2-.943.3-1.49.3zm.32-2.2c1 0 1.72-.333 2.16-1v-4.32c-.48-.667-1.213-1-2.2-1-.787 0-1.393.273-1.82.82-.427.547-.64 1.327-.64 2.34 0 .96.217 1.727.65 2.3.433.573 1.05.86 1.85.86z"/>
    </g>
</svg>
